<svg width="19" height="19" viewBox="0 0 19 19" fill="none" xmlns="http://www.w3.org/2000/svg">
<path d="M14.2497 1.58334L17.4163 4.75001M1.58301 17.4167L2.59349 13.7116C2.65942 13.4698 2.69238 13.349 2.74298 13.2363C2.78791 13.1362 2.84312 13.0411 2.90772 12.9524C2.98047 12.8525 3.06905 12.764 3.24622 12.5868L11.4268 4.40618C11.5836 4.24942 11.662 4.17104 11.7524 4.14168C11.8319 4.11585 11.9175 4.11585 11.997 4.14168C12.0874 4.17104 12.1658 4.24942 12.3225 4.40618L14.5935 6.67718C14.7503 6.83393 14.8286 6.91231 14.858 7.00269C14.8838 7.08219 14.8838 7.16783 14.858 7.24733C14.8286 7.33771 14.7503 7.41609 14.5935 7.57285L6.41289 15.7535C6.23572 15.9306 6.14714 16.0192 6.04728 16.092C5.95862 16.1566 5.86349 16.2118 5.76342 16.2567C5.65071 16.3073 5.52984 16.3403 5.28812 16.4062L1.58301 17.4167Z" stroke="black" stroke-width="2" stroke-linecap="round" stroke-linejoin="round"/>
</svg>
