<svg width="93" height="71" viewBox="0 0 93 71" fill="none" xmlns="http://www.w3.org/2000/svg">
<path fill-rule="evenodd" clip-rule="evenodd" d="M0 0.169684C0 0.2794 0.181219 0.798459 0.402783 1.32309C0.862639 2.41238 3.60734 9.11933 6.83339 17.0369C8.04617 20.0135 9.77899 24.2467 10.6841 26.4438C11.5892 28.6411 12.8287 31.6669 13.4388 33.1678C15.8736 39.159 20.8644 51.3661 21.2262 52.2149C21.4376 52.711 22.2569 54.7036 23.0473 56.6429C23.8374 58.5822 24.8316 61.0176 25.2565 62.0549C25.6814 63.0922 26.4931 65.0848 27.0602 66.4829C28.311 69.5661 28.7384 70.0909 29.9986 70.0909C30.9952 70.0909 33.2325 69.2421 33.1665 68.889C33.125 68.6667 31.7957 65.2014 26.5183 51.5589C25.2098 48.1764 22.9849 42.42 21.5744 38.7669C20.1636 35.1138 18.5764 31.0179 18.0474 29.6649C17.5183 28.3119 16.347 25.2861 15.4444 22.9409C14.5419 20.5957 13.3829 17.6068 12.8689 16.2989C12.3549 14.991 11.7255 13.3553 11.4705 12.6639L11.0065 11.4068L12.3503 11.3079C13.0893 11.2536 18.4172 10.9912 24.19 10.7251C29.9628 10.4587 35.2395 10.2009 35.916 10.152C36.5925 10.103 37.2387 10.1238 37.3517 10.1981C37.5496 10.328 40.2226 18.6069 40.1049 18.7246C40.0539 18.7756 30.6923 19.6924 27.101 19.9981C26.2787 20.0681 25.7483 20.1854 25.7488 20.2971C25.7508 20.6807 27.7409 25.7309 28.0091 26.0323C28.1636 26.206 28.5439 26.4556 28.854 26.5868C29.3721 26.8057 29.911 26.761 35.4655 26.0361C40.94 25.3215 41.553 25.2697 41.9382 25.4878C42.3077 25.6973 42.5216 26.2331 43.5678 29.5732C44.2301 31.6875 44.772 33.5142 44.772 33.6322C44.772 33.7503 44.6416 33.8469 44.4822 33.8469C44.2206 33.8469 29.0226 36.7213 27.0692 37.1404L26.2569 37.3145L26.7289 38.5737C28.0794 42.1775 28.2846 42.5645 29.0567 42.9638C29.714 43.3036 30.3425 43.2348 33.62 42.4643C37.0625 41.655 37.8765 41.4928 37.9791 41.5954C38.0539 41.6702 38.7522 43.6153 40.9654 49.9132C41.4838 51.3885 42.007 52.0183 42.8763 52.2134C43.5705 52.3692 42.612 52.6234 57.0658 48.4519C59.9036 47.6329 62.2967 46.9864 62.3836 47.0155C62.4707 47.0445 62.8902 48.5648 63.3158 50.3937C64.1586 54.0148 64.3828 54.4643 65.5369 54.8452C66.2411 55.0775 66.2186 55.0848 72.242 52.7186C75.0382 51.6203 79.9459 49.6941 83.148 48.4385C86.3501 47.1827 89.7818 45.8337 90.774 45.4404L92.578 44.7252L92.621 38.4661C92.6446 35.0236 92.6393 32.2069 92.6092 32.2069C92.579 32.2069 92.2052 32.326 91.7783 32.4713C91.3514 32.6168 90.9746 32.7081 90.9408 32.6745C90.907 32.6407 91.2783 32.1341 91.7659 31.549L92.6525 30.4849L92.6562 25.2343C92.6605 19.3003 92.6343 19.1576 91.4244 18.5298L90.793 18.2021L84.9615 18.9182L79.13 19.6342L77.8283 20.9011L76.5267 22.168L75.3826 21.2552C74.0299 20.1759 74.3036 20.1975 69.331 20.7755C67.5496 20.9824 66.092 21.1113 66.092 21.0618C66.092 21.0121 67.3453 18.652 68.8771 15.8171C70.409 12.982 71.6377 10.6378 71.6075 10.6076C71.5773 10.5776 66.6893 10.7006 60.7453 10.8812C54.8013 11.0617 48.6135 11.229 46.9947 11.2531L44.0514 11.2969L43.273 8.60633C42.3043 5.25795 42.2454 5.11806 41.6047 4.63721C40.9918 4.17719 41.9061 4.17998 22.468 4.57948C16.1089 4.71019 10.3156 4.81629 9.594 4.81515L8.282 4.81318L7.48693 2.84912C6.3591 0.0629223 6.36435 0.0665291 3.30837 0.0496371C1.98489 0.0422571 0.698968 0.0214258 0.451 0.00322185C0.187944 -0.0161301 0 0.0532443 0 0.169684ZM52.726 16.6681C48.9376 16.8462 45.8082 17.0195 45.7719 17.0533C45.7355 17.0869 46.0204 18.2041 46.4051 19.5358C48.7821 27.7645 51.7997 38.3525 51.7732 38.3712C51.7561 38.3835 49.8232 38.8164 47.478 39.3335C45.1328 39.8508 43.1945 40.2926 43.1705 40.3154C43.038 40.4425 44.742 45.078 44.9754 45.2252C45.1825 45.3559 45.7982 45.2675 47.4309 44.8731C48.6294 44.5835 51.3443 43.9367 53.464 43.4358C58.731 42.1914 64.5169 40.7723 65.5657 40.4676L66.4336 40.2157L65.8267 39.5323C65.4929 39.1564 63.2943 36.8639 60.9409 34.4376C58.5875 32.0116 56.5766 29.9055 56.4723 29.7576C56.3186 29.5401 56.5 28.9581 57.4231 26.7069C58.0506 25.1767 59.1076 22.5965 59.7719 20.9729C60.4363 19.3493 61.1338 17.6642 61.3219 17.2283C61.51 16.7924 61.664 16.4049 61.664 16.3673C61.664 16.2658 60.3131 16.3112 52.726 16.6681ZM74.2656 25.0441L62.8414 26.8618L64.167 28.3454C64.8961 29.1613 65.9803 30.354 66.5761 30.9958L67.6597 32.1628L72.8909 31.1206C75.7682 30.5474 78.1376 30.0961 78.1563 30.1177C78.1752 30.1392 76.7158 31.6698 74.9132 33.5189C73.1105 35.368 70.6355 38.0617 69.4127 39.5049C68.19 40.9481 67.0814 42.2552 66.9492 42.4095C66.7362 42.6581 66.7693 42.9962 67.2395 45.3615C67.8258 48.312 67.9296 48.6069 68.3819 48.6069C68.5527 48.6069 71.004 47.8253 73.8292 46.87C76.6544 45.9145 80.9955 44.4484 83.476 43.6116L87.986 42.0904L87.9253 39.7316C87.8919 38.4343 87.8492 37.3549 87.8304 37.3326C87.8115 37.3104 85.228 38.033 82.0892 38.9381C78.9506 39.8434 76.3543 40.5558 76.3197 40.5214C76.2853 40.4868 78.7769 37.9635 81.857 34.9137L87.4568 29.3689L87.3389 26.4835C87.2741 24.8965 87.1442 23.5054 87.0504 23.3924C86.9566 23.2794 86.6122 23.1958 86.285 23.2066C85.9576 23.2174 80.5491 24.0443 74.2656 25.0441ZM36.9499 60.0797C35.9127 60.7121 35.5365 61.7973 36.0092 62.7932C36.7312 64.315 38.9974 64.4434 39.7941 63.0078C40.1323 62.3983 40.0693 61.1831 39.6736 60.6798C38.95 59.7601 37.866 59.5211 36.9499 60.0797ZM53.5139 60.0797C52.8265 60.4987 52.4767 61.055 52.4498 61.7717C52.4021 63.0409 53.2943 64.0229 54.4949 64.0229C55.2983 64.0229 55.596 63.8804 55.596 63.4958C55.596 63.2469 55.527 63.1968 55.309 63.2885C54.3693 63.6834 53.6105 63.4699 53.2113 62.698C52.6602 61.6325 53.3994 60.3341 54.5389 60.3664C54.8549 60.3754 55.2221 60.4728 55.3548 60.5829C55.5561 60.75 55.596 60.7152 55.596 60.3721C55.596 59.7004 54.4095 59.5336 53.5139 60.0797ZM61.0826 61.3402C59.7872 64.08 59.8067 64.0229 60.1659 64.0229C60.3561 64.0229 60.555 63.8323 60.68 63.5309C60.873 63.0648 60.9335 63.0389 61.828 63.0389C62.7225 63.0389 62.783 63.0648 62.976 63.5309C63.1002 63.8307 63.3002 64.0229 63.4878 64.0229C63.6574 64.0229 63.796 63.9921 63.796 63.9544C63.796 63.8515 62.0048 59.8811 61.9202 59.7965C61.88 59.7563 61.5031 60.451 61.0826 61.3402ZM72.2346 60.1615C72.0132 60.3829 71.832 60.6616 71.832 60.781C71.832 61.1713 72.3558 61.7569 72.9136 61.99C73.6783 62.3094 73.8794 62.7404 73.4889 63.2228C73.2188 63.5563 73.1317 63.578 72.7532 63.4055C72.5172 63.298 72.324 63.0976 72.324 62.9604C72.324 62.6802 72.1836 62.6491 71.8561 62.8565C71.6839 62.9656 71.6755 63.0745 71.8189 63.3423C72.244 64.1369 73.4153 64.2732 73.952 63.5908C74.6031 62.7632 74.2745 61.9321 73.0984 61.4315C72.5044 61.1788 72.3465 60.76 72.7374 60.4741C72.9925 60.2877 73.0959 60.2891 73.3926 60.4835C73.625 60.6358 73.8239 60.6624 73.9774 60.5614C74.1682 60.4357 74.1405 60.35 73.8228 60.0836C73.3013 59.6462 72.7212 59.6748 72.2346 60.1615ZM80.934 60.0151C78.8786 61.054 79.6517 64.0203 81.9783 64.0223C82.592 64.0228 82.7857 63.9317 83.3314 63.3863C83.9006 62.817 83.968 62.6629 83.968 61.9324C83.968 60.284 82.3833 59.2825 80.934 60.0151ZM41.984 61.9729C41.984 63.9135 42.0015 64.0229 42.312 64.0229C42.6036 64.0229 42.64 63.9135 42.64 63.0389V62.0549H43.296C43.8426 62.0549 43.952 62.0003 43.952 61.7269C43.952 61.4535 43.8426 61.3989 43.296 61.3989C42.6764 61.3989 42.64 61.3715 42.64 60.9069C42.64 60.4331 42.6674 60.4149 43.378 60.4149C43.9246 60.4149 44.116 60.3511 44.116 60.1689C44.116 59.9756 43.8882 59.9229 43.05 59.9229H41.984V61.9729ZM45.92 61.9729C45.92 63.9135 45.9375 64.0229 46.248 64.0229C46.5396 64.0229 46.576 63.9135 46.576 63.0389V62.0549H47.232C47.7786 62.0549 47.888 62.0003 47.888 61.7269C47.888 61.4535 47.7786 61.3989 47.232 61.3989C46.6124 61.3989 46.576 61.3715 46.576 60.9069C46.576 60.4331 46.6034 60.4149 47.314 60.4149C47.8606 60.4149 48.052 60.3511 48.052 60.1689C48.052 59.9756 47.8242 59.9229 46.986 59.9229H45.92V61.9729ZM49.856 61.9729C49.856 63.9135 49.8736 64.0229 50.184 64.0229C50.4945 64.0229 50.512 63.9135 50.512 61.9729C50.512 60.0323 50.4945 59.9229 50.184 59.9229C49.8736 59.9229 49.856 60.0323 49.856 61.9729ZM57.564 61.9729C57.564 63.9135 57.5816 64.0229 57.892 64.0229C58.2025 64.0229 58.22 63.9135 58.22 61.9729C58.22 60.0323 58.2025 59.9229 57.892 59.9229C57.5816 59.9229 57.564 60.0323 57.564 61.9729ZM65.6 61.9814V64.0401L66.461 63.9904C67.095 63.954 67.322 63.876 67.322 63.6949C67.322 63.5291 67.1218 63.4324 66.707 63.3981L66.092 63.3471V61.6351C66.092 60.2225 66.049 59.9229 65.846 59.9229C65.6403 59.9229 65.6 60.2609 65.6 61.9814ZM75.932 60.1689C75.932 60.3219 76.0868 60.4149 76.342 60.4149H76.752V62.2189C76.752 63.9135 76.7718 64.0229 77.08 64.0229C77.3882 64.0229 77.408 63.9135 77.408 62.2189V60.4149H77.9C78.228 60.4149 78.392 60.3329 78.392 60.1689C78.392 59.9721 78.146 59.9229 77.162 59.9229C76.178 59.9229 75.932 59.9721 75.932 60.1689ZM85.936 61.9729C85.936 63.8961 85.9558 64.0229 86.2558 64.0229C86.5295 64.0229 86.5827 63.8888 86.6248 63.092L86.674 62.1612L87.2906 63.092C87.7069 63.7203 88.0165 64.0229 88.2433 64.0229C88.6135 64.0229 88.6007 63.9865 87.873 62.9748L87.4141 62.3367L87.823 61.9577C88.3283 61.4894 88.3652 60.7121 87.904 60.2509C87.6634 60.0103 87.3574 59.9229 86.756 59.9229H85.936V61.9729ZM90.364 61.9729V64.0229H91.512C92.5506 64.0229 92.66 63.9918 92.66 63.6949C92.66 63.4107 92.5506 63.3669 91.84 63.3669H91.02V62.7109V62.0549H91.852C92.5559 62.0549 92.6756 62.0106 92.6295 61.7679C92.5885 61.5516 92.3833 61.4686 91.7975 61.4309C91.0574 61.3833 91.02 61.3576 91.02 60.8979C91.02 60.4277 91.0416 60.4149 91.84 60.4149C92.4596 60.4149 92.66 60.3547 92.66 60.1689C92.66 59.9738 92.4232 59.9229 91.512 59.9229H90.364V61.9729ZM37.3746 60.4823C35.978 60.9373 36.1525 63.1811 37.6059 63.4537C38.3306 63.5896 38.9675 63.3112 39.2701 62.7262C39.6313 62.0279 39.5853 61.497 39.1158 60.9389C38.6359 60.3685 38.1307 60.2362 37.3746 60.4823ZM81.3924 60.443C79.9113 60.8416 80.0541 63.1716 81.5772 63.4573C82.6909 63.6662 83.6648 62.6179 83.3865 61.5095C83.1839 60.7026 82.2614 60.2091 81.3924 60.443ZM86.592 61.0709C86.592 61.6589 86.634 61.7269 86.9963 61.7269C87.3357 61.7269 87.74 61.3379 87.74 61.0114C87.74 60.8072 87.1929 60.4149 86.9084 60.4149C86.6486 60.4149 86.592 60.5323 86.592 61.0709ZM61.6025 61.5232C61.221 62.2609 61.2647 62.3829 61.91 62.3829C62.5662 62.3829 62.5793 62.3418 62.1696 61.5724L61.869 61.0079L61.6025 61.5232Z" fill="white"/>
</svg>
