<svg width="100" height="235" viewBox="0 0 100 235" fill="none" xmlns="http://www.w3.org/2000/svg">
<path fill-rule="evenodd" clip-rule="evenodd" d="M0 2.62483C0 4.07068 1.29901 9.97953 2.88731 15.7589C6.4232 28.6282 17.8471 42.7341 29.4848 48.5972C34.047 50.8954 39.6429 54.7928 41.9222 57.2564C47.3485 63.1274 54.4001 63.0437 58.0244 57.0652C59.5814 54.4961 63.9538 51.3853 67.7403 50.1506C82.6153 45.3052 96.582 26.9493 98.8208 9.29843L100 0H50C9.84301 0 0 0.517798 0 2.62483ZM39.6153 70.0579C37.5884 71.2807 35.7182 72.4537 35.4603 72.6628C35.2023 72.8719 37.8059 86.0797 41.2459 102.012L47.5033 130.983L42.2465 154.612C39.3555 167.609 36.9601 178.915 36.9214 179.735C36.8827 180.556 42.6555 181.229 49.7494 181.229C58.0797 181.229 62.6474 180.434 62.6474 178.986C62.6474 177.754 60.4289 166.567 57.7204 154.128L52.7915 131.512L59.0046 102.362C65.0446 74.025 65.122 73.1368 61.739 70.4622C57.5803 67.1761 44.7763 66.9411 39.6153 70.0579ZM25.2358 190.689C24.8084 191.509 23.0119 198.679 21.243 206.621C18.3649 219.552 17.5689 221.059 13.6203 221.059C9.81169 221.059 9.21285 222.005 9.21285 228.03V235H50.6707H92.1285V228.169C92.1285 222.657 91.3473 221.213 88.0878 220.701C84.8246 220.185 83.1552 217.094 79.4222 204.629L74.7973 189.195H50.4054C36.9896 189.195 25.6633 189.868 25.2358 190.689Z" fill="url(#paint0_linear_231_630)"/>
<path fill-rule="evenodd" clip-rule="evenodd" d="M0 2.62483C0 4.07068 1.29901 9.97953 2.88731 15.7589C6.4232 28.6282 17.8471 42.7341 29.4848 48.5972C34.047 50.8954 39.6429 54.7928 41.9222 57.2564C47.3485 63.1274 54.4001 63.0437 58.0244 57.0652C59.5814 54.4961 63.9538 51.3853 67.7403 50.1506C82.6153 45.3052 96.582 26.9493 98.8208 9.29843L100 0H50C9.84301 0 0 0.517798 0 2.62483ZM39.6153 70.0579C37.5884 71.2807 35.7182 72.4537 35.4603 72.6628C35.2023 72.8719 37.8059 86.0797 41.2459 102.012L47.5033 130.983L42.2465 154.612C39.3555 167.609 36.9601 178.915 36.9214 179.735C36.8827 180.556 42.6555 181.229 49.7494 181.229C58.0797 181.229 62.6474 180.434 62.6474 178.986C62.6474 177.754 60.4289 166.567 57.7204 154.128L52.7915 131.512L59.0046 102.362C65.0446 74.025 65.122 73.1368 61.739 70.4622C57.5803 67.1761 44.7763 66.9411 39.6153 70.0579ZM25.2358 190.689C24.8084 191.509 23.0119 198.679 21.243 206.621C18.3649 219.552 17.5689 221.059 13.6203 221.059C9.81169 221.059 9.21285 222.005 9.21285 228.03V235H50.6707H92.1285V228.169C92.1285 222.657 91.3473 221.213 88.0878 220.701C84.8246 220.185 83.1552 217.094 79.4222 204.629L74.7973 189.195H50.4054C36.9896 189.195 25.6633 189.868 25.2358 190.689Z" fill="black" fill-opacity="0.05"/>
<defs>
<linearGradient id="paint0_linear_231_630" x1="-133" y1="-29.5" x2="0.513835" y2="-108.788" gradientUnits="userSpaceOnUse">
<stop stop-color="#002C6D"/>
<stop offset="0.132392" stop-color="#001A40"/>
<stop offset="0.40419" stop-color=" #003A8A"/>
<stop offset="0.728712" stop-color="#0055CC"/>
<stop offset="0.834676" stop-color="#002C6D"/>
<stop offset="0.960427" stop-color="#0055CC"/>
<stop offset="1" stop-color="#001A40"/>
</linearGradient>
</defs>
</svg>
