<svg width="100" height="235" viewBox="0 0 100 235" fill="none" xmlns="http://www.w3.org/2000/svg">
<path fill-rule="evenodd" clip-rule="evenodd" d="M36.3462 11.8557C28.5192 18.3774 20.0615 25.3756 17.55 27.4064L12.9827 31.1015L27.9308 88.4548C36.1519 119.999 43.2365 147.169 43.6731 148.831C44.2538 151.034 40.2692 153.622 28.9654 158.379L13.4615 164.905V189.171V213.437H50.9615H88.4615V189.153V164.872L73.0769 158.55C64.6154 155.072 57.6923 151.45 57.6923 150.501C57.6923 148.941 85.2058 42.422 87.5712 34.824C88.2635 32.6011 82.8923 26.932 69.5673 15.8271L50.5769 0L36.3462 11.8557ZM33.8577 17.7502C25.8135 24.4052 19.2308 30.4331 19.2308 31.1427C19.2308 31.8542 22.2327 33.3734 25.9 34.5222C32.0673 36.451 33.2288 36.0864 41.2846 29.6882C49.2558 23.3585 50 22.0353 50 14.208C50 9.50139 49.6596 5.64947 49.2423 5.64947C48.825 5.64947 41.9019 11.0951 33.8577 17.7502ZM3.92115 53.5837C2.04615 55.8851 4.09615 62.1069 14.575 85.9359C21.7115 102.161 27.8308 115.152 28.175 114.801C29.2462 113.709 9.01346 50.7355 7.58846 50.7355C6.84807 50.7355 5.19615 52.0175 3.92115 53.5837ZM81.9288 84.4853C76.1096 103.047 71.5385 118.429 71.7711 118.668C72.0058 118.906 78.4423 104.899 86.0788 87.5452C96.6865 63.4321 99.4558 55.3695 97.8211 53.3622C96.6461 51.9175 94.9692 50.7355 94.0962 50.7355C93.2231 50.7355 87.7481 65.9236 81.9288 84.4853ZM0 229.119V235H50H100V229.119V223.238H50H0V229.119Z" fill="url(#paint0_linear_231_623)"/>
<path fill-rule="evenodd" clip-rule="evenodd" d="M36.3462 11.8557C28.5192 18.3774 20.0615 25.3756 17.55 27.4064L12.9827 31.1015L27.9308 88.4548C36.1519 119.999 43.2365 147.169 43.6731 148.831C44.2538 151.034 40.2692 153.622 28.9654 158.379L13.4615 164.905V189.171V213.437H50.9615H88.4615V189.153V164.872L73.0769 158.55C64.6154 155.072 57.6923 151.45 57.6923 150.501C57.6923 148.941 85.2058 42.422 87.5712 34.824C88.2635 32.6011 82.8923 26.932 69.5673 15.8271L50.5769 0L36.3462 11.8557ZM33.8577 17.7502C25.8135 24.4052 19.2308 30.4331 19.2308 31.1427C19.2308 31.8542 22.2327 33.3734 25.9 34.5222C32.0673 36.451 33.2288 36.0864 41.2846 29.6882C49.2558 23.3585 50 22.0353 50 14.208C50 9.50139 49.6596 5.64947 49.2423 5.64947C48.825 5.64947 41.9019 11.0951 33.8577 17.7502ZM3.92115 53.5837C2.04615 55.8851 4.09615 62.1069 14.575 85.9359C21.7115 102.161 27.8308 115.152 28.175 114.801C29.2462 113.709 9.01346 50.7355 7.58846 50.7355C6.84807 50.7355 5.19615 52.0175 3.92115 53.5837ZM81.9288 84.4853C76.1096 103.047 71.5385 118.429 71.7711 118.668C72.0058 118.906 78.4423 104.899 86.0788 87.5452C96.6865 63.4321 99.4558 55.3695 97.8211 53.3622C96.6461 51.9175 94.9692 50.7355 94.0962 50.7355C93.2231 50.7355 87.7481 65.9236 81.9288 84.4853ZM0 229.119V235H50H100V229.119V223.238H50H0V229.119Z" fill="black" fill-opacity="0.05"/>
<defs>
<linearGradient id="paint0_linear_231_623" x1="-133" y1="-29.5" x2="0.513835" y2="-108.788" gradientUnits="userSpaceOnUse">
<stop offset="0" stop-color="#004C99"/>       
<stop offset="0.132392" stop-color="#3366CC"/> 
<stop offset="0.40419" stop-color="#4DA1FF"/> 
<stop offset="0.728712" stop-color="#3399FF"/>
<stop offset="0.834676" stop-color="#4DA1FF"/>
<stop offset="0.960427" stop-color="#3399FF"/>
<stop offset="1" stop-color="#004C99"/>
</linearGradient>
</defs>
</svg>

