<svg width="139" height="235" viewBox="0 0 139 235" fill="none" xmlns="http://www.w3.org/2000/svg">
<path fill-rule="evenodd" clip-rule="evenodd" d="M31.434 7.64563L31.0541 15.2913L24.1358 15.5257C20.3308 15.6553 13.3434 15.8199 8.6088 15.8898L0 16.0194L0.820126 23.665C5.81509 70.2859 17.7195 96.2388 47.039 124.426L59.2503 136.165L59.3031 144.539C59.3497 151.962 59.0704 152.913 56.8403 152.913C54.5182 152.913 54.3233 153.893 54.3006 165.655C54.278 177.85 54.0465 178.899 48.8956 190.049C43.7924 201.096 43.2742 201.722 38.8755 202.149C32.6755 202.752 30.4252 206.706 30.4252 216.995C30.4252 224.652 30.2214 225.179 26.6516 226.739C24.1195 227.846 22.878 229.388 22.878 231.427C22.878 234.453 23.0704 234.466 69.4189 234.466C115.767 234.466 115.96 234.453 115.96 231.427C115.96 229.388 114.718 227.846 112.186 226.739C108.616 225.179 108.413 224.652 108.413 216.995C108.413 206.706 106.162 202.752 99.9623 202.149C95.5635 201.722 95.0453 201.096 89.9421 190.049C84.7912 178.899 84.5597 177.85 84.5371 165.655C84.5145 153.893 84.3195 152.913 81.9975 152.913C79.7711 152.913 79.4818 151.941 79.4818 144.473V136.035L86.0252 130.274C96.5736 120.989 113.696 100.516 119.464 90.2913C128.474 74.3184 135.409 49.5874 137.941 24.3932L138.782 16.0194L133.346 15.782C130.356 15.6524 123.381 15.4879 117.847 15.418L107.784 15.2913L107.404 7.64563L107.023 0H69.4189H31.8151L31.434 7.64563ZM9.04151 30.284C9.04151 38.1451 14.8189 63.1646 19.122 73.9369C24.844 88.2612 37.2138 105.21 46.2654 111.127C47.0214 111.622 45.995 106.644 43.9824 100.066C38.122 80.9068 35.8969 68.0942 32.2314 32.4029L31.4465 24.7573H20.244H9.04151V30.284ZM106.543 33.1311C103.799 62.1131 99.6151 85.3748 94.0906 102.37C92.3434 107.741 91.2239 112.136 91.6013 112.136C91.9786 112.136 95.4025 109.056 99.2088 105.29C106.416 98.1612 114.957 85.3136 119.644 74.5485C123.103 66.6058 129.777 37.4359 129.789 30.2184L129.796 24.7573H118.566H107.336L106.543 33.1311Z" fill="url(#paint0_linear_237_28)"/>
<path fill-rule="evenodd" clip-rule="evenodd" d="M31.434 7.64563L31.0541 15.2913L24.1358 15.5257C20.3308 15.6553 13.3434 15.8199 8.6088 15.8898L0 16.0194L0.820126 23.665C5.81509 70.2859 17.7195 96.2388 47.039 124.426L59.2503 136.165L59.3031 144.539C59.3497 151.962 59.0704 152.913 56.8403 152.913C54.5182 152.913 54.3233 153.893 54.3006 165.655C54.278 177.85 54.0465 178.899 48.8956 190.049C43.7924 201.096 43.2742 201.722 38.8755 202.149C32.6755 202.752 30.4252 206.706 30.4252 216.995C30.4252 224.652 30.2214 225.179 26.6516 226.739C24.1195 227.846 22.878 229.388 22.878 231.427C22.878 234.453 23.0704 234.466 69.4189 234.466C115.767 234.466 115.96 234.453 115.96 231.427C115.96 229.388 114.718 227.846 112.186 226.739C108.616 225.179 108.413 224.652 108.413 216.995C108.413 206.706 106.162 202.752 99.9623 202.149C95.5635 201.722 95.0453 201.096 89.9421 190.049C84.7912 178.899 84.5597 177.85 84.5371 165.655C84.5145 153.893 84.3195 152.913 81.9975 152.913C79.7711 152.913 79.4818 151.941 79.4818 144.473V136.035L86.0252 130.274C96.5736 120.989 113.696 100.516 119.464 90.2913C128.474 74.3184 135.409 49.5874 137.941 24.3932L138.782 16.0194L133.346 15.782C130.356 15.6524 123.381 15.4879 117.847 15.418L107.784 15.2913L107.404 7.64563L107.023 0H69.4189H31.8151L31.434 7.64563ZM9.04151 30.284C9.04151 38.1451 14.8189 63.1646 19.122 73.9369C24.844 88.2612 37.2138 105.21 46.2654 111.127C47.0214 111.622 45.995 106.644 43.9824 100.066C38.122 80.9068 35.8969 68.0942 32.2314 32.4029L31.4465 24.7573H20.244H9.04151V30.284ZM106.543 33.1311C103.799 62.1131 99.6151 85.3748 94.0906 102.37C92.3434 107.741 91.2239 112.136 91.6013 112.136C91.9786 112.136 95.4025 109.056 99.2088 105.29C106.416 98.1612 114.957 85.3136 119.644 74.5485C123.103 66.6058 129.777 37.4359 129.789 30.2184L129.796 24.7573H118.566H107.336L106.543 33.1311Z" fill="black" fill-opacity="0.05"/>
<defs>
<linearGradient id="paint0_linear_237_28" x1="-184.581" y1="-29.433" x2="-35.5986" y2="-152.499" gradientUnits="userSpaceOnUse">
<stop offset="0" stop-color="#004C99"/>       
<stop offset="0.132392" stop-color="#3366CC"/> 
<stop offset="0.40419" stop-color="#4DA1FF"/> 
<stop offset="0.728712" stop-color="#3399FF"/>
<stop offset="0.834676" stop-color="#4DA1FF"/>
<stop offset="0.960427" stop-color="#3399FF"/>
<stop offset="1" stop-color="#004C99"/>
</linearGradient>
</defs>
</svg>
