<svg width="70" height="48" viewBox="0 0 70 48" fill="none" xmlns="http://www.w3.org/2000/svg">
<path fill-rule="evenodd" clip-rule="evenodd" d="M47.0281 5.37592C46.0696 8.33256 45.285 10.8709 45.285 11.0168C45.285 11.1626 46.7128 11.2817 48.4575 11.2817C52.4971 11.2817 53.4208 11.7275 53.0762 13.5113C52.9357 14.2383 50.4647 22.0603 47.5853 30.8934C44.706 39.7261 42.3499 47.1064 42.3499 47.2936C42.3499 47.4808 45.7169 47.6337 49.8324 47.6337H57.3153L58.4236 43.9776C59.0332 41.967 61.8137 33.3645 64.602 24.8615C69.9 8.7082 70.6447 5.42648 69.5884 2.88518C68.5653 0.423689 66.8235 0.0196382 57.1963 0.00919221L48.7707 0L47.0281 5.37592ZM18.0302 14.2625C11.5431 15.3213 6.66571 20.4365 5.99817 26.8821C5.65769 30.1676 6.5873 31.8486 9.54089 33.2885C11.8114 34.3953 12.0768 34.4258 20.5045 34.5416C25.2552 34.6067 29.3778 34.6648 29.6659 34.6703C30.6957 34.6907 30.2043 36.6834 28.8998 37.7773L27.61 38.8591H15.152H2.69404L1.34723 42.9543C0.606317 45.2069 0 47.2848 0 47.5723C0 47.9843 3.61903 48.0654 17.0867 47.9555C36.1257 47.8 36.3823 47.7649 39.7733 44.8726C42.1759 42.8236 44.4712 38.0819 44.7525 34.5867C45.0301 31.1416 44.246 29.497 41.7981 28.3893C40.242 27.6856 38.9686 27.5946 30.5389 27.5866C25.311 27.5816 20.7355 27.4634 20.3707 27.3238C19.4097 26.9565 19.5564 25.7101 20.7187 24.3626L21.7301 23.1901L34.6233 22.9812L47.517 22.7723L48.9166 18.6097C49.6869 16.3204 50.3167 14.2993 50.3167 14.118C50.3167 13.6646 20.8881 13.7962 18.0302 14.2625Z" fill="black"/>
</svg>
