<svg width="243" height="163" viewBox="0 0 243 163" fill="none" xmlns="http://www.w3.org/2000/svg">
<g clip-path="url(#clip0_833_128)">
<path fill-rule="evenodd" clip-rule="evenodd" d="M52.2573 37.6992L47.4655 46.3722L48.5862 55.2352C49.3911 61.5985 50.1523 64.7184 51.2837 66.2986L52.859 68.4983L51.3083 82.5345C50.4551 90.254 49.5797 96.8658 49.3635 97.2282C49.1466 97.5898 43.7017 97.8858 37.2641 97.8858H25.5579L19.9942 106.261L14.4298 114.636L21.013 131.499L27.5962 148.363V157.149V165.934H13.7981C5.11066 165.934 0 166.227 0 166.726C0 167.249 40.7558 167.517 120.733 167.517H241.467L241.463 157.428C241.46 149.698 241.012 145.166 239.547 138.039C237.116 126.219 237.116 125.58 239.55 125.58C241.685 125.58 242.246 124.012 240.125 123.972C238.848 123.948 238.848 123.897 240.125 122.896C242.46 121.067 241.656 119.794 239.272 121.546C236.686 123.447 236.101 123.072 236.101 119.513C236.101 117.026 236.254 116.876 238.784 116.876C240.26 116.876 241.467 116.52 241.467 116.085C241.467 115.65 240.28 115.294 238.829 115.294C235.658 115.294 235.567 115.165 235.223 110.15L234.951 106.194L238.209 106.445L241.467 106.696V102.291V97.8858L238.592 97.8739C237.012 97.8668 235.275 97.5716 234.734 97.2179C234.106 96.8065 233.173 91.509 232.15 82.5472L230.549 68.5204L232.145 66.7662C233.4 65.387 233.982 63.0014 234.864 55.6102L235.987 46.2092L231.355 38.0125C228.808 33.5047 226.464 29.6505 226.146 29.4487C225.829 29.2462 223.779 31.2053 221.591 33.8022L217.612 38.5245L221.935 55.2154L226.257 71.907L225.621 84.303L224.986 96.6989L141.709 96.8999L58.4327 97.1016L57.9007 85.4266L57.3687 73.7523L61.607 56.0153L65.8461 38.2792L61.952 33.86C59.8102 31.43 57.8309 29.3482 57.5542 29.2335C57.2767 29.1196 54.8935 32.9287 52.2573 37.6992ZM54.1836 37.4049C52.2573 40.8358 50.7893 43.7547 50.9219 43.8924C51.4125 44.398 62.5966 38.909 62.6311 38.1455C62.6511 37.7103 61.5465 35.9616 60.1766 34.2604L57.6868 31.1658L54.1836 37.4049ZM224.138 33.2033C223.317 34.1805 222.015 35.7614 221.245 36.7157L219.844 38.4509L224.88 40.8081C233.623 44.9005 233.515 44.9654 229.535 38.0078C227.587 34.6022 225.912 31.7276 225.812 31.6207C225.712 31.5139 224.959 32.226 224.138 33.2033ZM56.3423 43.4018C53.391 44.743 50.718 46.085 50.4022 46.3833C50.0871 46.6816 51.1243 48.2317 52.708 49.8277L55.5864 52.73L59.2 46.8225C61.1869 43.5735 62.5644 40.926 62.2609 40.9386C61.9566 40.9521 59.2935 42.0599 56.3423 43.4018ZM224.361 46.8794L227.927 52.844L230.863 49.8854C232.478 48.2578 233.541 46.703 233.226 46.4308C232.584 45.8769 221.729 40.9149 221.159 40.9149C220.959 40.9149 222.4 43.5989 224.361 46.8794ZM221.015 45.9719C221.24 46.5764 222.356 50.7606 223.495 55.2692C226.269 66.2503 226.851 67.0677 226.879 60.0247C226.9 54.6971 226.668 53.818 224.11 49.5404C221.461 45.1094 220.12 43.5633 221.015 45.9719ZM231.243 51.6436C229.143 54.2532 229.088 54.546 229.609 60.2897C229.906 63.56 230.44 66.2353 230.796 66.2353C231.151 66.2353 231.774 64.9004 232.178 63.268C232.955 60.1315 234.145 48.7872 233.687 48.8845C233.539 48.9161 232.44 50.1576 231.243 51.6436ZM50.2841 56.7014C50.8 60.596 51.4462 64.1566 51.7191 64.614C52.8445 66.4932 53.4661 65.1433 53.9498 59.7699C54.4389 54.341 54.3714 53.9984 52.3837 51.8573C51.2408 50.6261 50.0902 49.6188 49.8257 49.6188C49.5613 49.6188 49.7675 52.806 50.2841 56.7014ZM54.4259 66.6309C54.4259 67.7189 54.7233 68.6091 55.0859 68.6091C55.4492 68.6091 55.5818 67.7189 55.3802 66.6309C55.1786 65.5429 54.8812 64.6528 54.7195 64.6528C54.5585 64.6528 54.4259 65.5429 54.4259 66.6309ZM54.1576 71.7741C53.9529 72.4269 53.391 76.8778 52.9081 81.6649C52.4251 86.452 51.8318 91.8817 51.5904 93.7316L51.1511 97.0945H54.0112H56.872L56.3246 85.0278C55.8026 73.5204 55.0506 68.9208 54.1576 71.7741ZM228.087 71.8588C227.875 72.4649 227.436 78.3907 227.111 85.0278L226.519 97.0945H229.403H232.287L231.884 94.1273C231.663 92.4957 230.98 86.7503 230.367 81.361C229.256 71.5969 228.817 69.7667 228.087 71.8588ZM21.7412 106.392C19.2177 110.2 16.895 113.761 16.58 114.304C16.1292 115.083 19.348 115.294 31.6843 115.294C49.7675 115.294 47.8058 116.408 48.741 105.601L49.2715 99.4683H37.8007H26.3299L21.7412 106.392ZM51.1158 100.062C50.9319 100.388 50.5409 103.148 50.2458 106.194C49.9514 109.24 49.5222 112.553 49.2914 113.556C48.8875 115.317 49.0216 115.37 53.2998 115.138L57.7259 114.898L57.558 107.814C57.4653 103.917 57.22 100.445 57.0122 100.099C56.5339 99.299 51.5628 99.2681 51.1158 100.062ZM58.7669 99.9921C58.6987 100.063 58.8144 103.363 59.0252 107.326L59.4085 114.531L141.535 114.714L223.661 114.898L224.094 110.572C224.331 108.194 224.425 106.143 224.302 106.016C224.091 105.798 181.705 104.206 102.719 101.45C83.536 100.781 65.8277 100.15 63.3663 100.048C60.9056 99.947 58.8359 99.9217 58.7669 99.9921ZM225.861 108.766C224.836 115.172 224.905 115.294 229.585 115.294C233.718 115.294 233.801 115.248 233.801 113.019C233.801 111.768 233.586 109.631 233.322 108.271C232.876 105.968 232.62 105.798 229.59 105.798C226.425 105.798 226.323 105.88 225.861 108.766ZM60.5584 116.898C60.5584 117.13 63.1838 118.661 66.3934 120.301L72.2285 123.281L77.5086 119.987C80.4123 118.176 82.7886 116.535 82.7886 116.34C82.7886 116.146 77.7868 116.097 71.6735 116.231C65.5602 116.366 60.5584 116.666 60.5584 116.898ZM90.4543 116.354C90.4543 116.503 93.8708 118.129 98.0463 119.97L105.638 123.316L108.587 121.754C110.208 120.896 113.087 119.273 114.984 118.148L118.434 116.104L104.444 116.094C96.75 116.089 90.4543 116.206 90.4543 116.354ZM115.368 119.72L109.235 123.152L123.416 123.166L137.598 123.18L129.655 119.633C125.287 117.682 121.665 116.131 121.607 116.186C121.548 116.241 118.74 117.832 115.368 119.72ZM126.546 116.376C126.723 116.536 130.122 118.148 134.103 119.959L141.34 123.252L148.859 119.937C152.995 118.115 156.379 116.503 156.379 116.354C156.379 116.206 149.594 116.085 141.303 116.085C133.011 116.085 126.371 116.215 126.546 116.376ZM153.334 119.523L146.073 122.811L153.181 123.038C157.091 123.164 163.196 123.164 166.748 123.038L173.207 122.811L167.125 119.448C163.779 117.598 160.941 116.119 160.818 116.16C160.695 116.202 157.328 117.715 153.334 119.523ZM170.831 119.752L177.234 123.389L184.82 120.045C188.993 118.206 192.407 116.563 192.407 116.393C192.407 116.223 186.111 116.091 178.417 116.099L164.427 116.114L170.831 119.752ZM200.852 116.62C200.86 116.979 203.127 118.661 205.889 120.359L210.912 123.447L216.608 120.381C219.74 118.696 222.303 117.121 222.303 116.883C222.303 116.645 217.473 116.342 211.571 116.21C205.668 116.078 200.845 116.263 200.852 116.62ZM17.6654 117.865C17.6846 118.41 18.1315 119.897 18.6581 121.173L19.6163 123.49L21.3066 120.533C22.2364 118.907 22.9968 117.419 22.9968 117.227C22.9968 117.034 21.7895 116.876 20.3139 116.876C18.6604 116.876 17.6439 117.256 17.6654 117.865ZM26.0662 117.47C26.0723 118.785 29.1991 123.255 29.8307 122.852C30.2033 122.614 31.2213 121.173 32.0929 119.648L33.6773 116.876H29.8698C27.7764 116.876 26.0646 117.144 26.0662 117.47ZM38.7497 117.526C41.369 119.865 46.111 123.349 46.344 123.104C46.4981 122.943 46.8653 121.476 47.1604 119.843L47.6978 116.876H42.8592C40.1985 116.876 38.3495 117.169 38.7497 117.526ZM48.8338 119.052C48.6107 120.248 48.5502 121.355 48.6981 121.51C48.8468 121.666 50.1101 120.688 51.5053 119.338L54.0426 116.883L51.6409 116.88C49.628 116.877 49.1726 117.229 48.8338 119.052ZM80.331 119.909C77.9248 121.505 75.9417 122.994 75.9233 123.219C75.8926 123.59 96.9693 123.364 99.6407 122.964C101.002 122.76 87.4394 116.848 85.8258 116.942C85.2094 116.977 82.7365 118.312 80.331 119.909ZM188.684 119.922L182.277 122.811L194.433 123.206C206.082 123.585 207.62 123.551 206.908 122.926C204.828 121.104 197.432 116.894 196.417 116.955C195.687 116.999 192.207 118.334 188.684 119.922ZM225.369 120.437V123.997L229.777 123.962L234.185 123.926L230.372 120.401C228.276 118.463 226.293 116.876 225.965 116.876C225.637 116.876 225.369 118.478 225.369 120.437ZM229.202 117.14C229.202 117.284 230.507 118.485 232.103 119.809L235.004 122.215L234.702 119.546C234.425 117.1 234.182 116.876 231.801 116.876C230.372 116.876 229.202 116.995 229.202 117.14ZM33.3592 120.489C32.2124 122.041 31.439 123.481 31.6414 123.689C31.843 123.897 34.7176 123.963 38.0291 123.834L44.0505 123.602L40.128 120.635C37.9709 119.003 36.0345 117.667 35.8253 117.667C35.6152 117.667 34.506 118.937 33.3592 120.489ZM22.7554 121.255C22.0448 122.793 21.4637 124.137 21.4637 124.243C21.4637 124.349 22.8213 124.301 24.4817 124.137L27.4989 123.841L26.2555 121.15C25.5717 119.669 24.7952 118.459 24.53 118.459C24.2647 118.459 23.466 119.717 22.7554 121.255ZM74.3565 125.39C74.3565 125.977 89.8579 147.053 90.0725 146.759C90.6375 145.983 103.313 126.565 103.786 125.75C104.259 124.934 101.407 124.751 89.3665 124.822C81.1106 124.871 74.3565 125.127 74.3565 125.39ZM108.085 125.449C108.085 125.811 111.67 130.79 116.051 136.511L124.016 146.915L131.765 136.261C136.027 130.402 139.514 125.423 139.514 125.199C139.514 124.973 132.443 124.789 123.8 124.789C115.157 124.789 108.085 125.085 108.085 125.449ZM179.376 125.342C179.377 125.691 182.442 130.722 186.187 136.525L192.996 147.074L200.451 136.957C204.551 131.394 208.062 126.422 208.253 125.908C208.511 125.214 204.855 124.941 193.988 124.841C185.951 124.768 179.376 124.993 179.376 125.342ZM212.331 125.297C212.319 126.451 221.059 146.153 221.582 146.153C222.115 146.153 223.057 135.462 223.065 129.338L223.069 125.58H218.916C216.632 125.58 214.217 125.364 213.55 125.1C212.883 124.835 212.334 124.925 212.331 125.297ZM21.0996 127.162C23.9405 135.203 27.18 142.857 27.623 142.575C27.9289 142.38 28.2371 138.457 28.3083 133.858L28.4379 125.495L24.5591 125.736C21.4936 125.925 20.7684 126.224 21.0996 127.162ZM48.83 126.602C52.1384 132.12 58.7232 142.19 59.0252 142.193C59.325 142.197 58.6734 126.59 58.3399 125.778C58.2955 125.669 55.9996 125.58 53.2377 125.58C49.329 125.58 48.3532 125.806 48.83 126.602ZM60.6726 135.523C60.9462 140.991 61.3678 145.67 61.6093 145.919C61.8508 146.169 62.3636 145.521 62.7484 144.482C63.1332 143.443 65.0404 138.94 66.986 134.477C68.9315 130.013 70.5237 126.185 70.5237 125.971C70.5237 125.756 68.1956 125.58 65.3494 125.58H60.1751L60.6726 135.523ZM98.2709 137.216L90.685 148.925L90.8743 156.836C90.9793 161.188 91.0997 165.015 91.1426 165.341C91.1856 165.667 98.4648 165.934 107.319 165.934H123.416V157.4V148.865L114.637 137.186L105.857 125.507L98.2709 137.216ZM133.17 136.943L124.95 148.307V157.12V165.934H141.431H157.912V157.154C157.912 149.394 157.716 148.086 156.226 145.879C153.915 142.458 141.691 125.58 141.525 125.58C141.451 125.58 137.691 130.693 133.17 136.943ZM67.544 137.11L62.858 147.833V156.884V165.934H75.8896H88.9211V157.075V148.215L81.1574 137.673C76.8869 131.874 73.1315 126.963 72.8111 126.759C72.4914 126.555 70.1204 131.213 67.544 137.11ZM167.935 137.802L159.39 149.233L159.609 157.385L159.828 165.539L176.117 165.752L192.407 165.966V157.44V148.913L185.117 137.643C181.107 131.443 177.523 126.371 177.153 126.371C176.783 126.371 172.634 131.515 167.935 137.802ZM202.066 137.343L193.94 148.47V157.203V165.934H207.355H220.77V157.59V149.245L216.039 138.402C213.438 132.438 211.057 127.256 210.751 126.886C210.444 126.517 206.536 131.222 202.066 137.343ZM229.43 136.915L223.961 145.757L223.411 155.846L222.862 165.934H231.021H239.18L238.781 161.78C238.561 159.496 237.868 152.507 237.241 146.248C236.614 139.991 236.101 133.514 236.101 131.855C236.101 130.196 235.83 128.666 235.501 128.455C235.17 128.245 232.438 132.052 229.43 136.915ZM29.6322 136.46C29.3601 140.703 29.1355 149.071 29.1332 155.054L29.1293 165.934H35.2618H41.3943V157.116V148.299L35.9349 138.522C32.9315 133.144 30.3965 128.745 30.3014 128.745C30.2056 128.745 29.9043 132.216 29.6322 136.46ZM47.1704 134.482C46.8883 137.637 46.1639 145.282 45.559 151.472C44.955 157.66 44.4606 163.447 44.4606 164.33C44.4606 165.84 44.9335 165.934 52.5309 165.934H60.6013L60.1 156.241L59.5979 146.548L54.1376 137.674C51.1343 132.794 48.4528 128.788 48.1792 128.773C47.9063 128.758 47.4517 131.326 47.1704 134.482ZM43.4939 146.054C43.1827 147.522 42.9619 149.837 43.0041 151.197C43.0777 153.548 43.1168 153.514 43.8013 150.505C44.1969 148.764 44.4176 146.449 44.2904 145.361C44.0865 143.606 43.9968 143.684 43.4939 146.054Z" fill="white"/>
</g>
<defs>
<clipPath id="clip0_833_128">
<rect width="243" height="163" fill="white"/>
</clipPath>
</defs>
</svg>
