<svg width="100" height="235" viewBox="0 0 100 235" fill="none" xmlns="http://www.w3.org/2000/svg">
<path fill-rule="evenodd" clip-rule="evenodd" d="M42.7557 0.516039C17.1275 4.50559 0.771273 31.9907 9.07621 57.1126C10.4815 61.3657 11.4803 65.1728 11.2944 65.571C11.107 65.9692 8.57463 66.9655 5.66458 67.7866C2.75598 68.6062 0.209154 70.2354 0.00736804 71.4069C-0.194418 72.577 3.77356 85.2653 8.82542 99.6016L18.0081 125.668L14.4351 128.987C10.2249 132.895 9.62103 130.852 24.3226 162.406L34.017 183.216L31.3346 189.196C29.8602 192.485 28.305 196.317 27.8798 197.711C27.4546 199.106 25.7538 200.245 24.0992 200.245C21.8709 200.245 20.1961 202.215 17.6363 207.848C13.5919 216.747 9.44087 231.926 10.5565 233.739C10.9831 234.432 28.8051 235 50.1627 235H88.9936V230.895C88.9936 226.485 84.1968 210.683 80.9308 204.33C79.8339 202.197 77.5941 200.242 75.9524 199.986C73.8366 199.656 71.9816 197.073 69.5746 191.103L66.1802 182.686L77.5869 158.072C83.861 144.534 88.9936 133.101 88.9936 132.666C88.9936 132.232 87.3966 130.614 85.4436 129.071L81.8936 126.266L91.2348 99.2048C96.3732 84.3211 100.309 71.4402 99.9808 70.58C99.6522 69.7198 96.735 68.2196 93.4992 67.245L87.6142 65.474L90.1063 59.3673C93.8033 50.305 93.3262 33.4881 89.1233 24.7285C80.8789 7.54373 61.7568 -2.44245 42.7557 0.516039ZM36.3029 107.931C36.8333 120.873 37.9057 136.465 38.6825 142.58C40.4222 156.253 49.1682 188.413 50.5418 186.183C51.0909 185.288 53.8713 175.542 56.7179 164.525C61.6213 145.552 61.9369 142.915 62.672 114.645L63.4489 84.7947L56.5363 85.8489C52.7355 86.4281 48.5917 86.7062 47.3291 86.4658C46.0665 86.2254 42.8509 85.6621 40.1844 85.2161L35.3358 84.4022L36.3029 107.931Z" fill="url(#paint0_linear_237_30)"/>
<path fill-rule="evenodd" clip-rule="evenodd" d="M42.7557 0.516039C17.1275 4.50559 0.771273 31.9907 9.07621 57.1126C10.4815 61.3657 11.4803 65.1728 11.2944 65.571C11.107 65.9692 8.57463 66.9655 5.66458 67.7866C2.75598 68.6062 0.209154 70.2354 0.00736804 71.4069C-0.194418 72.577 3.77356 85.2653 8.82542 99.6016L18.0081 125.668L14.4351 128.987C10.2249 132.895 9.62103 130.852 24.3226 162.406L34.017 183.216L31.3346 189.196C29.8602 192.485 28.305 196.317 27.8798 197.711C27.4546 199.106 25.7538 200.245 24.0992 200.245C21.8709 200.245 20.1961 202.215 17.6363 207.848C13.5919 216.747 9.44087 231.926 10.5565 233.739C10.9831 234.432 28.8051 235 50.1627 235H88.9936V230.895C88.9936 226.485 84.1968 210.683 80.9308 204.33C79.8339 202.197 77.5941 200.242 75.9524 199.986C73.8366 199.656 71.9816 197.073 69.5746 191.103L66.1802 182.686L77.5869 158.072C83.861 144.534 88.9936 133.101 88.9936 132.666C88.9936 132.232 87.3966 130.614 85.4436 129.071L81.8936 126.266L91.2348 99.2048C96.3732 84.3211 100.309 71.4402 99.9808 70.58C99.6522 69.7198 96.735 68.2196 93.4992 67.245L87.6142 65.474L90.1063 59.3673C93.8033 50.305 93.3262 33.4881 89.1233 24.7285C80.8789 7.54373 61.7568 -2.44245 42.7557 0.516039ZM36.3029 107.931C36.8333 120.873 37.9057 136.465 38.6825 142.58C40.4222 156.253 49.1682 188.413 50.5418 186.183C51.0909 185.288 53.8713 175.542 56.7179 164.525C61.6213 145.552 61.9369 142.915 62.672 114.645L63.4489 84.7947L56.5363 85.8489C52.7355 86.4281 48.5917 86.7062 47.3291 86.4658C46.0665 86.2254 42.8509 85.6621 40.1844 85.2161L35.3358 84.4022L36.3029 107.931Z" fill="black" fill-opacity="0.05"/>
<defs>
<linearGradient id="paint0_linear_237_30" x1="-133" y1="-29.5" x2="0.513835" y2="-108.788" gradientUnits="userSpaceOnUse">
<stop stop-color="#002C6D"/>
<stop offset="0.132392" stop-color="#001A40"/>
<stop offset="0.40419" stop-color=" #003A8A"/>
<stop offset="0.728712" stop-color="#0055CC"/>
<stop offset="0.834676" stop-color="#002C6D"/>
<stop offset="0.960427" stop-color="#0055CC"/>
<stop offset="1" stop-color="#001A40"/>
</linearGradient>
</defs>
</svg>

