<svg width="180" height="220" viewBox="0 0 180 220" fill="none" xmlns="http://www.w3.org/2000/svg">
<rect width="180" height="220" rx="15" fill="white"/>
<path fill-rule="evenodd" clip-rule="evenodd" d="M16.2247 3.89352C13.2603 4.27508 10.3753 5.74378 8.10426 8.02722C6.45044 9.69031 5.47913 11.1907 4.62299 13.4054L4.01683 14.9736L3.91859 32.9124C3.73126 67.1069 3.72783 200.946 3.91421 202.999C4.22643 206.437 5.44372 209.198 7.69761 211.58C9.6389 213.632 11.8429 214.976 14.6849 215.839C15.7725 216.17 18.8921 216.187 88.8305 216.239C134.002 216.273 162.463 216.225 163.471 216.114C169.798 215.415 174.988 210.459 176.012 204.138C176.295 202.387 176.294 17.9473 176.011 15.9144C175.247 10.4401 171.096 5.88501 165.268 4.12492C164.173 3.79443 161.075 3.77887 90.8295 3.75248C49.0585 3.73672 16.9706 3.79747 16.2247 3.89352ZM83.1826 17.06C70.9612 18.4505 59.9849 22.8775 49.6125 30.5995C47.0199 32.5297 41.0763 38.3529 38.796 41.1971C31.479 50.3232 27.2057 59.7809 24.9562 71.8272C23.6477 78.8345 23.7652 87.8534 25.2555 94.7964C25.4683 95.7883 25.8055 97.3686 26.0046 98.3082C26.5588 100.923 28.6994 107.002 30.124 110.008C31.8544 113.659 33.1568 115.991 35.0112 118.759C37.9526 123.15 39.3296 124.801 43.6084 129.07C47.9075 133.36 49.8825 134.968 54.55 137.98C65.9845 145.36 80.5555 149.187 93.9708 148.333C98.4898 148.046 100.86 147.699 105.016 146.718C120.718 143.013 133.87 134.417 143.412 121.622C150.194 112.529 154.31 102.183 155.973 90.0507C156.379 87.0827 156.432 78.5803 156.06 75.7187C154.929 66.9919 152.282 58.4156 148.651 51.7054C140.241 36.1636 125.932 24.4679 109.296 19.5377C106.041 18.5728 102.456 17.7584 99.5645 17.3269C96.0969 16.8094 86.7263 16.6566 83.1826 17.06ZM83.7855 19.6453C71.1678 20.8184 58.6106 26.1892 48.7558 34.6277C46.4831 36.5738 42.4434 40.7314 40.6472 42.9733C34.6095 50.5091 30.2603 59.4838 28.2193 68.6193C27.2984 72.7406 26.9369 75.8335 26.8229 80.5665C26.5914 90.1786 27.8246 97.4426 31.0913 105.712C34.2621 113.737 38.7232 120.593 44.7221 126.658C52.0962 134.115 58.8086 138.409 69.0734 142.236C77.7473 145.47 89.5656 146.581 99.624 145.109C115.118 142.842 129.025 135.013 139.227 122.816C143.478 117.734 146.741 112.222 149.242 105.901C151.403 100.438 152.68 95.3078 153.398 89.1965C153.715 86.5026 153.715 78.6023 153.398 75.9085C151.354 58.52 143.146 43.7015 129.599 32.9426C120.194 25.4738 108.352 20.7315 96.3505 19.6274C93.9119 19.4033 86.2722 19.4139 83.7855 19.6453ZM81.8516 24.8447C81.9678 26.3187 81.9617 26.3495 81.646 25.8887C81.1516 25.167 79.9545 23.9905 79.7148 23.9905C79.4302 23.9905 79.4313 27.0332 79.7163 27.9816C79.8342 28.374 80.131 28.9391 80.3758 29.2375L80.8209 29.7802L80.8278 28.404C80.836 26.7561 81.1735 26.5564 81.6866 27.896C81.8695 28.3736 82.1372 28.8094 82.2813 28.8645C82.7285 29.0357 84.5154 28.5226 85.1703 28.0349L85.7936 27.571L86.5981 28.1623C87.194 28.6004 87.4175 28.6832 87.46 28.482C87.4916 28.3326 87.1666 27.1355 86.7381 25.8219L85.9589 23.4337L85.3481 23.5387C84.2291 23.731 84.2614 23.6698 84.2614 25.5981V27.4074H83.4796C82.8127 27.4074 82.7167 27.3584 82.8266 27.0752C83.2764 25.9157 82.9718 24.4244 82.1332 23.6814L81.7321 23.3261L81.8516 24.8447ZM89.592 26.0081V28.5953L90.7726 28.4622C92.2948 28.2904 92.5947 28.1156 92.746 27.3113C92.9814 26.0609 92.708 25.6617 91.2579 25.138C90.4377 24.8418 90.5938 24.402 91.5434 24.3335C92.216 24.2851 92.3628 24.2031 92.4135 23.8481C92.4719 23.4375 92.4186 23.421 91.0332 23.421H89.592V26.0081ZM93.6985 24.3843C93.0674 26.5038 93.4366 28.3992 94.5274 28.638C95.2333 28.7927 95.8024 28.5146 96.5719 27.6391L97.1741 26.9539L97.4478 27.8926C97.7777 29.0241 98.3038 29.3066 99.4341 28.9598C100.64 28.5894 100.693 28.5192 100.444 27.5981L100.225 26.7855L99.2869 27.7063L98.3495 28.627V27.9571C98.3495 27.1799 98.7038 25.1461 98.9004 24.7936C98.9918 24.6302 99.2439 24.831 99.6861 25.4195C100.408 26.38 100.594 26.2766 100.621 24.9007C100.633 24.2509 100.586 24.1884 100.003 24.0793C99.6551 24.0144 99.0826 23.9891 98.7302 24.0233C98.1391 24.0806 98.0593 24.1697 97.6972 25.1769C97.2969 26.2902 97.0168 26.5788 97.0168 25.8779C97.0168 25.1792 96.6033 23.8287 96.361 23.7361C96.2309 23.6862 95.6461 23.5859 95.0611 23.513L93.9976 23.3805L93.6985 24.3843ZM101.77 25.1782C101.149 26.5013 100.836 28.5957 101.107 29.6172C101.247 30.1447 101.266 30.127 101.784 28.9884C102.077 28.3442 102.473 27.7331 102.665 27.6306C102.983 27.4607 103.009 27.5224 102.958 28.3275C102.918 28.9666 103.013 29.3873 103.302 29.8491C103.521 30.2001 103.737 30.4514 103.781 30.4072C103.945 30.2436 104.822 25.8707 104.822 25.2164C104.822 24.3709 104.663 24.4667 103.716 25.8808L102.962 27.0066L102.746 25.5577C102.627 24.7608 102.49 24.0692 102.442 24.0212C102.393 23.9732 102.091 24.4937 101.77 25.1782ZM77.5978 24.8921C77.5976 25.2838 77.7364 26.3589 77.9062 27.2817C78.1882 28.8132 78.2668 28.9907 78.8109 29.3208C79.1387 29.5196 79.4315 29.6092 79.4616 29.5198C79.5715 29.1938 78.7327 25.8026 78.3441 25.0024C77.8535 23.992 77.5984 23.9542 77.5978 24.8921ZM94.6559 24.7972C94.6043 25.1364 94.5162 25.9482 94.4598 26.6006L94.3574 27.787H94.8996C95.4005 27.787 95.4513 27.7196 95.5631 26.9062C95.7637 25.4461 95.7057 24.828 95.336 24.4944C94.8495 24.0556 94.7625 24.0943 94.6559 24.7972ZM75.8444 26.4988L75.7896 28.2616L75.08 27.0277C74.69 26.3491 74.1992 25.5803 73.9897 25.3193L73.6086 24.8447L73.6044 25.6486C73.6014 26.2524 73.8424 26.9142 74.5727 28.3062C75.1075 29.3258 75.5699 30.1868 75.6004 30.2195C75.6306 30.2523 75.9642 30.2216 76.3413 30.151L77.0271 30.0226V27.7954C77.0271 25.9092 76.976 25.5243 76.6939 25.2826C75.9286 24.6273 75.9013 24.6661 75.8444 26.4988ZM85.1516 25.7752C85.0321 26.0858 85.1726 26.2684 85.5307 26.2684C85.6702 26.2684 85.7845 26.0975 85.7845 25.8887C85.7845 25.4571 85.307 25.3715 85.1516 25.7752ZM105.869 27.2468C104.834 28.9313 104.479 29.7276 104.456 30.4148C104.442 30.8341 104.494 30.8155 105.36 30.0927L106.279 29.3256L106.7 30.1901C107.055 30.918 107.188 31.0367 107.543 30.942C107.774 30.8801 108.028 30.8283 108.106 30.8269C108.185 30.8254 108.249 29.7244 108.249 28.3802V25.9362L107.654 25.8176C107.327 25.7523 107.006 25.6989 106.94 25.6989C106.874 25.6989 106.392 26.3956 105.869 27.2468ZM90.8145 26.3337C90.6319 26.8085 90.8103 27.5023 91.1151 27.5023C91.3133 27.5023 91.4006 27.3037 91.4006 26.8536C91.4006 26.1807 91.0077 25.832 90.8145 26.3337ZM70.2406 26.747C70.0063 27.3561 70.3017 29.4146 70.7577 30.3497C71.2072 31.2715 71.2466 31.3006 72.1231 31.3566C72.8772 31.405 73.1043 31.3361 73.5033 30.9382C74.1373 30.306 74.1316 29.3051 73.4849 27.6942L72.9885 26.4582H71.6702C70.6657 26.4582 70.3253 26.5269 70.2406 26.747ZM111.938 27.1226C111.058 28.3637 109.58 32.0246 109.85 32.2941C110.043 32.4858 110.834 32.0602 111.609 31.348C112.535 30.4968 112.543 30.5063 112.157 31.9543C112.005 32.5238 111.909 33.0181 111.944 33.053C111.979 33.088 112.224 33.0183 112.488 32.8983C113.247 32.5532 114.664 29.2149 114.497 28.1642C114.444 27.825 114.28 27.9 113.081 28.8127L111.725 29.8444L112.09 28.6769C112.29 28.0349 112.429 27.2944 112.398 27.0313L112.342 26.5531L111.938 27.1226ZM71.1824 27.7646C71.3256 28.9708 71.8025 30.001 72.3972 30.3896C73.0274 30.8015 73.1254 30.6039 72.8656 29.4457C72.5998 28.2618 72.0702 27.3288 71.487 27.0176C71.0735 26.7969 71.0688 26.8086 71.1824 27.7646ZM66.9846 27.9748C66.4412 28.3051 66.3658 28.4501 66.3658 29.1659C66.3658 29.7037 66.5884 30.4437 67.0204 31.3425C67.7583 32.8778 67.8133 32.786 66.0205 33.013L65.0086 33.1411L65.6896 31.793C66.0643 31.0513 66.3129 30.4446 66.2421 30.4446C66.1715 30.4446 65.7353 30.6658 65.2729 30.9359C64.8105 31.2062 64.391 31.3862 64.3408 31.336C64.2119 31.2077 64.7562 29.96 65.2314 29.2946C65.4507 28.9875 65.576 28.7362 65.5097 28.7362C65.4433 28.7362 64.7446 29.0331 63.9572 29.3958L62.5251 30.0555L63.525 31.9382C64.075 32.9739 64.6701 34.0128 64.8476 34.2474L65.1701 34.6738L66.577 33.748C67.3509 33.2387 68.2839 32.7634 68.6504 32.6918C69.5646 32.513 70.7446 31.997 70.7446 31.7763C70.7446 31.3877 69.8026 29.4955 69.6089 29.4955C69.4964 29.4955 69.0553 29.7151 68.6287 29.9837C68.202 30.2523 67.8272 30.4444 67.7956 30.4108C67.7642 30.3772 67.6505 30.0295 67.5433 29.6378L67.3484 28.926H68.2738C68.7827 28.926 69.2472 28.8483 69.3061 28.7532C69.4863 28.4626 69.2253 28.0395 68.7262 27.8126C68.0585 27.5095 67.6943 27.5433 66.9846 27.9748ZM106.543 28.0634C106.28 28.3793 106.43 28.7362 106.826 28.7362C107.128 28.7362 107.539 28.0909 107.354 27.9068C107.15 27.7033 106.784 27.7739 106.543 28.0634ZM117.163 30.0033C116.926 30.0659 116.811 30.3956 116.715 31.2865L116.587 32.4856L115.416 33.316L114.246 34.1463L114.952 34.2047C115.34 34.2368 115.84 34.1658 116.063 34.047C116.286 33.928 116.491 33.8591 116.519 33.8936C116.547 33.9282 116.81 34.469 117.103 35.0954C117.633 36.2256 117.638 36.23 117.776 35.6649C117.851 35.3517 117.924 34.6413 117.936 34.0865C117.957 33.1371 118.015 33.0229 118.91 32.1531C119.565 31.517 119.862 31.0764 119.862 30.7406V30.2523L119.072 30.8231C118.638 31.1369 118.2 31.3938 118.1 31.3938C118 31.3938 117.951 31.0521 117.991 30.6344C118.066 29.8503 117.983 29.7872 117.163 30.0033ZM60.7798 30.8347C60.1226 31.3501 59.7026 32.1628 59.7026 32.919C59.7026 33.3408 59.9647 33.8465 60.6029 34.6565L61.503 35.7991L62.6483 35.6698C63.2781 35.5988 63.8047 35.5259 63.8184 35.5079C63.8321 35.4899 63.9029 34.9838 63.976 34.3836C64.08 33.5286 64.0529 33.292 63.8517 33.292C63.3407 33.292 62.7612 33.8866 62.639 34.5364C62.48 35.3813 62.2512 35.2142 61.2201 33.5005L60.4666 32.248L61.7128 32.1531L62.9588 32.0582L62.1261 31.2449L61.2934 30.4319L60.7798 30.8347ZM68.4 31.3816C68.9676 32.1728 69.1197 32.1713 69.3173 31.3721C69.4189 30.9615 69.3637 30.8556 68.9976 30.7578C67.9302 30.4727 67.826 30.5815 68.4 31.3816ZM120.467 32.1197C120.276 32.3102 119.663 33.2624 119.104 34.2357C117.972 36.2086 117.97 36.1949 119.442 36.8302C120.417 37.2505 120.817 36.7348 120.053 36.0445C119.563 35.6022 119.528 34.7456 120.005 34.8762C120.82 35.0992 121.766 35.1943 121.766 35.0531C121.766 34.9682 121.544 34.5734 121.273 34.1755C121.002 33.7778 120.826 33.4069 120.882 33.3515C120.937 33.296 121.48 33.3368 122.088 33.4422C122.696 33.5475 123.22 33.6089 123.252 33.5785C123.393 33.446 121.448 31.7818 121.147 31.7778C120.964 31.7753 120.658 31.9293 120.467 32.1197ZM85.023 32.939C79.6179 33.4933 74.8354 34.8035 69.2691 37.2547C61.9927 40.4592 54.7175 46.4291 49.5771 53.4138C43.5332 61.6262 40.0936 72.1945 40.0936 82.5525C40.0936 91.4182 42.5586 100.377 47.0746 107.924C51.0571 114.58 56.3948 120.129 62.8627 124.338C68.6883 128.129 74.8687 130.512 82.3131 131.839C85.5059 132.408 92.4967 132.548 96.0649 132.114C105.133 131.011 113.194 127.738 120.814 122.064C123.324 120.195 128.189 115.301 130.179 112.64C135.11 106.051 138.286 98.6738 139.7 90.5253C140.075 88.3605 140.128 87.3933 140.13 82.6474C140.132 76.736 139.954 75.0117 138.899 70.7267C137.218 63.8933 133.761 56.9579 129.232 51.3318C120.83 40.8943 108.656 34.3239 95.113 32.9169C92.9608 32.6935 87.2968 32.7058 85.023 32.939ZM57.7977 33.0897C57.1216 33.2947 56.1317 33.8232 55.9873 34.0559C55.8339 34.3034 56.767 35.9637 58.0514 37.7281L59.0363 39.0812L59.097 38.4516C59.1303 38.1051 58.9908 37.3293 58.7869 36.7276L58.4164 35.6332L59.8568 36.4517C60.649 36.902 61.3303 37.2374 61.3707 37.197C61.5199 37.0482 60.8529 36.021 60.1117 35.2585C59.6649 34.7989 59.2603 34.1487 59.137 33.6924C58.9171 32.8776 58.7478 32.8015 57.7977 33.0897ZM122.738 34.9563C121.641 36.3363 120.814 37.9111 121.059 38.1553C121.119 38.215 121.566 37.9912 122.052 37.6579C122.78 37.1585 123.051 37.073 123.585 37.1731C123.943 37.2399 124.57 37.2046 124.98 37.0947C125.675 36.9081 125.73 36.8413 125.811 36.0899C125.903 35.2327 125.549 34.6664 124.407 33.8475L123.906 33.4883L122.738 34.9563ZM57.418 34.4023C57.418 34.8526 57.6772 35.1903 58.0229 35.1903C58.5757 35.1903 58.4149 34.356 57.8464 34.2753C57.6107 34.2421 57.418 34.2991 57.418 34.4023ZM54.1268 35.4827C53.243 36.0738 52.8849 36.4202 52.9864 36.5863C53.537 37.4861 55.8251 40.4841 55.9365 40.4512C56.168 40.3825 58.1777 38.8979 58.1756 38.7971C58.1746 38.7449 58.0908 38.574 57.9896 38.4174C57.8302 38.1712 57.6979 38.1934 57.011 38.5824L56.2166 39.0323L55.8748 38.5824C55.5375 38.1382 55.5421 38.1235 56.2377 37.3965L56.9421 36.6604L56.1806 36.7746C55.7618 36.8373 55.1274 36.947 54.7708 37.0182L54.1224 37.1478L54.6951 36.3115C55.4495 35.2091 55.7528 34.6208 55.5666 34.6208C55.4832 34.6208 54.8354 35.0087 54.1268 35.4827ZM123.708 35.2283C123.239 35.6956 123.701 36.4514 124.312 36.2173C124.709 36.0654 124.715 35.2668 124.321 35.1157C123.937 34.969 123.975 34.9621 123.708 35.2283ZM126.503 36.4719C125.242 37.7874 123.86 39.4728 123.86 39.6963C123.86 39.803 124.246 40.2052 124.717 40.5902C125.395 41.1439 125.576 41.4165 125.587 41.8945C125.594 42.2269 125.664 42.6612 125.742 42.8596C125.863 43.1661 125.966 43.08 126.427 42.2901C126.726 41.7785 127.562 40.4769 128.286 39.3977C129.01 38.3185 129.569 37.4026 129.529 37.3623C129.272 37.1061 127.784 38.2261 126.805 39.4136C125.806 40.6242 125.661 40.7363 125.605 40.3438C125.503 39.6203 125.718 39.0771 126.457 38.1997C127.297 37.2014 127.737 36.2294 127.523 35.8479C127.401 35.63 127.182 35.764 126.503 36.4719ZM86.6412 36.1495C83.8179 36.4244 80.5116 37.4229 79.5237 38.2991C78.8547 38.8927 77.9826 40.3447 76.9442 42.5936C76.2337 44.1326 76.003 44.8704 75.9314 45.831L75.8389 47.0751L77.4326 47.4153C79.4959 47.8559 85.5853 49.8346 87.7834 50.7786C89.8738 51.6765 90.5422 51.697 92.3205 50.9174C93.8912 50.2289 98.977 48.4988 101.491 47.798C102.433 47.5352 103.554 47.1901 103.983 47.0309L104.761 46.7416L104.618 45.8541C104.391 44.452 102.438 40.1483 101.432 38.832C100.849 38.0693 100.141 37.7016 97.7783 36.9314C95.1797 36.0846 90.6071 35.7636 86.6412 36.1495ZM51.3259 37.189C51.3259 37.2441 51.5885 37.8081 51.9094 38.4421C52.2304 39.0761 52.4661 39.619 52.433 39.6486C52.4 39.6784 51.7747 39.462 51.0432 39.168C50.3118 38.8739 49.6786 38.668 49.6361 38.7101C49.5375 38.8086 50.9973 40.7413 51.9511 41.7745C52.606 42.4841 53.6586 42.9887 53.9265 42.7214C53.9808 42.6673 53.6748 42.1504 53.2467 41.5723C52.8185 40.9945 52.4682 40.4753 52.4682 40.4188C52.4682 40.0989 53.5711 40.4002 54.293 40.9171C54.7548 41.2479 55.1809 41.4708 55.2395 41.4121C55.6407 41.0122 53.2994 37.9144 52.2041 37.3963C51.5163 37.0708 51.3259 37.0258 51.3259 37.189ZM128.469 40.5608L126.707 42.3246L127.235 42.8091C128.057 43.5636 129.191 44.3647 129.294 44.2628C129.345 44.2121 129.245 43.837 129.073 43.4296C128.726 42.6058 128.424 41.6445 128.514 41.6445C128.546 41.6445 129.065 41.8616 129.667 42.127C130.269 42.3926 130.799 42.572 130.845 42.5259C130.891 42.4799 130.649 41.948 130.308 41.3442C129.829 40.4985 129.762 40.2753 130.017 40.3726C130.78 40.6646 132.462 41.104 132.535 41.0308C132.65 40.9163 130.64 38.7971 130.417 38.7971C130.314 38.7971 129.438 39.5907 128.469 40.5608ZM46.7568 41.3863C46.7568 41.4531 47.5772 42.3404 48.5799 43.3581C50.4212 45.2269 50.4784 45.2582 51.4796 44.9515C51.8533 44.8368 49.081 42.0372 48.1847 41.6242C47.4186 41.2711 46.7568 41.1608 46.7568 41.3863ZM131.334 42.6494C129.806 43.9805 129.764 44.0403 129.763 44.8672L129.762 45.7169L131.247 44.2451L132.731 42.7734L133.555 43.0631C135.153 43.6255 135.281 43.4608 134.141 42.3089C133.572 41.7347 133.061 41.2686 133.005 41.2732C132.949 41.2779 132.197 41.8971 131.334 42.6494ZM133.844 44.6574C133.524 44.852 132.865 45.464 132.379 46.0176C131.396 47.1385 131.4 47.2165 132.493 48.2647C133.086 48.8337 133.239 48.8908 133.857 48.7752C134.335 48.6858 134.876 48.3329 135.584 47.6491C136.664 46.6064 136.774 46.2765 136.497 44.8953C136.382 44.3233 136.343 44.3021 135.402 44.3028C134.786 44.3032 134.212 44.434 133.844 44.6574ZM44.0915 45.2218C44.0915 46.066 45.0244 47.6096 46.4612 49.1427L47.3504 50.0918L47.2412 48.8348L47.1321 47.5778L47.7297 47.4585C48.0585 47.3931 48.6166 47.3393 48.97 47.3393C49.3233 47.3393 49.6125 47.2535 49.6125 47.1489C49.6125 46.9508 44.7108 44.4919 44.316 44.4919C44.1825 44.4919 44.0915 44.7878 44.0915 45.2218ZM134.805 45.4207C133.849 45.8473 132.808 47.006 132.808 47.6429V48.1229L133.596 47.6837C134.03 47.442 134.721 46.9454 135.133 46.58C135.751 46.032 135.854 45.8423 135.724 45.498C135.568 45.0828 135.563 45.0825 134.805 45.4207ZM45.53 46.3481C45.404 46.4735 45.9818 47.1495 46.2152 47.1495C46.3037 47.1495 46.3761 46.9885 46.3761 46.7921C46.3761 46.4509 45.7541 46.1244 45.53 46.3481ZM42.2788 47.6715C42.352 48.0631 42.4259 48.3916 42.4427 48.4016C42.4596 48.4117 42.816 48.6535 43.2348 48.939L43.9963 49.4584L43.2348 49.353C40.6754 48.9992 40.6647 48.9988 40.6647 49.2735C40.6647 49.7147 42.1765 51.1019 43.6655 52.0273C44.4316 52.5034 45.104 52.8472 45.1601 52.7914C45.2814 52.6703 44.744 51.5881 44.4826 51.4269C44.3819 51.365 44.1228 51.0664 43.9065 50.7636L43.5132 50.213L44.565 50.5816C45.5188 50.9159 45.6789 50.9244 46.282 50.6731C46.9655 50.3884 47.1287 50.1095 46.7092 49.9434C46.5785 49.8916 45.5426 49.1989 44.4076 48.4045C43.2725 47.6098 42.2991 46.9597 42.2447 46.9597C42.19 46.9597 42.2055 47.2801 42.2788 47.6715ZM136.823 47.6324C135.929 48.1423 133.762 49.8272 133.761 50.0136C133.76 50.0751 134.213 50.6224 134.767 51.2301L135.774 52.3349L136.729 51.4886C137.255 51.0233 138.022 50.4396 138.435 50.1919C138.848 49.944 139.213 49.7219 139.246 49.6983C139.398 49.5901 138.857 48.0958 138.505 47.6489C138.02 47.0339 137.876 47.0324 136.823 47.6324ZM137.194 48.7547C136.772 49.261 137.329 49.6319 137.936 49.2492C138.163 49.1063 138.167 49.0256 137.96 48.7775C137.651 48.4064 137.488 48.4014 137.194 48.7547ZM135.511 49.8451C135.213 50.1427 135.218 50.7016 135.521 50.8098C135.938 50.959 136.425 50.5689 136.425 50.0852C136.425 49.5721 135.919 49.439 135.511 49.8451ZM138.424 51.2623C137.377 51.8521 136.491 52.3571 136.456 52.3846C136.421 52.4121 136.32 52.7504 136.233 53.1365L136.074 53.8385L137.059 53.7104C137.6 53.6401 138.258 53.534 138.519 53.4746C138.91 53.3861 138.808 53.5452 137.948 54.3622C137.372 54.9097 137 55.3943 137.12 55.4391C137.791 55.6897 141.451 53.5773 141.947 52.6526C142.141 52.2921 142.089 52.2749 140.811 52.2749C140.074 52.2749 139.471 52.2365 139.471 52.1894C139.471 52.1426 139.728 51.7244 140.042 51.2602C140.988 49.8625 140.91 49.8627 138.424 51.2623ZM39.6011 51.6826C39.0867 52.3405 38.6416 52.9434 38.6121 53.0222C38.5371 53.2225 40.0165 54.1732 40.4031 54.1732C40.5779 54.1732 41.2242 53.9902 41.8396 53.7663C42.4549 53.5427 43.0113 53.4125 43.0761 53.4771C43.268 53.6682 42.744 54.173 41.9176 54.5934C41.0632 55.0279 41.165 55.1405 42.6184 55.3672C43.3157 55.4759 43.3462 55.4558 43.7854 54.5944L44.2362 53.7098L43.8404 52.8973C43.6226 52.4506 43.3481 52.085 43.2303 52.085C43.1124 52.085 42.3869 52.2984 41.6178 52.5592C40.1787 53.0473 39.8737 53.0526 40.2649 52.5826C40.6065 52.1722 40.8159 51.2766 40.6682 50.8586C40.5549 50.5385 40.405 50.6543 39.6011 51.6826ZM59.8583 52.1319C59.6156 52.4712 59.3129 53.2612 59.1855 53.8878C59.0583 54.5147 58.5748 55.7962 58.1112 56.7358C57.6476 57.6755 57.0776 59.1277 56.8444 59.9629C56.6114 60.7982 56.3833 61.6106 56.3378 61.7684C56.2923 61.9261 56.6175 62.6095 57.0605 63.287C57.7474 64.3375 57.9243 64.8261 58.2624 66.6069L58.6589 68.695L60.0181 68.7899C61.2555 68.8763 61.496 68.9659 62.7054 69.7905L64.0337 70.6962L63.937 71.5514C63.75 73.2055 64.4503 76.1889 65.717 79.1356C66.1842 80.2223 66.2868 80.3224 67.9521 81.3186C69.0588 81.9807 70.3002 82.953 71.3446 83.9762C72.2506 84.8636 73.3354 85.9066 73.7552 86.2936C74.175 86.6809 74.5754 87.2361 74.645 87.5275C74.716 87.8251 75.7945 89.1813 77.1043 90.6202L79.4372 93.1829L81.1566 93.2372L82.8761 93.2913L83.4893 94.0523C84.2529 94.9997 84.4518 95.6761 84.4518 97.324C84.4518 98.3925 84.5432 98.7764 84.9717 99.5083C85.6535 100.673 87.9481 102.958 89.9728 104.488C91.4214 105.583 91.6651 105.861 92.2973 107.134C93.1026 108.755 93.1373 108.696 91.2579 108.926C90.0922 109.07 90.0402 109.126 90.3842 109.879C90.5988 110.349 90.6576 110.362 92.4523 110.362C95.5345 110.362 96.0868 110.538 97.6595 112.016C98.4054 112.717 99.2599 113.678 99.5582 114.151C100.532 115.698 107.67 122.456 107.952 122.098C107.979 122.064 108.097 121.543 108.215 120.94C108.339 120.305 108.752 119.301 109.196 118.556C109.617 117.848 109.963 117.154 109.963 117.013C109.963 116.872 109.615 116.297 109.191 115.737L108.419 114.718L108.621 112.872C108.733 111.857 108.844 110.514 108.87 109.888L108.915 108.749L110.557 108.103L112.199 107.456L112.315 106.348C112.379 105.738 112.561 104.929 112.72 104.551C112.879 104.172 113.009 103.36 113.009 102.746V101.63H113.865C114.337 101.63 114.722 101.566 114.722 101.488C114.722 101.409 115.055 100.982 115.461 100.539C116.717 99.1687 117.859 99.5799 118.888 101.773L119.343 102.74L120.566 101.806C121.239 101.292 121.912 100.871 122.063 100.871C122.534 100.871 122.367 100.617 121.264 99.6522C120.677 99.1385 120.077 98.4337 119.932 98.0861C119.715 97.57 119.563 97.454 119.098 97.454C118.544 97.454 118.53 97.4303 118.53 96.5204C118.53 95.0959 118.621 94.9642 119.351 95.3391C119.782 95.5607 120.592 95.6687 122.151 95.7131L124.345 95.7753L124.702 94.7854L125.059 93.7953L126.84 93.92L128.62 94.0447V92.3567V90.669L127.708 89.2682C127.207 88.4979 126.573 87.4823 126.299 87.0114C126.025 86.5404 125.363 85.7868 124.828 85.3367C124.293 84.8866 123.909 84.431 123.975 84.324C124.127 84.0791 125.663 84.2938 126.371 84.659C126.685 84.8211 127.471 84.9253 128.38 84.9253H129.872L130.542 84.1186C131.587 82.8613 131.59 82.89 130.412 82.6271C129.824 82.4959 129.316 82.2973 129.283 82.1857C129.25 82.0743 129.171 81.748 129.108 81.461C129 80.9701 128.932 80.9389 127.966 80.9389H126.938L126.614 80.095C126.437 79.6308 126.234 78.9687 126.164 78.6238C126.048 78.052 125.936 77.9668 124.901 77.6589C122.508 76.9478 122.148 76.4563 122.147 73.9085L122.147 72.2883L124.064 69.7404C125.118 68.3391 126.016 67.1352 126.06 67.065C126.103 66.9947 126.264 66.0496 126.417 64.9649C126.569 63.88 126.746 62.857 126.81 62.6917C126.901 62.4563 126.684 62.3234 125.809 62.0787C124.093 61.5987 123.191 61.6717 121.632 62.4164L120.272 63.0666L118.274 62.9244C116.32 62.7853 116.265 62.7688 115.748 62.1556C115.317 61.6448 115.229 61.3745 115.271 60.6911C115.318 59.9344 115.248 59.7784 114.555 59.0872C114.132 58.666 113.735 58.1569 113.671 57.9557C113.606 57.7546 113.41 57.5874 113.234 57.584C113.058 57.5808 112.747 57.4526 112.544 57.2992C111.994 56.8845 111.571 56.957 110.848 57.5901C109.876 58.4414 109.237 58.3655 108.575 57.3203L108.043 56.4817L106.673 56.4188C105.54 56.367 105.165 56.4296 104.501 56.7833C103.549 57.2894 102.92 57.3171 101.71 56.9063L100.815 56.6022L99.7314 57.4181C98.9596 57.9991 98.4905 58.222 98.102 58.1926C97.4893 58.1461 96.2587 57.5639 95.3986 56.9137C94.8912 56.5304 94.604 56.4809 92.8285 56.4714C90.4878 56.4589 89.1593 56.1533 87.4012 55.2233C86.4771 54.7345 85.893 54.5522 85.2451 54.5505C83.443 54.546 81.35 53.7052 80.7078 52.728C80.3092 52.1213 79.5029 52.104 79.4993 52.702C79.498 52.937 79.4422 53.3326 79.3754 53.5815C79.2577 54.0194 79.2084 54.0306 77.8028 53.9345C77.0046 53.8799 75.647 53.6458 74.7859 53.414C73.9248 53.1824 73.0152 53.0441 72.7645 53.1069C72.5139 53.1695 71.7983 53.6515 71.1742 54.1775C70.1947 55.0035 69.9922 55.2909 69.692 56.2793C69.3656 57.3543 69.3142 57.4175 68.8545 57.3108C68.5853 57.2484 67.7861 56.8998 67.079 56.5363C66.3717 56.1728 65.4722 55.8097 65.08 55.7296C64.3872 55.5878 64.3537 55.542 63.9056 54.123L63.4441 52.6625L62.0625 52.089C61.3027 51.7737 60.5951 51.5156 60.4904 51.5156C60.3855 51.5156 60.1011 51.7929 59.8583 52.1319ZM141.037 54.5513C140.065 54.9425 139.093 55.423 138.876 55.6191C138.453 56.0008 137.87 57.0056 137.997 57.1328C138.04 57.1751 138.601 56.9963 139.245 56.7355C139.889 56.4746 140.46 56.2613 140.515 56.2613C140.569 56.2613 140.614 56.506 140.614 56.8049C140.614 57.2744 140.497 57.3932 139.757 57.6749C139.286 57.8543 138.9 58.0455 138.9 58.0998C138.9 58.154 139.134 58.6125 139.419 59.1186C139.78 59.7594 140.156 60.1366 140.656 60.3617C141.052 60.5396 141.374 60.6934 141.373 60.7036C141.372 60.7139 141.246 61.1881 141.094 61.7574C140.942 62.3268 140.851 62.8257 140.891 62.866C141.015 62.9893 143.32 61.3602 144.26 60.4857C145.031 59.767 145.127 59.5952 145.003 59.1476C144.866 58.6512 144.824 58.6366 143.737 58.7106C141.43 58.8674 140.364 58.8293 140.281 58.5867C140.237 58.4562 140.311 58.3494 140.446 58.3494C140.581 58.3494 141.501 57.9568 142.49 57.4767C144.538 56.4834 144.532 56.2689 142.457 56.2641L141.159 56.2613L142.059 55.1202C142.553 54.4926 142.923 53.9478 142.88 53.9095C142.838 53.8713 142.008 54.1601 141.037 54.5513ZM37.6053 55.1134C37.1939 55.5447 36.8572 56.0124 36.8572 56.1525C36.8572 56.2928 37.4171 56.9298 38.1017 57.5682C39.1752 58.5698 39.4457 58.729 40.0725 58.729C40.5124 58.729 41.0468 58.5607 41.4278 58.3019C42.3962 57.6444 42.504 57.3608 42.1131 56.4965C41.8312 55.8733 41.5658 55.6525 40.5061 55.1597C38.4855 54.2198 38.4582 54.2195 37.6053 55.1134ZM38.1898 56.0674C38.1898 56.5948 38.2972 56.7083 39.1893 57.1223C39.769 57.3915 40.541 57.5872 41.0274 57.5882C41.8378 57.5901 41.855 57.5779 41.5403 57.2313C41.1984 56.8545 39.3507 55.8266 38.6182 55.6056C38.238 55.4909 38.1898 55.5428 38.1898 56.0674ZM119.989 57.7167C119.919 57.7862 119.862 58.5136 119.862 59.3329V60.8225L120.627 60.3181C121.381 59.8205 121.424 59.8152 123.815 59.9242C125.149 59.9849 126.787 60.1364 127.455 60.2608L128.671 60.487L128.544 62.2181C128.302 65.5239 128.01 67.3505 127.623 67.9926C127.415 68.337 126.691 69.3139 126.014 70.1631C124.302 72.3128 124.051 72.8648 124.051 74.4772V75.8136L125.24 75.8269C126.97 75.8462 127.106 75.9404 127.678 77.516L128.18 78.9009L130.256 79.8264C131.398 80.3355 132.699 80.8922 133.148 81.0638L133.965 81.3757L134.546 80.825C134.865 80.5223 135.355 79.8901 135.633 79.4203C136.117 78.6035 136.139 78.4539 136.121 76.0034C136.082 70.4841 133.887 64.0998 130.713 60.2761C129.395 58.6869 128.551 58.2651 125.93 57.8841C123.884 57.5868 120.223 57.4836 119.989 57.7167ZM53.5153 58.0574C51.1119 58.4961 50.529 58.9094 48.8954 61.3327C47.0359 64.0909 45.8803 66.7825 44.9197 70.5933C44.5629 72.0083 44.4142 73.2044 44.3356 75.2915C44.1932 79.0737 44.2168 79.1289 47.2236 82.0466C49.461 84.2175 50.704 85.1171 51.4611 85.1135C51.6768 85.1125 52.1031 84.6252 52.6228 83.7852C53.6482 82.1276 56.1871 78.646 58.3667 75.9085C60.4121 73.3394 60.4641 73.2406 60.4641 71.9346C60.4641 71.0538 60.4087 70.8784 60.1309 70.8807C59.9478 70.8822 59.2181 70.6954 58.5095 70.4655C57.2431 70.0544 57.2166 70.0324 56.9564 69.1582C56.8107 68.6692 56.5455 67.5551 56.367 66.6823C56.1094 65.4231 55.8501 64.7963 55.112 63.649C54.6003 62.8536 54.1816 62.0514 54.1816 61.8661C54.1816 61.6809 54.4815 60.8671 54.8479 60.0578C55.2144 59.2486 55.5143 58.4048 55.5143 58.1831C55.5143 57.718 55.4107 57.7114 53.5153 58.0574ZM35.8089 58.864C35.3056 59.5214 35.1405 59.9088 35.1822 60.3344C35.2357 60.8783 35.356 60.9588 37.2379 61.7107C38.3373 62.1499 39.3787 62.5131 39.5522 62.5174C39.9017 62.5265 40.4743 61.1104 40.4743 60.237C40.4743 59.6034 40.2328 59.3982 39.1449 59.1079C38.6755 58.9828 37.8865 58.6759 37.3919 58.4259L36.4926 57.9714L35.8089 58.864ZM36.4764 59.8363C36.4764 60.2843 36.6365 60.4371 36.971 60.3092C37.3921 60.148 37.3005 59.4883 36.8572 59.4883C36.6148 59.4883 36.4764 59.615 36.4764 59.8363ZM142.279 59.8832C141.799 60.1622 141.87 60.4375 142.422 60.4375C142.771 60.4375 142.898 60.3363 142.898 60.0578C142.898 59.6347 142.77 59.5984 142.279 59.8832ZM38.3113 60.3426C38.1348 60.8014 38.387 61.1968 38.8561 61.1968C39.3641 61.1968 39.6249 60.6943 39.3121 60.3185C39.024 59.9724 38.4485 59.9863 38.3113 60.3426ZM30.8863 75.9459C30.8556 75.9763 30.8669 76.2479 30.9112 76.5494C30.9874 77.0666 31.058 77.1054 32.1636 77.2377C32.808 77.3147 33.2066 77.421 33.0496 77.4738C32.8925 77.5266 32.0804 77.8292 31.2448 78.146L29.7256 78.7223L30.7359 79.0648C31.2916 79.2531 32.3735 79.4638 33.1402 79.5331C34.5989 79.6648 36.3587 79.5014 36.2021 79.2485C36.1518 79.1675 35.5289 78.9474 34.818 78.7597C32.9028 78.254 32.8681 78.1728 34.4582 77.9171L35.9053 77.6843V76.9474C35.9053 76.2623 35.8617 76.2037 35.2865 76.1135C34.568 76.0009 30.9685 75.8637 30.8863 75.9459ZM147.108 76.5864C146.02 76.6707 145.049 76.8199 144.951 76.918C144.852 77.0161 144.728 77.4271 144.675 77.8313C144.601 78.3983 144.682 78.7176 145.03 79.2292C145.278 79.5938 145.641 79.923 145.836 79.9604C146.146 80.0198 146.176 79.9397 146.076 79.3212C146.012 78.9323 145.815 78.4537 145.637 78.2578C145.332 77.9218 145.334 77.9017 145.663 77.9017C145.855 77.9017 146.291 78.0023 146.632 78.1251C147.189 78.3258 147.33 78.2965 148.026 77.8377L148.8 77.3269L148.793 77.9465C148.789 78.2872 148.664 78.7796 148.514 79.0407C148.107 79.751 148.159 79.7967 148.998 79.4682L149.767 79.1669L149.712 77.8244C149.648 76.2695 149.866 76.373 147.108 76.5864ZM149.087 80.9222C148.967 81.9564 148.933 82.0143 148.497 81.9312C148.187 81.8721 147.998 81.6779 147.924 81.3435C147.589 79.8191 147.551 79.8076 146.965 81.0587L146.42 82.2226L145.754 81.0788C145.097 79.9511 145.086 79.9427 144.967 80.4845C144.901 80.7867 144.837 81.4824 144.824 82.0305L144.802 83.0271H147.467H150.132V81.8755C150.132 80.6681 149.946 80.1048 149.489 79.9298C149.278 79.8491 149.186 80.0777 149.087 80.9222ZM32.1597 80.188C31.4066 80.3366 30.1939 80.8556 30.1939 81.0293C30.1939 81.0737 30.2849 81.5331 30.3961 82.0502C30.5859 82.9323 30.6556 83.0151 31.5262 83.3885C32.4194 83.7716 33.6744 83.8944 34.4837 83.6776C34.6965 83.6205 35.1148 83.189 35.4133 82.7184C35.9043 81.9446 35.9317 81.8173 35.6995 81.3847C35.1441 80.3503 34.6371 79.9887 33.7726 80.0107C33.3226 80.0221 32.5969 80.1018 32.1597 80.188ZM31.6217 81.5454C30.5988 82.1238 31.0369 82.4074 33.002 82.4386C33.9916 82.4543 34.2629 82.3868 34.6133 82.0373L35.0347 81.6172L34.5658 81.4868C33.8096 81.2766 32.0347 81.312 31.6217 81.5454ZM145.101 83.9544C144.992 84.1298 144.599 86.6843 144.669 86.7549C144.692 86.7771 145.743 86.8557 147.006 86.9294C149.745 87.089 150.034 86.9909 150.188 85.8507C150.277 85.1901 150.212 84.9447 149.81 84.4198L149.326 83.7864H147.265C146.132 83.7864 145.158 83.8619 145.101 83.9544ZM30.7174 85.0149C30.0964 86.0527 30.0713 86.2541 30.5627 86.2541C30.8804 86.2541 30.916 86.3496 30.8191 86.944L30.707 87.634L31.8306 87.5L32.9544 87.3661L31.9549 88.2487C31.0095 89.0831 30.9554 89.1805 30.9554 90.0469C30.9554 90.9034 30.9942 90.9761 31.5549 91.1711C31.8846 91.2857 32.686 91.3795 33.3353 91.3795C34.6248 91.3795 35.4303 90.9894 36.1548 90.0141C36.5166 89.527 36.5192 89.4797 36.2095 89.0084C35.7939 88.3758 34.8064 87.7745 34.1823 87.7735C33.5074 87.7726 33.24 87.4383 33.24 86.5958C33.24 85.7756 33.2645 85.7847 32.0501 86.1522C31.0312 86.4605 30.9238 86.3384 31.6311 85.6759C32.0221 85.3097 32.3686 85.2072 33.4162 85.1482L34.7162 85.0749L34.5229 86.0497C34.4167 86.5858 34.3737 87.0681 34.4275 87.1218C34.4814 87.1756 34.8428 87.0687 35.2306 86.8842C35.9258 86.5537 35.934 86.537 35.8106 85.6898C35.6203 84.3834 35.4204 84.2699 33.1861 84.2004L31.241 84.14L30.7174 85.0149ZM148.069 84.9022C147.929 84.9908 147.844 85.267 147.879 85.5163C147.927 85.8551 148.062 85.9694 148.416 85.9694C148.955 85.9694 149.158 85.4508 148.792 85.0111C148.529 84.6949 148.423 84.6787 148.069 84.9022ZM145.845 85.1209C145.638 85.4557 146.088 85.8071 146.44 85.5856C146.602 85.4834 146.75 85.3145 146.768 85.2101C146.815 84.9388 146.007 84.8606 145.845 85.1209ZM147.182 87.8916C145.088 88.3026 144.784 88.4011 144.611 88.7232C144.262 89.3736 144.414 89.5835 145.611 90.1008C147.126 90.7557 149.601 91.5934 149.707 91.4873C149.752 91.4427 149.538 91.037 149.231 90.586C148.925 90.135 148.62 89.6718 148.553 89.5566C148.485 89.4402 148.809 89.0763 149.282 88.738C149.75 88.403 150.132 88.0488 150.132 87.9508C150.132 87.78 147.971 87.7365 147.182 87.8916ZM32.1401 89.3971C31.9073 89.5596 31.7169 89.8191 31.7169 89.974C31.7169 90.2052 32.0132 90.2455 33.3827 90.2005C35.043 90.1458 35.0487 90.1439 35.1087 89.6236L35.1691 89.1016H33.8661C32.9949 89.1016 32.4229 89.1995 32.1401 89.3971ZM34.3466 91.7582C32.6439 92.0746 30.9554 92.7542 30.9554 93.1229C30.9554 93.2081 31.4215 93.2778 31.9913 93.2778C32.5611 93.2778 33.069 93.3452 33.12 93.4277C33.1712 93.5101 32.8333 93.8171 32.3694 94.1098C31.9056 94.4023 31.5694 94.7119 31.6225 94.7975C31.6754 94.8832 32.0701 95.0124 32.4994 95.0848L33.2797 95.2161L32.4586 96.0504C31.5604 96.9629 31.6493 97.0256 33.24 96.5998C33.8158 96.4456 34.9081 96.3185 35.6673 96.3173L37.0475 96.315V95.3659V94.4167H35.7868H34.5262L34.8102 93.9896C34.9663 93.7548 35.2551 93.5323 35.452 93.4955C36.1073 93.3727 36.4764 92.8733 36.4764 92.1094C36.4764 91.7079 36.412 91.3875 36.3336 91.3973C36.2552 91.4072 35.361 91.5695 34.3466 91.7582ZM144.15 91.8066C143.83 93.3621 143.843 93.5847 144.276 93.9894C144.844 94.52 145.482 94.747 146.831 94.8983C147.783 95.005 148.015 94.9667 148.442 94.6307C149.012 94.1821 149.253 93.3032 148.993 92.621C148.834 92.2024 147.354 91.2394 147.163 91.43C147.12 91.4723 147.341 91.9695 147.654 92.5348C147.966 93.1001 148.223 93.6265 148.225 93.7049C148.233 94.0432 145.159 93.5194 144.751 93.1128C144.671 93.0327 144.992 92.6903 145.465 92.3514C145.938 92.0128 146.325 91.6555 146.325 91.5576C146.325 91.4596 145.855 91.3795 145.281 91.3795C144.352 91.3795 144.228 91.4262 144.15 91.8066ZM142.898 96.6123C142.898 97.1155 143.29 97.7076 144.111 98.4445L144.897 99.1501L143.879 98.8585C142.694 98.5193 142.276 98.6125 142.361 99.1968C142.412 99.544 142.685 99.6837 144.023 100.046C144.904 100.284 146.14 100.537 146.769 100.608L147.914 100.738L147.508 100.169C147.285 99.8563 146.74 99.2746 146.298 98.8762L145.494 98.152L146.148 98.2826C148.331 98.7192 148.634 98.6473 147.8 97.8904C147.151 97.3006 146.696 97.1129 144.906 96.6968C142.932 96.238 142.898 96.2364 142.898 96.6123ZM35.8101 96.7883C34.4197 97.0781 32.4784 97.8209 32.4784 98.063C32.4784 98.1602 32.7528 98.8958 33.0878 99.6978C33.6245 100.982 33.7132 101.099 33.8305 100.681C33.9036 100.42 33.972 99.8007 33.9824 99.3048C33.9994 98.4994 34.0475 98.4031 34.4338 98.4031C34.751 98.4031 34.9918 98.6334 35.3381 99.268L35.8101 100.133L35.9304 99.6002C35.9964 99.3073 36.0608 98.7443 36.0732 98.349C36.0937 97.6917 36.1282 97.6478 36.4764 97.8337C37.051 98.1402 37.3782 98.7722 37.5195 99.8477L37.647 100.818L36.832 100.948C35.9251 101.092 34.2693 101.966 33.7033 102.599L33.3351 103.011L34.2739 102.873C34.7902 102.797 35.7701 102.564 36.4513 102.354C37.5319 102.021 37.7841 102.004 38.4255 102.215C38.8299 102.348 39.1977 102.516 39.2426 102.588C39.2875 102.661 38.9191 102.872 38.424 103.057C37.0845 103.559 35.491 104.381 34.9528 104.849L34.4774 105.263L35.9881 105.167L37.4989 105.071L36.7071 105.771C35.8455 106.533 35.4786 107.437 35.9568 107.619C36.3178 107.758 38.9218 106.753 40.284 105.949L41.331 105.332L39.9476 105.276L38.5641 105.22L39.0416 104.596C39.8271 103.569 39.8288 103.044 39.0526 101.346C38.673 100.515 38.2781 99.4491 38.1751 98.977C37.9901 98.1288 37.233 96.4836 37.0479 96.5275C36.9954 96.54 36.4383 96.6573 35.8101 96.7883ZM141.769 100.729C141.979 101.068 142.281 101.53 142.44 101.755C142.726 102.157 142.711 102.166 141.529 102.33L140.328 102.496L141.946 103.296C143.562 104.095 145.675 104.747 146.275 104.632C146.501 104.588 146.311 104.348 145.613 103.794L144.635 103.017L145.8 102.561C147.551 101.875 147.452 101.63 145.422 101.63C143.842 101.63 143.694 101.597 143.264 101.138C142.796 100.637 141.933 100.112 141.581 100.112C141.475 100.112 141.56 100.389 141.769 100.729ZM57.0373 103.029C57.0373 103.068 56.7327 104.072 56.3603 105.26C55.7654 107.158 55.67 107.742 55.5742 110.078L55.4653 112.735L56.3089 113.986C59.449 118.641 65.0895 122.747 70.5207 124.332C72.6383 124.95 73.0837 124.877 75.8861 123.452C77.9867 122.384 80.8346 120.526 80.8346 120.222C80.8346 120.048 80.0482 118.962 77.8687 116.124C76.9182 114.887 75.2689 112.573 74.2037 110.983C73.1386 109.394 72.0521 107.952 71.789 107.78C71.3869 107.518 69.3584 106.887 63.8909 105.324C63.4197 105.19 61.7252 104.602 60.125 104.019C57.1964 102.952 57.0373 102.901 57.0373 103.029ZM121.638 103.651C121.132 104.032 120.505 104.594 120.243 104.9L119.767 105.458L119.325 104.989L118.884 104.52L116.518 105.301C114.706 105.899 114.171 106.149 114.234 106.371C114.279 106.53 114.343 107.21 114.376 107.881L114.436 109.101L113.132 109.344C112.415 109.477 111.552 109.677 111.213 109.788C110.605 109.989 110.599 110.002 110.684 111.017C110.731 111.581 110.665 112.474 110.538 113.002C110.307 113.961 110.307 113.962 110.992 114.759C111.633 115.506 111.676 115.638 111.676 116.854C111.676 117.911 111.588 118.292 111.202 118.902C110.941 119.313 110.417 120.401 110.037 121.318C109.657 122.236 109.143 123.387 108.895 123.877L108.444 124.767L109.441 124.473C115.128 122.795 120.31 119.156 123.861 114.349L125.053 112.735L124.942 110.267C124.843 108.074 124.744 107.531 124.053 105.379C123.159 102.595 123.098 102.551 121.638 103.651ZM140.96 103.943C140.214 104.141 139.852 104.751 139.852 105.809C139.852 106.395 140.617 106.989 142.299 107.711C143.263 108.124 143.312 108.127 144.022 107.808C144.713 107.497 144.761 107.42 144.878 106.426C144.946 105.847 144.964 105.335 144.918 105.289C144.77 105.142 143.279 104.992 143.279 105.125C143.279 105.195 143.456 105.599 143.673 106.022C143.89 106.446 144.017 106.842 143.956 106.903C143.787 107.072 141.912 106.421 141.376 106.006L140.901 105.64L141.382 105.106C141.646 104.813 142.023 104.38 142.219 104.145C142.573 103.722 142.572 103.719 142.118 103.738C141.867 103.749 141.345 103.841 140.96 103.943ZM38.8314 107.337C37.1079 108.183 36.8903 108.347 36.7835 108.879C36.7178 109.206 36.7003 109.51 36.7444 109.554C36.7886 109.598 37.8656 109.105 39.1377 108.458C40.8313 107.597 41.4219 107.208 41.3432 107.004C41.2842 106.85 41.2359 106.646 41.2359 106.55C41.2359 106.231 40.7767 106.382 38.8314 107.337ZM138.912 107.187C138.821 107.42 138.561 108.035 138.335 108.555C138.096 109.107 138.004 109.527 138.116 109.564C138.72 109.765 140.629 111.173 141.155 111.806L141.77 112.545L142.14 112.071C142.343 111.81 142.511 111.506 142.513 111.396C142.515 111.286 141.929 110.75 141.21 110.205C138.63 108.249 138.74 107.957 141.545 109.318C142.513 109.788 143.377 110.173 143.464 110.173C143.552 110.173 143.578 109.998 143.522 109.785C143.368 109.194 142.008 108.141 140.464 107.416L139.078 106.764L138.912 107.187ZM42.0926 110.573C40.6461 110.781 38.5907 111.397 38.0946 111.771C37.7234 112.052 37.7262 112.059 38.2125 112.065C39.8617 112.085 43.4505 111.126 43.7926 110.574C43.9409 110.334 43.7519 110.334 42.0926 110.573ZM136.24 112.118C136.245 112.615 136.528 113.05 137.692 114.349C138.74 115.518 139.246 115.948 139.531 115.911C140.099 115.836 140.107 115.8 139.798 114.75L139.518 113.796L140.399 113.681C142.106 113.458 142.154 113.335 140.796 112.676C139.485 112.039 137.638 111.501 136.766 111.501C136.293 111.501 136.235 111.568 136.24 112.118ZM43.1284 113.547C41.0632 115.03 40.2764 115.701 40.3894 115.884C40.5604 116.16 41.2751 116.071 41.9974 115.685C42.6399 115.341 42.6772 115.341 43.0445 115.671C43.2539 115.859 43.6179 116.072 43.8536 116.143C44.2183 116.253 44.2819 116.202 44.2819 115.797C44.2819 115.536 44.1983 115.103 44.0963 114.836C43.8732 114.251 43.8315 114.255 44.9317 114.741C45.4202 114.956 45.9833 115.106 46.1827 115.073C46.4989 115.021 46.4355 114.867 45.6909 113.874C45.2209 113.248 44.7329 112.716 44.6067 112.692C44.4805 112.669 43.8151 113.053 43.1284 113.547ZM138.054 112.813C137.896 113.067 138.124 113.543 138.466 113.674C138.876 113.831 138.967 113.691 138.824 113.124C138.705 112.65 138.265 112.472 138.054 112.813ZM134.262 114.834C133.649 115.518 133.177 116.104 133.215 116.137C135.613 118.182 137.197 119.228 137.559 119.005C137.641 118.954 138.014 118.401 138.388 117.775L139.068 116.637L138.283 115.967C137.852 115.599 137.365 115.298 137.2 115.298C137.036 115.298 136.41 115.557 135.809 115.872C134.724 116.443 134.719 116.443 134.888 115.999C135.272 114.991 135.635 113.589 135.511 113.59C135.438 113.59 134.876 114.15 134.262 114.834ZM45.6888 115.79C45.2814 116.06 44.4133 116.805 43.7591 117.444L42.5702 118.607L43.3706 119.42C43.8823 119.94 44.3392 120.233 44.6381 120.233C45.2795 120.233 46.6468 119.32 47.8926 118.059C48.91 117.03 48.9214 117.006 48.4036 117.006C47.7512 117.006 47.3209 117.222 46.0486 118.188C45.1205 118.892 43.7108 119.437 43.7108 119.091C43.7108 119.007 44.3961 118.303 45.2338 117.527C46.2285 116.605 46.7568 115.974 46.7568 115.707C46.7568 115.178 46.5893 115.192 45.6888 115.79ZM136.496 116.864C136.559 117.099 136.612 117.355 136.613 117.433C136.614 117.512 136.83 117.576 137.092 117.576C137.754 117.576 137.745 116.875 137.079 116.622C136.402 116.365 136.366 116.38 136.496 116.864ZM131.622 117.994L130.912 118.971L131.828 119.937C132.332 120.468 133.075 121.399 133.479 122.005C134.12 122.969 135.162 123.834 135.398 123.598C135.442 123.555 135.344 123.198 135.179 122.805C134.901 122.14 134.904 122.065 135.224 121.712C135.663 121.228 136.864 120.613 137.369 120.613C138.053 120.613 137.791 120.296 136.451 119.503C135.732 119.077 134.667 118.341 134.084 117.867C133.501 117.394 132.868 117.009 132.678 117.012C132.484 117.015 132.019 117.447 131.622 117.994ZM46.7568 119.87L44.9482 121.577L45.9001 122.42C46.9779 123.374 47.2632 123.428 48.389 122.884C49.3111 122.439 50.1507 121.343 50.3076 120.378C50.4016 119.8 50.3221 119.608 49.7066 118.928C49.3163 118.498 48.8999 118.149 48.7813 118.154C48.6625 118.16 47.7516 118.932 46.7568 119.87ZM132.728 119.243C133.661 120.435 134.37 120.882 135.057 120.71L135.568 120.582L134.712 119.833C133.803 119.04 133.193 118.662 132.443 118.431C132.021 118.301 132.045 118.37 132.728 119.243ZM100.061 119.332C99.5519 120.164 99.577 120.309 100.339 120.935C101.849 122.177 106.931 124.838 107.227 124.543C107.278 124.492 106.801 124.051 106.167 123.564C105.532 123.077 105.013 122.619 105.013 122.545C105.013 122.286 102.244 119.52 101.586 119.12C100.695 118.58 100.504 118.607 100.061 119.332ZM48.5791 119.843C47.6002 120.619 46.3761 121.732 46.3761 121.846C46.3761 121.899 46.7456 121.942 47.1972 121.942C48.2268 121.942 49.0183 121.208 49.2295 120.056C49.3073 119.632 49.3515 119.284 49.3275 119.284C49.3037 119.284 48.9669 119.536 48.5791 119.843ZM129.962 119.569C129.959 119.778 130.083 120.418 130.238 120.993C130.392 121.567 130.52 122.06 130.521 122.087C130.523 122.115 130.098 121.923 129.578 121.66C128.416 121.073 128.246 121.066 128.379 121.61C128.539 122.258 128.759 122.46 129.846 122.956C131.031 123.497 131.666 124.121 131.666 124.746C131.666 125.309 131.987 125.226 132.508 124.53L132.898 124.009L132.004 122.264C130.988 120.28 129.971 118.938 129.962 119.569ZM49.6942 122.593C48.8116 123.473 48.0895 124.284 48.0895 124.396C48.0895 124.507 48.3992 124.94 48.7779 125.358C49.3947 126.039 49.5594 126.118 50.3579 126.118C51.2128 126.118 51.2599 126.089 51.5037 125.417C51.6437 125.031 52.0892 124.419 52.4939 124.057C52.8987 123.695 53.2297 123.254 53.2297 123.077C53.2297 122.628 51.9422 120.993 51.5892 120.993C51.4295 120.993 50.5766 121.713 49.6942 122.593ZM51.0716 122.602C50.644 123.029 50.8827 123.494 51.4931 123.423C51.8824 123.378 51.9923 123.262 51.9923 122.894C51.9923 122.328 51.5024 122.173 51.0716 122.602ZM126.119 123.397C125.742 123.497 125.574 124.25 125.574 125.838V127.029L126.359 127.491C127.131 127.945 127.164 127.948 128.347 127.666L129.551 127.379L129.968 126.267C130.377 125.176 130.378 125.141 130.039 124.391C129.849 123.971 129.543 123.547 129.359 123.449C129.03 123.273 126.725 123.236 126.119 123.397ZM49.6401 124.092C49.2847 124.519 49.5842 125.009 50.1604 124.942C50.5505 124.897 50.6596 124.781 50.6596 124.41C50.6596 123.857 50.0053 123.653 49.6401 124.092ZM54.111 124.581C53.601 124.88 52.5729 125.626 51.8264 126.239L50.4692 127.352L51.7543 127.408L53.0393 127.464L53.0527 128.167C53.0601 128.554 53.1286 129.029 53.2052 129.223C53.3274 129.533 53.4089 129.491 53.8837 128.87C54.7448 127.744 55.519 126.039 55.6431 124.994C55.7452 124.134 55.7187 124.03 55.3979 124.033C55.2001 124.035 54.621 124.281 54.111 124.581ZM127.858 124.57C127.858 124.951 128.42 125.549 128.777 125.549C129.069 125.549 129.065 124.74 128.772 124.448C128.418 124.095 127.858 124.17 127.858 124.57ZM126.526 125.81C126.526 126.342 126.945 126.745 127.405 126.656C127.889 126.562 127.913 126.248 127.473 125.777C126.955 125.223 126.526 125.238 126.526 125.81ZM57.024 126.359C56.1275 126.961 54.103 129.876 54.3636 130.19C54.6161 130.493 57.0129 131.711 57.1291 131.595C57.1772 131.547 56.8823 131.105 56.474 130.612L55.7317 129.716L56.7386 128.249C58.0828 126.291 58.2689 125.928 57.9288 125.928C57.7836 125.928 57.3764 126.122 57.024 126.359ZM122.436 126.782C122.569 127.835 123.509 130.796 123.962 131.589C124.24 132.076 124.25 132.04 124.182 130.769C124.107 129.354 123.61 127.849 122.804 126.593L122.316 125.833L122.436 126.782ZM53.4201 126.403C53.4201 126.561 53.5893 126.688 53.8009 126.688C54.0124 126.688 54.1816 126.561 54.1816 126.403C54.1816 126.245 54.0124 126.118 53.8009 126.118C53.5893 126.118 53.4201 126.245 53.4201 126.403ZM59.56 128.299C59.2198 128.447 58.8451 128.778 58.7277 129.035C58.5455 129.434 58.6028 129.666 59.1166 130.61L59.719 131.718L59.307 132.052C58.9022 132.38 58.8883 132.372 58.523 131.636C58.0474 130.678 57.669 130.348 57.3781 130.638C57.0558 130.959 57.5132 132.28 58.1084 132.747C58.3781 132.959 58.9051 133.189 59.2792 133.259C59.8458 133.365 60.0177 133.314 60.3093 132.955C60.8885 132.242 60.9364 131.655 60.4906 130.74C60.1091 129.957 59.944 128.965 60.1953 128.965C60.2568 128.965 60.6903 129.371 61.1586 129.867L62.01 130.769L61.8916 130.04C61.7094 128.919 61.4162 128.433 60.7902 128.216C60.475 128.106 60.2082 128.02 60.1978 128.024C60.1871 128.028 59.9002 128.152 59.56 128.299ZM118.525 130.057L118.521 131.528L118.107 130.816C117.692 130.103 117.322 129.969 116.577 130.263C116.277 130.382 116.298 130.462 116.786 131.056C117.085 131.42 117.828 132.487 118.437 133.426L119.545 135.135L119.724 134.471C119.823 134.105 119.853 133.254 119.791 132.58L119.679 131.354L120.347 132.343C120.714 132.887 121.05 133.332 121.092 133.332C121.135 133.332 121.386 133.25 121.65 133.15L122.129 132.968L121.234 131.499C120.296 129.96 119.124 128.586 118.75 128.586C118.603 128.586 118.528 129.074 118.525 130.057ZM62.5202 130.126C61.6627 131.371 60.419 134.007 60.5001 134.407C60.5437 134.622 60.7923 134.494 61.4451 133.92C61.9325 133.492 62.3822 133.142 62.4446 133.142C62.5073 133.142 62.5583 133.612 62.5583 134.186C62.5583 135.173 62.5842 135.23 63.0342 135.23C63.4841 135.23 63.5102 135.173 63.5102 134.188C63.5102 133.204 63.5631 133.087 64.4621 132.098C65.2775 131.2 65.6573 130.484 65.3182 130.484C65.2655 130.484 64.8158 130.737 64.3187 131.046L63.415 131.608L63.3198 130.356L63.2246 129.104L62.5202 130.126ZM115.402 131.615C115.473 132.236 115.473 132.896 115.402 133.079C115.298 133.351 115.166 133.249 114.697 132.529L114.12 131.645L112.184 132.329C111.119 132.706 110.221 133.034 110.188 133.058C110.155 133.083 110.189 133.423 110.262 133.814L110.396 134.525L110.717 134.1C111.036 133.678 111.041 133.684 111.617 134.975C111.935 135.689 112.31 136.594 112.45 136.986C112.715 137.726 112.78 137.773 113.279 137.582C113.759 137.399 113.641 136.289 113.009 135.04C112.695 134.419 112.437 133.815 112.437 133.697C112.437 133.578 112.642 133.239 112.891 132.943L113.345 132.406L114.312 134.387C115.148 136.102 115.341 136.369 115.745 136.369H116.211L115.939 135.182C115.789 134.53 115.622 133.873 115.567 133.722C115.456 133.417 115.387 133.367 117.081 134.814C117.593 135.252 118.084 135.609 118.172 135.609C118.398 135.609 117.432 133.017 116.864 132.104C116.301 131.198 115.674 130.484 115.441 130.484C115.349 130.484 115.332 130.993 115.402 131.615ZM65.3521 133.093C64.6768 134.497 64.4615 135.163 64.4617 135.847C64.4619 136.343 64.5262 136.747 64.6048 136.745C64.7733 136.742 65.8157 134.861 66.5654 133.207L67.0952 132.039L66.6689 131.64L66.2427 131.24L65.3521 133.093ZM69.1439 133.2C68.9563 133.337 68.7342 133.824 68.65 134.283C68.5074 135.061 68.5417 135.17 69.1507 135.879C69.5105 136.298 69.7795 136.771 69.7489 136.93C69.6503 137.44 69.1298 137.346 68.7791 136.754C68.5301 136.333 68.2965 136.179 67.9098 136.179C67.1889 136.179 67.0954 136.326 67.4194 136.951C67.8257 137.734 68.4332 138.078 69.4068 138.075C71.366 138.069 71.5537 137.644 70.459 135.692C70.0925 135.038 69.7959 134.304 69.7999 134.06C69.8064 133.669 69.9063 133.728 70.6448 134.564C71.5224 135.557 71.6249 135.541 71.7374 134.387C71.7836 133.911 71.6797 133.765 71.0301 133.393C70.162 132.897 69.6337 132.843 69.1439 133.2ZM108.249 133.783C107.422 134.316 106.083 134.85 105.574 134.85C105.04 134.85 104.944 135.241 105.165 136.509C105.27 137.11 105.329 137.631 105.296 137.665C105.094 137.877 104.247 136.981 103.973 136.267C103.637 135.389 103.395 135.282 102.422 135.581L102.02 135.704L102.554 137.861C103.039 139.822 103.467 140.735 103.9 140.735C103.988 140.735 104.065 140.201 104.071 139.548C104.081 138.375 104.084 138.367 104.404 138.829C104.582 139.085 104.937 139.544 105.192 139.849C105.618 140.355 105.669 140.372 105.798 140.047C105.875 139.851 105.949 139.306 105.962 138.837L105.986 137.982L106.404 138.535C106.633 138.839 107.013 139.309 107.246 139.579L107.672 140.07L107.562 139.406C107.502 139.041 107.288 138.118 107.087 137.356C106.795 136.246 106.767 135.888 106.947 135.553C107.153 135.17 107.206 135.246 107.582 136.464C107.924 137.572 108.492 138.909 108.739 139.19C108.772 139.227 109.404 139.021 110.143 138.732C110.883 138.443 111.463 138.181 111.432 138.15C111.4 138.119 110.741 137.896 109.966 137.654L108.558 137.214L109.546 136.582C110.089 136.234 110.534 135.873 110.534 135.78C110.534 135.686 110.17 135.603 109.725 135.596C108.204 135.571 108.098 135.38 109.217 134.687L110.219 134.066L109.662 133.7C108.992 133.259 109.07 133.254 108.249 133.783ZM73.8723 134.453C73.1199 134.915 72.8448 135.252 71.7225 137.081L70.7617 138.647H71.9746C73.173 138.647 73.1951 138.656 73.8222 139.448L74.4569 140.249L74.5748 138.831C74.7549 136.665 74.7606 134.314 74.5862 134.207C74.5003 134.154 74.179 134.265 73.8723 134.453ZM75.9813 134.921C75.5071 135.637 75.3917 137.356 75.698 139.142C75.921 140.442 75.9716 140.544 76.3407 140.432C77.0434 140.219 77.3863 139.769 78.0144 138.238C78.3515 137.415 78.717 136.774 78.8267 136.811C79.0475 136.888 79.0485 137.106 78.837 139.327L78.691 140.862L79.7635 141.077C80.3533 141.195 80.9685 141.241 81.1303 141.179C81.6104 140.996 81.3547 140.477 80.6905 140.287C80.1976 140.146 80.0731 140.011 80.0729 139.616C80.0729 139.138 80.1059 139.123 81.0724 139.185L82.0721 139.249L81.0574 138.215C80.0876 137.226 80.0623 137.175 80.4862 137.062C80.7303 136.997 81.2081 136.942 81.5485 136.941C83.0792 136.934 81.6919 136.112 79.7875 135.897C79.1593 135.826 78.504 135.729 78.3315 135.682C78.0915 135.616 77.8904 135.921 77.4748 136.979L76.9319 138.362L76.7784 137.033C76.6941 136.302 76.5614 135.405 76.4837 135.04L76.3423 134.376L75.9813 134.921ZM99.0186 136.248C98.4898 136.634 98.4167 138.435 98.8709 139.881L99.2288 141.02L100.455 140.959C101.947 140.886 102.157 140.671 102.157 139.214C102.157 137.687 101.695 136.252 101.157 136.109C100.419 135.911 99.3884 135.979 99.0186 136.248ZM73.1378 136.668C72.9889 137.259 73.0858 137.41 73.5102 137.247C73.6939 137.177 73.7929 136.964 73.7563 136.717C73.6673 136.113 73.2852 136.082 73.1378 136.668ZM87.8944 137.137C87.6287 138.373 87.6311 140.997 87.899 141.958C88.1486 142.855 88.2999 142.665 88.6491 141.02C88.782 140.393 88.9592 139.803 89.043 139.708C89.3586 139.351 89.7643 140.018 89.8207 140.988C89.8736 141.9 89.9142 141.973 90.4012 142.029L90.9247 142.089L90.9057 139.656C90.887 137.247 90.7387 136.091 90.4986 136.478C90.4303 136.588 90.1923 137.164 89.9698 137.757C89.6216 138.685 89.5176 138.81 89.2252 138.654C89.0308 138.55 88.7468 137.981 88.5625 137.326C88.3849 136.695 88.2084 136.179 88.1701 136.179C88.1318 136.179 88.0077 136.61 87.8944 137.137ZM83.0716 136.574C82.5338 136.886 82.6868 137.266 83.4047 137.4C83.7712 137.469 84.0711 137.575 84.0711 137.636C84.0711 137.697 83.7786 138.153 83.4213 138.649C82.0532 140.548 81.8328 141.403 82.6583 141.61C83.2235 141.751 85.2312 141.552 85.4513 141.333C85.5326 141.252 85.1372 141.04 84.5725 140.863L83.5458 140.54L84.7835 138.695L86.0209 136.849L84.9032 136.617C83.5376 136.334 83.4868 136.333 83.0716 136.574ZM99.8858 138.125C99.8932 139.09 99.9589 140.031 100.032 140.214C100.153 140.521 100.199 140.524 100.589 140.251C101.171 139.845 101.153 138.666 100.546 137.365C100.29 136.817 100.034 136.369 99.9764 136.369C99.9193 136.369 99.8786 137.159 99.8858 138.125ZM95.4955 138.125C95.4963 138.986 95.5511 140.139 95.6171 140.687C95.7354 141.668 95.7474 141.684 96.3769 141.684C97.1316 141.684 97.1428 141.609 96.7333 139.318C96.5848 138.487 96.4807 137.792 96.502 137.775C96.5234 137.758 96.9905 137.518 97.5404 137.243C98.0902 136.967 98.5398 136.701 98.5398 136.65C98.5398 136.6 97.8545 136.559 97.0168 136.559H95.4938L95.4955 138.125ZM91.9963 137.153L91.2594 137.54L91.3426 139.121C91.4142 140.48 91.4993 140.798 91.9465 141.383C92.4013 141.978 92.5703 142.064 93.2846 142.064C94.5345 142.064 94.8126 141.639 94.8928 139.612C94.9543 138.049 94.9299 137.925 94.4475 137.353C93.8356 136.628 93.1068 136.569 91.9963 137.153ZM92.7569 137.939C92.6945 138.172 92.6421 138.939 92.6408 139.643L92.6381 140.925H93.3044C93.9616 140.925 93.9708 140.914 93.9696 140.118C93.9683 138.992 93.638 137.926 93.222 137.704C92.937 137.552 92.849 137.597 92.7569 137.939ZM118.729 159.388C118.367 159.507 117.76 159.916 117.379 160.296C116.085 161.586 116.018 163.555 117.23 164.684C119.165 166.486 122.616 164.643 122.574 161.83C122.546 159.994 120.612 158.765 118.729 159.388ZM108.73 161.474C108.613 161.825 107.108 168.518 105.687 174.999C105.001 178.131 104.387 180.886 104.323 181.121L104.207 181.548H106.996C109.06 181.548 109.803 181.486 109.858 181.311C109.899 181.18 110.89 176.724 112.06 171.408C113.23 166.092 114.231 161.629 114.285 161.489C114.363 161.286 113.839 161.236 111.595 161.236C109.535 161.236 108.788 161.298 108.73 161.474ZM91.0199 166.015C90.7058 166.133 89.9974 166.515 89.4456 166.865C88.8937 167.215 88.4071 167.501 88.3641 167.501C88.3211 167.501 88.3656 167.223 88.4631 166.885C88.5604 166.546 88.6402 166.202 88.6402 166.121C88.6402 166.039 87.3366 165.996 85.7433 166.025L82.8465 166.077L81.1859 173.48C80.2726 177.552 79.5201 181.035 79.5136 181.221C79.5029 181.532 79.727 181.554 82.39 181.505L85.2781 181.453L86.2684 176.977C86.8131 174.516 87.361 172.312 87.4857 172.079C88.0603 171.009 89.9003 170.595 91.2485 171.233C91.889 171.536 91.9105 171.579 91.7928 172.325C91.6596 173.167 90.0276 180.673 89.8597 181.216C89.7647 181.522 89.9846 181.548 92.6998 181.548C95.5935 181.548 95.6448 181.541 95.7491 181.121C96.8695 176.619 98.1758 170.102 98.1075 169.356C97.9999 168.179 97.2634 167.091 96.1226 166.425C95.331 165.962 94.9969 165.891 93.4055 165.849C92.3959 165.822 91.3376 165.896 91.0199 166.015ZM25.506 168.212C25.6507 170.747 26.1449 178.104 26.3094 180.172L26.4189 181.548H29.5321H32.6456L34.8203 177.355L36.995 173.162L37.1195 174.46C37.2223 175.534 37.6061 180.908 37.6158 181.41C37.6173 181.491 39.0535 181.534 40.8075 181.505L43.9963 181.453L47.8397 173.955C49.9535 169.831 51.6884 166.35 51.6949 166.219C51.7038 166.039 50.9842 165.982 48.6974 165.982H45.6882L43.8151 170.067C42.785 172.314 41.9189 174.13 41.891 174.101C41.8628 174.073 41.7044 172.683 41.5389 171.012C41.3735 169.342 41.1885 167.524 41.1275 166.973L41.0167 165.972L38.4304 166.024L35.844 166.077L34.7137 168.165C34.0921 169.314 33.0993 171.107 32.5074 172.151L31.4314 174.05L31.3074 172.436C31.2393 171.549 31.1751 169.734 31.1646 168.402L31.1458 165.982H28.2621H25.3785L25.506 168.212ZM55.5143 170.062L53.3249 174.132L53.1345 171.528L52.9441 168.924L50.6198 173.398C49.3212 175.898 48.2399 178.219 48.1695 178.658C48.1002 179.09 48.1028 179.917 48.1754 180.496L48.3073 181.548H51.4337H54.5599L56.0102 178.653C57.6136 175.453 58.764 173.335 58.8516 173.423C58.8828 173.454 59.0039 175.018 59.1202 176.897C59.2365 178.776 59.3767 180.594 59.4315 180.936L59.5312 181.557L62.6971 181.505L65.8629 181.453L69.7315 173.866C71.8592 169.693 73.6002 166.212 73.6002 166.13C73.6002 166.049 72.2411 165.982 70.5801 165.982H67.5599L65.9063 169.541C64.9968 171.499 64.1361 173.313 63.9935 173.572L63.7346 174.044L63.6253 173.382C63.5654 173.019 63.3798 171.271 63.213 169.5C63.0462 167.728 62.8684 166.212 62.818 166.13C62.7675 166.049 61.5961 165.984 60.2149 165.987L57.7036 165.992L55.5143 170.062ZM74.5521 166.116C74.5521 166.285 71.3383 180.767 71.2011 181.216C71.1074 181.522 71.329 181.548 74.0634 181.548C75.6935 181.548 77.0271 181.511 77.0271 181.466C77.0271 181.421 77.7552 178.096 78.6453 174.077C79.5353 170.058 80.2635 166.593 80.2635 166.376C80.2635 165.995 80.1715 165.982 77.4078 165.982C75.8372 165.982 74.5521 166.042 74.5521 166.116ZM127.867 166.569C125.08 167.114 122.548 169.737 121.747 172.908C121.627 173.383 121.565 174.583 121.608 175.614C121.675 177.226 121.758 177.6 122.247 178.492C123.212 180.25 125.462 181.36 127.477 181.072C127.949 181.004 128.947 180.622 129.696 180.223L131.057 179.496L130.672 180.379C130.46 180.865 130.081 181.538 129.829 181.874C128.903 183.109 126.663 183.169 124.31 182.021C123.562 181.656 122.903 181.358 122.845 181.358C122.688 181.358 120.053 184.585 120.053 184.778C120.053 185.048 121.222 185.86 122.345 186.372C123.92 187.089 125.489 187.433 127.192 187.433C130.999 187.433 133.879 185.74 135.353 182.636C136.024 181.223 136.475 179.493 138.139 171.962C138.67 169.56 139.149 167.446 139.205 167.263C139.298 166.958 139.086 166.931 136.533 166.931C135.008 166.931 133.76 167 133.76 167.085C133.76 167.169 133.647 167.392 133.509 167.58C133.271 167.905 133.211 167.898 132.275 167.425C131.349 166.957 129.348 166.337 128.913 166.383C128.804 166.394 128.333 166.478 127.867 166.569ZM145.908 166.566C144.648 166.764 142.815 167.796 141.913 168.816C140.272 170.67 139.394 173.132 139.403 175.853C139.41 178.086 139.852 179.243 141.168 180.47C142.771 181.965 144.888 182.255 147.044 181.275L148.239 180.732L148.675 181.14C149.072 181.513 149.317 181.548 151.512 181.548H153.913L154.123 180.551C154.239 180.003 154.957 176.736 155.719 173.29L157.105 167.026L154.43 166.973C152.958 166.944 151.729 166.996 151.698 167.089C151.667 167.181 151.536 167.402 151.406 167.579C151.187 167.878 151.108 167.868 150.318 167.437C148.808 166.615 147.387 166.335 145.908 166.566ZM115.585 167.358C115.532 167.593 114.853 170.647 114.076 174.145C113.299 177.642 112.603 180.741 112.529 181.031L112.394 181.558L115.211 181.506L118.028 181.453L119.502 174.809C120.313 171.155 121.03 167.888 121.094 167.548L121.212 166.931H118.447C115.734 166.931 115.679 166.939 115.585 167.358ZM128.68 171.657C127.744 172.091 127.287 172.847 127.287 173.958C127.287 175.033 127.559 175.447 128.554 175.886C130.184 176.605 131.665 175.963 132.021 174.383C132.443 172.512 132.402 172.225 131.666 171.846C130.598 171.297 129.594 171.233 128.68 171.657ZM147.177 171.493C146.111 171.813 144.992 173.389 144.992 174.571C144.992 175.364 145.584 176.184 146.525 176.694L147.468 177.206L148.461 176.672C149.377 176.179 149.48 176.053 149.788 175.04C149.971 174.436 150.177 173.523 150.245 173.011L150.369 172.081L149.675 171.792C148.714 171.391 147.856 171.289 147.177 171.493ZM122.718 194.846C122.718 195.786 123.584 202.057 123.728 202.16C123.911 202.291 125.381 202.396 125.451 202.283C125.602 202.04 126.755 194.053 126.655 193.952C126.603 193.901 126.306 193.99 125.995 194.151C125.39 194.463 125.45 194.235 124.875 198.421C124.723 199.528 124.533 199.125 124.258 197.114C123.92 194.643 123.871 194.49 123.275 194.066L122.718 193.671V194.846ZM45.4962 194.164C44.3822 194.639 44.2819 194.979 44.2819 198.285C44.2819 201.118 44.3038 201.294 44.7165 201.773C45.0311 202.137 45.3918 202.304 46.022 202.374C46.7932 202.461 46.9664 202.406 47.5387 201.897L48.1847 201.322V198.506C48.1847 196.957 48.1215 195.466 48.0442 195.191C47.7845 194.27 46.481 193.744 45.4962 194.164ZM51.747 194.101C50.6817 194.407 50.0967 195.795 50.5423 196.959C50.6349 197.201 51.1917 197.936 51.7798 198.592C52.6344 199.546 52.849 199.915 52.849 200.432C52.849 200.787 52.764 201.13 52.6601 201.194C52.4646 201.315 51.7747 200.689 51.3931 200.045C51.217 199.748 51.1066 199.717 50.822 199.886C50.3476 200.167 50.2861 200.76 50.6571 201.475C51.4664 203.035 53.9711 202.525 54.2738 200.739C54.4346 199.789 54.2077 199.288 52.94 197.798C51.8773 196.549 51.8592 196.508 51.9884 195.65L52.12 194.774L52.7058 195.672C53.2192 196.459 53.3521 196.555 53.7837 196.447C54.4287 196.285 54.4396 196.269 54.2884 195.669C54.1399 195.079 53.0121 193.878 52.63 193.904C52.4888 193.913 52.0913 194.002 51.747 194.101ZM59.7005 194.504C59.4134 194.973 59.3188 195.483 59.3045 196.639L59.2857 198.158L58.7699 196.165L58.2542 194.172H57.503H56.7517L56.5979 195.69C56.4433 197.215 56.5594 201.583 56.7757 202.382C57.1414 203.733 57.7973 201.794 57.8045 199.341C57.8079 198.214 57.8763 197.518 57.9673 197.683C58.0537 197.84 58.3638 198.853 58.6565 199.934C59.1223 201.654 59.2607 201.943 59.7654 202.249C60.0826 202.442 60.4123 202.556 60.4982 202.503C60.6766 202.393 60.7093 194.965 60.5345 194.314C60.3763 193.726 60.1439 193.779 59.7005 194.504ZM72.458 198.158C72.458 202.75 72.4574 202.747 73.4224 202.233C73.768 202.048 73.7906 201.798 73.7906 198.17V194.304L73.1911 194.095C72.8614 193.981 72.5615 193.887 72.5248 193.887C72.488 193.887 72.458 195.809 72.458 198.158ZM82.5463 194.788C82.5435 196.376 82.3222 197.683 82.0563 197.683C81.5249 197.683 81.2154 196.864 81.2154 195.458V194.077H80.5491H79.8827V198.072V202.068L80.5015 202.327L81.1202 202.587L81.1743 200.61L81.2283 198.632H81.8817H82.5351L82.5892 200.592L82.6432 202.553L83.262 202.301L83.8807 202.048V198.274V194.5L83.4114 194.193C82.6866 193.72 82.5482 193.815 82.5463 194.788ZM99.7307 194.099C98.5992 194.425 98.4447 194.924 98.4447 198.253C98.4447 201.668 98.5964 202.126 99.8047 202.352C101.213 202.615 102.056 201.879 102.27 200.199C102.388 199.269 102.369 199.202 101.991 199.202C101.408 199.202 100.824 199.867 100.824 200.531C100.824 201.012 100.75 201.1 100.348 201.1C99.8883 201.1 99.8712 201.055 99.8319 199.724C99.7733 197.733 99.8837 195.524 100.051 195.349C100.13 195.266 100.44 195.522 100.74 195.919C101.911 197.467 102.441 197.537 102.248 196.117C102.071 194.811 101.877 194.479 101.101 194.155C100.746 194.008 100.432 193.895 100.402 193.904C100.373 193.913 100.07 194.001 99.7307 194.099ZM111.464 194.187C110.516 194.586 110.311 195.154 110.2 197.693C110.036 201.433 110.62 202.611 112.513 202.365C113.792 202.198 114.046 201.759 114.121 199.577L114.187 197.683H113.14H112.093L112.456 198.635C112.655 199.158 112.818 199.832 112.818 200.132C112.818 200.695 112.187 201.671 111.965 201.451C111.896 201.383 111.796 200.23 111.741 198.888C111.666 197.041 111.708 196.266 111.915 195.691L112.189 194.933L112.527 195.596C112.995 196.517 113.387 196.924 113.806 196.924C114.294 196.924 114.404 196.533 114.166 195.65C113.792 194.266 112.692 193.671 111.464 194.187ZM117.673 194.152C116.7 194.593 116.545 195.063 116.469 197.787C116.386 200.767 116.589 201.733 117.385 202.143C118.512 202.724 119.858 202.309 120.222 201.268C120.481 200.529 120.503 195.803 120.252 195.143C119.899 194.22 118.614 193.725 117.673 194.152ZM135.756 194.124C135.709 194.255 135.648 195.13 135.62 196.07L135.568 197.778L134.98 195.975L134.392 194.172L133.6 194.113L132.808 194.055V198.262C132.808 202.021 132.84 202.457 133.109 202.354C133.275 202.291 133.532 202.239 133.68 202.239C133.898 202.239 133.95 201.814 133.95 200.056C133.95 198.856 134.025 197.873 134.118 197.873C134.21 197.873 134.521 198.749 134.81 199.819C135.38 201.934 135.507 202.153 136.263 202.337L136.766 202.46L136.906 200.238C137.091 197.277 136.891 194.442 136.474 194.124C136.302 193.994 136.09 193.887 136.002 193.887C135.914 193.887 135.803 193.994 135.756 194.124ZM37.9994 198.247V202.468L39.3797 202.331C40.1389 202.256 40.9916 202.077 41.2749 201.932C41.941 201.592 42.1263 200.656 41.8533 199.012C41.7339 198.293 41.7109 197.388 41.798 196.842C41.9821 195.688 41.7619 194.826 41.1921 194.472C40.9545 194.325 40.1389 194.164 39.3797 194.115L37.9994 194.027V198.247ZM63.1732 198.203C63.2324 202.952 63.0234 202.555 65.3481 202.338C66.7359 202.208 66.7466 202.203 66.7466 201.654C66.7466 201.104 66.7392 201.1 65.6043 201.1H64.4621V199.982C64.4621 198.728 64.5592 198.632 65.8307 198.632C66.4511 198.632 66.5751 198.575 66.4814 198.332C66.4178 198.167 66.3658 197.998 66.3658 197.957C66.3658 197.798 65.2217 197.304 64.8523 197.304C64.535 197.304 64.4621 197.182 64.4621 196.655C64.4621 195.614 64.617 195.405 65.3919 195.405C66.221 195.405 66.937 194.96 66.937 194.445C66.937 194.105 66.7915 194.077 65.0294 194.077H63.122L63.1732 198.203ZM86.3556 198.147C86.3556 200.385 86.4198 202.252 86.4984 202.294C86.7339 202.422 90.3536 202.205 90.3536 202.063C90.3536 201.581 89.7377 201.201 88.8035 201.107L87.7834 201.005L87.7248 199.979C87.657 198.789 87.7958 198.64 88.9733 198.635C89.5502 198.633 89.7824 198.554 89.7824 198.359C89.7824 197.99 89.0803 197.522 88.3135 197.378C87.7081 197.265 87.6883 197.232 87.6883 196.333C87.6883 195.415 87.6947 195.405 88.307 195.394C88.6474 195.389 89.2684 195.322 89.6872 195.247L90.4487 195.111L89.9338 194.594C89.4584 194.116 89.3017 194.077 87.8872 194.077H86.3556V198.147ZM92.1932 196.353C92.0548 198.918 92.2273 202.619 92.4852 202.619C92.5789 202.619 92.8702 202.405 93.1327 202.143C93.5662 201.711 93.6064 201.536 93.5721 200.241C93.5512 199.457 93.5919 198.757 93.6625 198.687C93.9951 198.355 94.5223 199.358 94.6712 200.606C94.8042 201.72 94.9057 201.973 95.3516 202.304C95.6785 202.547 95.9412 202.626 96.0499 202.514C96.1553 202.405 96.1363 201.51 96.0017 200.246C95.8795 199.098 95.8321 197.608 95.8964 196.937C95.9608 196.265 95.9564 195.496 95.8867 195.228C95.7095 194.547 94.6875 194.077 93.3813 194.077L92.3158 194.077L92.1932 196.353ZM104.593 198.11C104.547 200.329 104.528 202.17 104.55 202.202C104.571 202.234 105.391 202.276 106.371 202.297L108.154 202.334L108.214 201.717L108.273 201.1H107.119H105.965V199.866V198.632H106.821C107.646 198.632 107.678 198.611 107.678 198.063C107.678 197.515 107.646 197.494 106.821 197.494H105.965V196.449V195.405H106.735C107.299 195.405 107.63 195.281 107.972 194.939C108.229 194.683 108.44 194.384 108.44 194.275C108.44 194.15 107.74 194.077 106.557 194.077H104.675L104.593 198.11ZM128.934 194.778C128.868 195.176 128.813 197.016 128.812 198.87L128.81 202.239H129.575H130.341L130.289 198.205L130.238 194.172L129.646 194.114C129.094 194.06 129.045 194.106 128.934 194.778ZM139.366 194.319C139.315 194.452 139.296 196.31 139.324 198.448L139.376 202.334L139.946 202.399C140.26 202.434 141.053 202.406 141.707 202.336C142.867 202.212 142.898 202.195 142.898 201.655C142.898 201.111 142.879 201.1 141.875 201.1H140.851L140.756 200.009C140.704 199.409 140.698 198.853 140.744 198.775C140.789 198.697 141.207 198.632 141.672 198.632C142.484 198.632 142.517 198.61 142.517 198.063C142.517 197.515 142.486 197.494 141.661 197.494H140.804V196.471V195.45L142.041 195.318C142.722 195.245 143.279 195.107 143.279 195.011C143.279 194.915 143.107 194.665 142.898 194.456C142.581 194.14 142.264 194.077 140.988 194.077C139.923 194.077 139.431 194.15 139.366 194.319ZM118.097 195.149C117.902 195.469 117.726 199.028 117.855 200.053C117.981 201.065 118.005 201.1 118.565 201.1H119.144L119.071 198.444C119.005 196.05 118.958 195.748 118.596 195.388C118.376 195.168 118.151 195.06 118.097 195.149ZM39.4591 195.532C39.2045 195.786 39.3338 197.069 39.6395 197.322C39.903 197.54 39.998 197.513 40.3059 197.134C40.7125 196.633 40.7519 196.302 40.4677 195.773C40.275 195.414 39.7121 195.28 39.4591 195.532ZM45.6146 198.127C45.6146 200.836 45.6169 200.85 46.0837 201.063C46.3418 201.18 46.5905 201.215 46.6363 201.141C46.734 200.982 46.8063 198.746 46.7772 196.782L46.7568 195.405H46.1857H45.6146V198.127ZM93.5967 195.773C93.2934 196.338 93.3619 197.021 93.7577 197.378C94.0878 197.676 94.14 197.677 94.424 197.394C94.9602 196.859 94.6984 195.405 94.0659 195.405C93.9163 195.405 93.7052 195.571 93.5967 195.773ZM39.3431 199.324C39.349 199.727 39.4139 200.392 39.487 200.803L39.6199 201.55L40.1423 200.931C40.7986 200.153 40.8977 198.822 40.2996 198.822C40.0987 198.822 39.7989 198.77 39.6333 198.707C39.3898 198.614 39.3342 198.732 39.3431 199.324Z" fill="#002C6D"/>
</svg>
