<svg width="53" height="53" viewBox="0 0 53 53" fill="none" xmlns="http://www.w3.org/2000/svg">
   <path fill-rule="evenodd" clip-rule="evenodd" d="M24.7568 0.0232648C20.6157 0.274844 16.4642 1.5728 12.8401 3.74897C10.04 5.43032 7.52221 7.66212 5.54904 10.2118C2.65402 13.9528 0.793007 18.416 0.216424 23.0009C-0.0554135 25.1627 -0.0713176 27.3369 0.169537 29.416C0.728245 34.2389 2.6175 38.8231 5.63493 42.6774C9.75168 47.9358 15.7988 51.4805 22.3734 52.4891C23.7036 52.6931 24.4114 52.7513 25.8797 52.7773C27.333 52.8032 28.3178 52.7617 29.4547 52.6271C37.6007 51.6621 44.829 46.9877 49.05 39.9551C51.2065 36.3622 52.4664 32.362 52.7593 28.1785C52.8193 27.3215 52.8196 25.4028 52.7597 24.5806C52.3422 18.8428 50.1506 13.532 46.3857 9.13475C45.7808 8.42827 44.3695 7.01697 43.663 6.41207C39.2513 2.63471 33.9901 0.466519 28.1943 0.0370606C27.6307 -0.0046936 25.3666 -0.0137685 24.7568 0.0232648ZM24.8943 0.339881C19.1156 0.747523 14.0691 2.76538 9.6547 6.43356C8.88754 7.07101 7.08652 8.87208 6.44939 9.63892C3.29532 13.4352 1.31817 17.8027 0.608574 22.541C0.392607 23.9832 0.351449 24.5974 0.352091 26.3681C0.352732 28.1808 0.395541 28.7906 0.630391 30.3327C1.37935 35.2499 3.5524 39.8684 6.90199 43.6618C7.54884 44.3944 8.93351 45.7441 9.6547 46.345C13.4381 49.4977 17.8157 51.4782 22.5797 52.1924C23.9859 52.4033 24.579 52.4432 26.2693 52.4412C29.397 52.4373 31.8056 52.0599 34.5651 51.1414C37.7684 50.0752 40.4978 48.5524 43.1605 46.3457C43.9256 45.7118 45.7277 43.9096 46.3618 43.1444C49.5353 39.315 51.4921 34.9886 52.2083 30.2181C52.4195 28.8113 52.4613 28.1795 52.4613 26.391C52.4613 24.5965 52.42 23.9772 52.205 22.541C51.4952 17.801 49.5269 13.4539 46.3632 9.63892C45.7271 8.8718 43.9253 7.07 43.1605 6.43626C38.9487 2.94587 34.133 0.937777 28.7443 0.424856C28.0304 0.356886 25.458 0.300144 24.8943 0.339881ZM25.4672 0.985307C21.2152 1.14027 16.8086 2.46389 13.2611 4.65156C11.3865 5.80771 10.0052 6.89877 8.45987 8.44409C6.62108 10.2829 5.24998 12.113 4.02554 14.3627C0.758403 20.366 0.0950573 27.6112 2.2121 34.1694C3.22634 37.3114 4.84133 40.2109 7.01878 42.7993C7.71178 43.6231 9.26608 45.1685 10.0901 45.8531C14.2662 49.3223 19.1012 51.2972 24.5047 51.7408C25.3714 51.8119 27.4592 51.8117 28.3318 51.7403C33.255 51.3377 37.7453 49.6373 41.678 46.686C42.9753 45.7126 44.6365 44.1545 45.7001 42.9139C48.8109 39.2852 50.8448 34.8385 51.5476 30.1299C51.9068 27.7231 51.9068 25.0589 51.5476 22.6521C50.8432 17.9328 48.8318 13.5354 45.7001 9.86808C45.1092 9.17609 43.6 7.66726 42.9068 7.0755C38.5687 3.37199 33.2818 1.28309 27.5297 0.999882C26.6591 0.957027 26.3106 0.954552 25.4672 0.985307ZM25.7369 2.02348C25.2577 2.14599 24.7849 2.54249 24.6732 2.91549C24.591 3.1898 24.6085 3.56059 24.7147 3.79517C24.8913 4.18544 25.2065 4.42304 25.9026 4.6907C26.3728 4.87147 26.4984 4.95452 26.4984 5.08441C26.4984 5.1846 26.2779 5.30785 26.0997 5.30721C25.8534 5.30634 25.5215 5.10545 25.2437 4.78897C25.0976 4.6225 24.9385 4.47377 24.8903 4.45847C24.633 4.37684 24.5058 4.61416 24.5696 5.05668C24.6471 5.59426 24.7979 5.79849 25.2292 5.95011C26.1525 6.27461 27.2547 6.10081 27.7337 5.55526C27.9891 5.26444 28.074 5.04412 28.077 4.6649C28.0822 4.00229 27.7967 3.68723 26.9536 3.42529C26.4174 3.25869 26.2005 3.12751 26.2005 2.96971C26.2005 2.82405 26.3767 2.73353 26.5901 2.76946C26.7681 2.79948 26.9709 2.91888 27.2705 3.16995C27.6288 3.47025 28.0109 3.32767 28.0109 2.89362C28.0109 2.72482 27.8045 2.32149 27.635 2.15933C27.5107 2.04044 27.4718 2.03035 27.1255 2.02728C26.9192 2.02549 26.5752 2.01042 26.3609 1.99378C26.097 1.97329 25.8957 1.98287 25.7369 2.02348ZM29.5807 2.30517C29.3828 2.3912 29.3629 2.58947 29.5339 2.77368C29.6147 2.86081 29.6245 2.91585 29.6037 3.16326C29.5749 3.50513 29.3755 4.40979 29.2206 4.9014C29.1262 5.20097 29.0807 5.27563 28.9044 5.42009C28.649 5.62928 28.6283 5.79052 28.8345 5.964C29.059 6.15288 29.8169 6.35945 30.2912 6.36105C30.6841 6.36234 30.8191 6.1433 30.6233 5.82219C30.5205 5.65366 30.5078 5.48192 30.5821 5.26866C30.6752 5.00164 30.7265 5.06214 31.1734 5.96514L31.5172 6.65975L32.0214 6.78574C32.2987 6.85504 32.6498 6.92462 32.8017 6.94034C33.1186 6.9732 33.1774 6.9342 33.2216 6.66154C33.2439 6.52422 33.2281 6.47284 33.1324 6.371C32.8696 6.09123 32.09 4.71128 31.9532 4.2837C31.8988 4.11357 31.9021 4.10229 32.0502 3.94944C32.1346 3.86245 32.3128 3.73778 32.4464 3.67247C32.6652 3.5654 32.7222 3.55665 33.0231 3.58392C33.3099 3.60991 33.367 3.60267 33.4271 3.53282C33.6014 3.33 33.5482 3.13081 33.2831 2.99377C33.0613 2.87905 32.4096 2.74169 32.0858 2.74132C31.7137 2.74091 31.6318 2.80947 31.6318 3.12105C31.6318 3.31722 31.6134 3.35113 31.3912 3.56554C31.0319 3.91213 30.8162 3.93473 30.8753 3.61962C30.9245 3.35778 31.0298 3.19727 31.1986 3.12669C31.386 3.04836 31.4494 2.87373 31.3524 2.7025C31.1708 2.38194 30.0054 2.12055 29.5807 2.30517ZM21.1411 2.58054C20.428 2.74036 20.1734 2.89715 20.1734 3.17664C20.1734 3.34279 20.2656 3.4285 20.4443 3.4285C20.619 3.4285 20.7014 3.71189 20.91 5.0301C21.0227 5.74221 21.0097 5.89516 20.8176 6.11397C20.7406 6.20164 20.6776 6.29427 20.6776 6.31985C20.6776 6.43054 20.8254 6.63766 20.9215 6.66181C20.9791 6.67625 21.4995 6.60452 22.078 6.5024C22.6564 6.40024 23.2638 6.30981 23.4276 6.30142C23.8046 6.28217 23.9014 6.22873 24.0007 5.98504C24.1041 5.73135 24.1441 5.2132 24.0734 5.04261C24.0222 4.91904 23.8147 4.75767 23.707 4.75767C23.6221 4.75767 23.4734 4.93559 23.4734 5.0372C23.4734 5.33379 23.1797 5.60522 22.8317 5.63029C22.574 5.64885 22.5171 5.63404 22.4639 5.53449C22.4129 5.43921 22.2449 4.55999 22.119 3.72949L22.05 3.27422L22.2347 3.08608C22.4414 2.87543 22.4651 2.75085 22.3228 2.62206C22.1977 2.50872 21.5613 2.48635 21.1411 2.58054ZM34.9964 3.85589C34.8752 3.96021 34.8678 3.98249 34.916 4.1006C35.0982 4.54775 35.115 4.4383 34.7302 5.31051C34.2989 6.28818 34.1262 6.58568 33.9699 6.62001C33.7433 6.66983 33.6939 6.68959 33.6258 6.75769C33.4095 6.97403 33.6791 7.30751 34.3087 7.60236C34.8573 7.85925 35.2107 7.94863 35.3879 7.87525C35.5664 7.80127 35.6107 7.64191 35.5109 7.43254C35.4697 7.3461 35.4359 7.2356 35.4359 7.18697C35.4359 7.05332 35.5872 6.69481 36.0103 5.82567C36.3908 5.04389 36.3955 5.03697 36.5775 4.98798C36.9165 4.89672 36.9963 4.69272 36.7893 4.44669C36.5888 4.20844 35.795 3.84086 35.3304 3.77119C35.1578 3.74534 35.1111 3.75717 34.9964 3.85589ZM16.713 4.06719C16.2528 4.17925 16.1631 4.33751 16.2298 4.91996C16.2557 5.14578 16.277 5.91253 16.2772 6.62377L16.2776 7.91696L16.1401 8.07357C15.9863 8.24874 15.9637 8.42474 16.0802 8.54116C16.3306 8.79155 17.6068 8.21795 17.6068 7.85499C17.6068 7.70718 17.4664 7.59933 17.274 7.59933C17.1478 7.59933 17.1017 7.57719 17.079 7.50547C17.035 7.36677 17.1286 7.28276 17.5455 7.08692C18.1917 6.78336 18.5466 6.80949 18.3005 7.14247C18.0338 7.50313 18.3678 7.70961 18.9229 7.52733C19.6175 7.29926 20.4026 6.80403 20.4026 6.59389C20.4026 6.43842 20.2477 6.30124 20.0778 6.30628C19.8848 6.31201 19.7928 6.25302 19.3514 5.84043C18.8576 5.37884 17.9921 4.622 17.7214 4.41502C17.4558 4.21202 17.0745 4.02332 16.9422 4.02947C16.8918 4.0318 16.7887 4.04876 16.713 4.06719ZM17.0415 5.65907C16.9958 5.70477 17.0046 6.4535 17.0509 6.4535C17.1513 6.4535 17.7452 6.15833 17.7309 6.11548C17.7122 6.05951 17.1606 5.6285 17.1077 5.6285C17.0881 5.6285 17.0583 5.64225 17.0415 5.65907ZM39.4995 6.1246C39.4454 6.18437 39.4267 6.27906 39.4339 6.45689C39.4459 6.75068 39.3527 6.91522 38.7359 7.68862C38.2184 8.33771 37.9916 8.55166 37.7823 8.58828C37.4076 8.65396 37.3145 8.83711 37.5019 9.14034C37.623 9.33623 38.2726 9.85855 38.5872 10.0129C38.8006 10.1176 38.8437 10.1246 38.9659 10.074C39.1204 10.01 39.1728 9.87546 39.1346 9.6402C39.094 9.38986 39.4176 8.95692 39.5222 9.12173C39.5428 9.15409 39.5598 9.5384 39.5603 9.97574L39.5609 10.7709L39.707 10.9073C40.0283 11.2074 40.761 11.7243 40.8651 11.7243C40.93 11.7243 41.0213 11.6677 41.0923 11.5833C41.2318 11.4175 41.2273 11.4615 41.1456 11.0597C41.0086 10.386 40.9345 8.96709 41.0241 8.73146C41.0804 8.58347 41.1608 8.5567 41.6367 8.52764C42.0325 8.50349 42.0431 8.50559 42.24 8.64704C42.566 8.88111 42.8609 8.80654 42.8609 8.49006C42.8609 8.21446 41.8505 7.416 41.5018 7.416C41.343 7.416 41.1651 7.58705 41.1651 7.73972C41.1651 7.83959 40.7313 8.01545 40.4564 8.02709C40.2244 8.03686 40.195 7.93827 40.3639 7.7168C40.49 7.55148 40.5812 7.50404 40.8023 7.48874C40.9729 7.47696 41.1193 7.33941 41.1191 7.19119C41.1188 7.00579 40.9706 6.80619 40.6302 6.5327C40.0779 6.08894 39.6662 5.94035 39.4995 6.1246ZM12.9901 6.31421C12.7057 6.38269 12.3543 6.59907 11.7859 7.05584C11.4708 7.30907 11.0843 7.60882 10.9269 7.72198C10.4632 8.05542 10.3514 8.26891 10.5476 8.44647C10.6188 8.51091 10.683 8.5226 10.8446 8.50042C11.089 8.46696 11.0899 8.46774 11.6721 9.21083C12.5392 10.3174 12.6966 10.6079 12.5635 10.8565C12.5068 10.9625 12.568 11.1023 12.7026 11.1743C12.7678 11.2093 12.833 11.205 12.9422 11.1586C13.1454 11.0724 15.0532 9.56118 15.1973 9.37226C15.6039 8.83912 15.5429 8.17362 15.0463 7.72492C14.7923 7.49547 14.5447 7.43342 14.2579 7.52724C14.1366 7.56688 14.0253 7.59933 14.0104 7.59933C13.9956 7.59933 13.9962 7.47045 14.0118 7.31287C14.0447 6.98182 14.0047 6.8511 13.7989 6.61666C13.5643 6.3495 13.2821 6.24399 12.9901 6.31421ZM24.9401 7.21791C23.6094 7.31503 21.7878 7.67693 20.4985 8.10024C19.111 8.55587 17.3679 9.37418 16.1937 10.1211C13.2375 12.0016 10.8833 14.5778 9.30453 17.6597C8.24285 19.7322 7.65339 21.6395 7.31431 24.0993C7.20174 24.9157 7.17406 27.1837 7.26509 28.1327C7.56988 31.3115 8.57505 34.1943 10.3082 36.8604C13.2232 41.3446 17.9516 44.4555 23.197 45.34C25.1251 45.6652 27.4007 45.6848 29.3172 45.393C35.3741 44.4706 40.6916 40.6223 43.509 35.1222C44.6499 32.8953 45.3063 30.656 45.5432 28.184C45.6306 27.2717 45.6306 25.5103 45.5432 24.598C45.1037 20.0105 43.0741 15.8026 39.7489 12.5848C36.5899 9.52795 32.5758 7.67386 28.2112 7.25572C27.5641 7.19375 25.5848 7.17084 24.9401 7.21791ZM12.2787 7.48805C12.2094 7.52568 12.1526 7.56574 12.1526 7.57715C12.1526 7.58856 12.2881 7.77345 12.4538 7.98804C12.7204 8.33335 12.7654 8.37263 12.8457 8.32969C12.9695 8.26341 13.0413 8.08929 13.0048 7.94377C12.9618 7.77258 12.6205 7.41559 12.502 7.41783C12.4485 7.41884 12.348 7.45042 12.2787 7.48805ZM21.3913 8.45408C20.9282 9.63997 20.2634 10.8615 19.5988 11.7472C17.8769 14.0424 15.3212 15.2643 12.0069 15.377C11.5611 15.3921 11.1744 15.4182 11.1475 15.4349C11.0527 15.4934 11.4394 18.8674 11.7887 21.0285C13.2202 29.8863 15.9648 36.2783 20.2193 40.6624C21.9909 42.488 23.8848 43.8524 26.253 45.0092L27.2042 45.4739L27.5476 45.2939C29.0361 44.5136 30.5693 43.4866 31.9526 42.3428C32.6564 41.7609 34.2538 40.1659 34.8463 39.4535C38.5766 34.9677 40.7902 29.1752 41.5984 21.7847C41.7605 20.302 41.8621 18.6317 41.9203 16.495L41.9457 15.5595L40.5586 15.5881C38.318 15.6344 36.2269 15.5497 34.5365 15.3443C30.0204 14.7956 26.4454 13.0874 23.3606 10.0043C22.7478 9.39183 22.1174 8.6958 21.707 8.17834L21.5676 8.00262L21.3913 8.45408ZM13.3276 8.74851C13.2611 8.80072 13.2068 8.86484 13.2068 8.89096C13.2068 8.94472 13.6065 9.45755 13.7479 9.58529C13.8226 9.65267 13.8596 9.65908 13.9363 9.61806C14.2247 9.46365 14.2285 9.13443 13.9451 8.83651C13.7404 8.62132 13.5278 8.59103 13.3276 8.74851ZM9.26511 9.73338C8.91935 9.82853 8.56964 10.0492 8.28754 10.3501C7.95126 10.7088 7.01167 11.8033 6.91648 11.9473C6.80432 12.1168 6.81606 12.2855 6.94856 12.41C7.05934 12.5141 7.17186 12.5203 7.39296 12.4347C7.47546 12.4028 8.11401 12.9299 8.88699 13.6679L9.31443 14.076L9.28455 14.2752C9.24371 14.5475 9.34436 14.7035 9.56092 14.7035C9.70457 14.7035 9.77611 14.6393 10.4517 13.9041C11.3774 12.8968 11.5759 12.6285 11.7015 12.2149C11.7884 11.9291 11.7941 11.855 11.7508 11.5756C11.6858 11.1553 11.5123 10.8156 11.1828 10.4634C10.5936 9.83357 9.88336 9.5632 9.26511 9.73338ZM43.7591 9.76748C43.6728 9.83059 43.6572 9.96617 43.7113 10.1814C43.7406 10.2979 43.7158 10.3382 43.4743 10.5667C43.1515 10.8723 42.4051 11.5147 42.1536 11.7036C41.9942 11.8232 41.9363 11.8389 41.6548 11.8389C41.3635 11.8389 41.3286 11.8493 41.2448 11.961C41.1846 12.0411 41.1626 12.1205 41.1806 12.1921C41.1956 12.2521 41.5313 12.6716 41.9265 13.1242C42.3218 13.5769 42.7146 14.055 42.7994 14.1866C43.0369 14.5549 43.1499 14.5869 43.6351 14.423C44.0167 14.2941 44.2818 14.0486 44.2818 13.824C44.2818 13.7212 44.2485 13.6334 44.1891 13.5797C44.1008 13.4997 44.0848 13.4994 43.8527 13.5726C43.5307 13.6741 43.5061 13.6717 43.2698 13.5149C43.0339 13.3584 42.8872 13.1374 42.9237 12.9934C42.95 12.8898 43.5875 12.3041 44.2721 11.7545C44.6056 11.4868 44.6817 11.445 44.7931 11.4681C44.8648 11.483 44.9861 11.508 45.0627 11.5235C45.2265 11.5569 45.3821 11.4445 45.3813 11.2933C45.3799 10.995 44.8406 10.2614 44.3657 9.91181C44.0778 9.69987 43.9071 9.65927 43.7591 9.76748ZM8.6922 11.0305C8.61657 11.0772 8.51574 11.1592 8.46817 11.2127C8.35752 11.3373 8.34263 11.3196 9.15053 12.0199C10.307 13.0222 10.3228 13.031 10.5041 12.7763C10.7543 12.4251 10.651 12.0143 10.2003 11.568C9.65626 11.0293 9.04617 10.8118 8.6922 11.0305ZM46.5392 13.2607C46.4759 13.3054 46.4253 13.4021 46.4078 13.5114C46.3921 13.6093 46.3353 13.7293 46.2816 13.7781C46.2279 13.827 45.8642 14.0374 45.4734 14.2457C44.6571 14.6809 44.4486 14.8217 44.3067 15.0331C43.9821 15.517 44.0385 16.2562 44.4522 16.939C44.8784 17.6427 45.2916 17.9379 45.8401 17.931C46.1782 17.9267 46.4573 17.8259 47.4104 17.3642C48.0854 17.0372 48.2392 16.9994 48.4505 17.1087C48.763 17.2703 48.9631 17.0691 48.8683 16.6887C48.7688 16.2899 48.4132 15.7636 48.1772 15.6659C47.9857 15.5865 47.8568 15.6993 47.8568 15.9463C47.8568 16.0658 47.8257 16.1497 47.7582 16.2126C47.704 16.2631 47.3276 16.474 46.9218 16.6813C46.3055 16.9959 46.148 17.0581 45.9664 17.0583C45.7882 17.0586 45.7233 17.0343 45.607 16.9238C45.4125 16.739 45.2901 16.4846 45.2901 16.2653C45.2901 15.9344 45.6138 15.6787 46.6422 15.197C47.0559 15.0033 47.0938 14.9975 47.3219 15.0928C47.623 15.2186 47.8475 15.0349 47.7895 14.7101C47.7348 14.4032 47.3942 13.7844 47.126 13.5047C46.8445 13.211 46.6965 13.1495 46.5392 13.2607ZM5.85745 13.6477C5.56297 13.9737 5.32487 14.566 5.38771 14.8164C5.42983 14.9843 5.59657 15.0087 5.82056 14.8798L6.00549 14.7733L6.52387 15.0357C7.26183 15.4093 7.73144 15.7213 7.82343 15.8992C7.97669 16.1956 7.77429 16.7258 7.44888 16.8803C7.20642 16.9953 6.93353 16.9221 6.27467 16.5651C5.54423 16.1693 5.43446 16.0804 5.39843 15.8551C5.36933 15.6732 5.19965 15.4827 5.06678 15.4827C4.95087 15.4827 4.67954 15.7697 4.51165 16.0699C4.02916 16.9327 4.0067 17.5729 4.46229 17.4793C4.89266 17.3908 4.91164 17.3947 5.46095 17.6833C6.63978 18.3027 6.7331 18.3415 7.04165 18.3415C7.25927 18.3415 7.38755 18.3119 7.5823 18.2166C8.30894 17.8611 8.92031 16.6725 8.76764 15.9124C8.66594 15.4058 8.44452 15.1875 7.43288 14.5959C6.59454 14.1056 6.48894 14.0205 6.44788 13.8016C6.3965 13.5278 6.34622 13.466 6.17508 13.466C6.05444 13.466 5.98652 13.5049 5.85745 13.6477ZM13.2068 16.2806C13.2068 16.3161 13.3158 16.4605 13.4491 16.6014C13.7684 16.939 13.8394 16.9369 14.1795 16.5794C14.3252 16.4264 14.4443 16.282 14.4443 16.2586C14.4443 16.2352 14.3553 16.216 14.2466 16.216C14.0878 16.216 14.0236 16.2424 13.9202 16.3504L13.7914 16.4848L13.6784 16.3504C13.5888 16.244 13.528 16.216 13.386 16.216C13.2624 16.216 13.2068 16.236 13.2068 16.2806ZM33.1901 16.2733C33.1902 16.3048 33.2997 16.4492 33.4335 16.5941C33.7335 16.919 33.8481 16.9353 34.0783 16.6858C34.2746 16.473 34.4276 16.2791 34.4276 16.2431C34.4276 16.2282 34.3363 16.216 34.2247 16.216C34.0511 16.216 34.0053 16.2371 33.9078 16.3617L33.7938 16.5073L33.6712 16.3617C33.572 16.2437 33.5145 16.216 33.3694 16.216C33.2565 16.216 33.1901 16.2372 33.1901 16.2733ZM36.4327 17.0403C36.3634 17.0948 36.3068 17.17 36.3068 17.2075C36.3068 17.2819 35.8879 18.323 35.6343 18.8788C35.5062 19.1595 35.4449 19.2416 35.3182 19.302C35.1362 19.3888 35.1148 19.5059 35.2574 19.6349C35.336 19.706 35.4245 19.7222 35.7339 19.7222C36.0432 19.7222 36.1317 19.706 36.2103 19.6349C36.3397 19.5179 36.3321 19.3881 36.1922 19.3243C36.0519 19.2604 36.045 19.17 36.1751 19.1004C36.3032 19.0319 36.9265 19.0629 37.0043 19.1418C37.0522 19.1903 37.0398 19.2184 36.937 19.2937C36.7778 19.4105 36.7763 19.537 36.933 19.6397C37.1065 19.7534 38.0054 19.7553 38.2148 19.6425C38.4464 19.5177 38.4533 19.3785 38.2334 19.2648C38.1368 19.2148 38.0587 19.09 37.9113 18.7501C37.4148 17.6051 37.1771 17.1633 36.9983 17.0533C36.9479 17.0223 36.8283 16.9844 36.7326 16.9691C36.5958 16.9472 36.5317 16.9624 36.4327 17.0403ZM12.6392 17.1347C12.4819 17.3215 12.399 17.6054 12.4548 17.7653C12.4874 17.8584 12.5332 17.8924 12.6409 17.9029C12.762 17.9147 12.799 17.892 12.8848 17.7533C12.9404 17.6634 13.0239 17.5695 13.0704 17.5446C13.1764 17.4878 13.422 17.4855 13.4563 17.5409C13.4704 17.5638 13.2138 17.9885 12.886 18.4846C12.5423 19.0048 12.2901 19.4328 12.2901 19.4956C12.2901 19.5554 12.3273 19.6243 12.3727 19.6486C12.4347 19.6818 14.0104 19.7253 14.3327 19.7028C14.3596 19.7009 14.4266 19.6192 14.4817 19.5212C14.593 19.3232 14.619 18.9298 14.5268 18.8377C14.4272 18.7381 14.2678 18.774 14.1964 18.9121C14.108 19.0829 14.041 19.1317 13.8484 19.1655C13.5134 19.2243 13.5269 19.167 14.0421 18.3406C14.5971 17.4504 14.6734 17.3101 14.6734 17.1796C14.6734 17.0258 14.4947 16.9952 13.5975 16.9952H12.7566L12.6392 17.1347ZM15.7047 17.029C14.9525 17.0404 14.8261 17.0526 14.7766 17.1191C14.6936 17.2306 14.7029 17.2604 14.8682 17.4113C15.017 17.547 15.0172 17.548 15.033 18.06C15.0567 18.8298 15.0143 19.1234 14.8528 19.3073C14.7026 19.4784 14.6794 19.636 14.7995 19.67C14.8436 19.6826 15.3838 19.6994 15.9998 19.7075L17.12 19.7222L17.2247 19.516C17.3798 19.2106 17.4064 18.9658 17.2988 18.8329C17.1872 18.6952 17.0499 18.7322 16.9241 18.934C16.8045 19.1261 16.6853 19.1946 16.4154 19.2266C16.064 19.2682 15.9702 19.2266 15.934 19.013C15.9171 18.9126 15.9172 18.767 15.9342 18.6894C15.9603 18.5708 15.9841 18.5505 16.0832 18.5623C16.1694 18.5726 16.2147 18.6161 16.2509 18.7234C16.3456 19.0038 16.4954 19.0264 16.6231 18.7794C16.7064 18.6182 16.7116 18.0257 16.631 17.8664C16.5225 17.6519 16.3102 17.7048 16.2541 17.9603C16.2183 18.1235 16.1687 18.1581 16.0229 18.1215C15.9261 18.0972 15.911 18.0672 15.9116 17.8995C15.9128 17.5179 15.9296 17.4993 16.2717 17.4993C16.5638 17.4993 16.5839 17.5067 16.7706 17.6827C16.9936 17.8927 17.023 17.8998 17.1484 17.7743C17.2516 17.6712 17.2679 17.4551 17.1895 17.2302C17.1258 17.0474 17.0238 16.9924 16.7733 17.0056C16.6645 17.0113 16.1837 17.0218 15.7047 17.029ZM17.7214 17.0479C17.5231 17.1218 17.4693 17.1755 17.4693 17.2997C17.4693 17.3727 17.5081 17.4273 17.585 17.4623C17.6486 17.4913 17.712 17.5601 17.7258 17.6152C17.7396 17.6703 17.7443 18.04 17.7361 18.4368L17.7214 19.1582L17.5953 19.2586C17.4605 19.366 17.4256 19.5609 17.5266 19.6431C17.5601 19.6704 17.9992 19.6965 18.5844 19.706L19.5849 19.7222L19.6661 19.6077C19.8507 19.3472 19.9012 19.01 19.7813 18.8387C19.6712 18.6815 19.547 18.7107 19.4409 18.9187C19.3246 19.1466 19.219 19.2037 18.9458 19.1861L18.7297 19.1723L18.7172 18.3604L18.7047 17.5486L18.8377 17.4799C18.9108 17.442 18.9834 17.3779 18.999 17.3373C19.0346 17.2445 18.9638 17.1082 18.857 17.0636C18.7164 17.005 17.868 16.9932 17.7214 17.0479ZM21.1159 17.0374C20.9521 17.0717 20.7693 17.2205 20.7693 17.3195C20.7693 17.3411 20.8436 17.4331 20.9345 17.524L21.0997 17.6893L21.0835 18.3893C21.0661 19.1349 21.0307 19.2587 20.8421 19.2317C20.7593 19.2199 20.7484 19.1918 20.7617 19.0237C20.7748 18.8579 20.7568 18.809 20.6392 18.6914C20.4503 18.5024 20.219 18.501 20.0324 18.6875C19.7608 18.9591 19.8941 19.4054 20.3108 19.6191C20.5198 19.7263 20.6118 19.745 20.9264 19.7442C21.3653 19.743 21.6152 19.6485 21.7918 19.417C21.9554 19.2025 22.0044 18.9436 22.0057 18.2869C22.0068 17.719 22.0306 17.613 22.1936 17.45C22.3129 17.3307 22.3046 17.1955 22.1724 17.1089C22.0437 17.0246 21.3889 16.9803 21.1159 17.0374ZM23.3359 17.0415C22.8444 17.0566 22.4371 17.0729 22.4307 17.0779C22.4244 17.0828 22.4193 17.1452 22.4193 17.2166C22.4193 17.3084 22.4531 17.3644 22.5351 17.4083C22.5988 17.4424 22.6625 17.5164 22.6766 17.5727C22.6908 17.629 22.6953 18.0186 22.6868 18.4385L22.6714 19.2019L22.522 19.3246C22.3658 19.4528 22.3338 19.5645 22.4307 19.6425C22.4641 19.6693 22.9638 19.697 23.6251 19.7088L24.7621 19.7289L24.8441 19.611C25.0307 19.3427 25.089 18.9381 24.9598 18.8088C24.8466 18.6957 24.7753 18.7217 24.5946 18.9423C24.4178 19.158 24.2343 19.2403 23.9291 19.2407C23.6623 19.2412 23.6036 19.167 23.6198 18.8501C23.6329 18.5962 23.6422 18.5755 23.7492 18.5629C23.8482 18.5514 23.8741 18.5773 23.9325 18.7463C24.0131 18.9794 24.1275 19.0053 24.2648 18.8215C24.3909 18.6525 24.4041 18.0329 24.2855 17.8518C24.1607 17.6614 24.036 17.6917 23.9304 17.938C23.8576 18.1078 23.8214 18.1447 23.7391 18.1327C23.6181 18.1152 23.574 17.9707 23.6092 17.707L23.6339 17.5222L23.9447 17.5087C24.254 17.4952 24.2566 17.496 24.4392 17.6806C24.6462 17.8897 24.7075 17.9048 24.8242 17.7758C24.8884 17.7049 24.9014 17.6314 24.8849 17.4327C24.856 17.0842 24.7655 16.9924 24.4632 17.0047C24.3348 17.0099 23.8275 17.0265 23.3359 17.0415ZM25.4019 17.1658C25.2589 17.3394 25.1948 17.5409 25.2226 17.7293C25.2582 17.9699 25.5746 17.9671 25.6748 17.7252C25.7378 17.5731 25.873 17.4993 26.0889 17.4993C26.1842 17.4993 26.2234 17.5217 26.2234 17.5761C26.2234 17.6182 25.989 18.005 25.7025 18.4354C25.416 18.8659 25.1581 19.2631 25.1295 19.3182C25.0539 19.4639 25.0659 19.5982 25.159 19.648C25.2566 19.7003 27.0518 19.731 27.1315 19.6818C27.2303 19.6207 27.3693 19.2954 27.3693 19.1252C27.3693 18.758 27.1233 18.6505 26.9511 18.9424C26.8839 19.0564 26.8069 19.1156 26.6826 19.1492C26.5218 19.1924 26.3609 19.1749 26.3609 19.1141C26.3609 19.0773 26.5543 18.7493 26.9621 18.0943C27.1585 17.7788 27.3513 17.4438 27.3905 17.35C27.4579 17.1889 27.4567 17.1742 27.3697 17.0872C27.2839 17.0015 27.2178 16.9952 26.4101 16.9952H25.5426L25.4019 17.1658ZM29.7402 17.0281C29.5961 17.0498 29.4617 17.221 29.5033 17.3297C29.5186 17.3696 29.581 17.4348 29.6419 17.4747C29.7385 17.5381 29.7526 17.5822 29.7526 17.8212C29.7526 17.9979 29.7338 18.0952 29.6996 18.0952C29.6251 18.0952 29.3707 17.8963 28.9964 17.5453C28.4955 17.0756 28.4329 17.041 28.0871 17.041C27.7387 17.041 27.578 17.0912 27.508 17.2221C27.4653 17.3018 27.4814 17.3395 27.6155 17.4735C27.7632 17.6213 27.7752 17.6562 27.8063 18.0306C27.8246 18.2503 27.8257 18.5968 27.8087 18.8007C27.7832 19.1072 27.7583 19.1918 27.6652 19.2889C27.4206 19.5443 27.5858 19.6993 28.1026 19.6993C28.6288 19.6993 28.785 19.5446 28.5287 19.2771C28.4271 19.1711 28.4015 19.0959 28.3865 18.8602C28.3725 18.6411 28.3849 18.5587 28.4384 18.5143C28.4982 18.4647 28.5896 18.5302 29.0504 18.9522C29.7352 19.5795 29.8936 19.6993 30.0378 19.6993C30.2168 19.6993 30.2509 19.5434 30.297 18.5142L30.3388 17.5811L30.4811 17.4512C30.7 17.2512 30.6599 17.1068 30.3666 17.0388C30.1857 16.9968 29.9714 16.9931 29.7402 17.0281ZM31.1734 17.0235C30.7661 17.1009 30.6774 17.2484 30.9001 17.4781L31.0482 17.6309L31.0269 18.3713L31.0055 19.1117L30.8578 19.2498C30.7766 19.3257 30.7165 19.4218 30.7242 19.4633C30.7519 19.6122 31.0307 19.6992 31.4798 19.6992C31.9444 19.6993 32.1057 19.6581 32.1794 19.5203C32.2201 19.4443 32.2041 19.4008 32.0859 19.2662L31.9434 19.1038L31.9594 18.3359C31.9754 17.5728 31.9763 17.5673 32.0986 17.4471C32.236 17.3121 32.2302 17.1618 32.0848 17.084C31.9886 17.0325 31.3494 16.9901 31.1734 17.0235ZM33.2096 17.129C32.5278 17.4725 32.2349 18.3088 32.5627 18.9763C32.6975 19.2508 32.9465 19.4984 33.2293 19.6391C33.3568 19.7025 33.4996 19.7217 33.8318 19.7199C34.2291 19.7177 34.2945 19.7042 34.5791 19.5654C34.9062 19.4059 35.0058 19.3021 35.0469 19.0782C35.0722 18.9401 34.9941 18.7341 34.9052 18.7049C34.878 18.6959 34.7779 18.7505 34.6827 18.8261C34.3596 19.0829 33.9673 19.0558 33.6856 18.7574C33.4987 18.5595 33.4273 18.3719 33.4228 18.067C33.4176 17.7217 33.5337 17.591 33.8456 17.591C34.0759 17.591 34.0885 17.5981 34.3467 17.8737C34.6229 18.1685 34.7908 18.2312 34.9499 18.0992C35.1535 17.9302 35.1322 17.4981 34.9071 17.2306C34.7842 17.0845 34.7149 17.07 33.8776 17.0146C33.5088 16.9901 33.4732 16.9962 33.2096 17.129ZM39.1943 17.0398C38.8288 17.058 38.5252 17.076 38.5198 17.0799C38.5144 17.0837 38.4878 17.1284 38.4605 17.1792C38.4191 17.2568 38.4333 17.2919 38.5493 17.3979C38.6699 17.508 38.6914 17.5655 38.7177 17.8486C38.7343 18.0271 38.7326 18.3959 38.7141 18.6682C38.6843 19.1046 38.6673 19.1763 38.5706 19.273C38.4238 19.4198 38.4286 19.5749 38.5825 19.6572C38.771 19.7581 39.5964 19.7467 39.7578 19.641C39.9128 19.5394 39.9167 19.4034 39.7672 19.3055C39.6633 19.2375 39.6526 19.2009 39.6526 18.9149C39.6526 18.6311 39.6617 18.5993 39.7432 18.5993C39.8629 18.5993 39.9452 18.7368 40.0603 19.1285C40.1254 19.3504 40.1993 19.4938 40.2966 19.5868C40.4301 19.7147 40.4594 19.7222 40.8197 19.7222C41.1307 19.7222 41.2192 19.7061 41.2978 19.6349C41.4274 19.5176 41.422 19.36 41.2863 19.2982C41.2027 19.2601 41.1604 19.178 41.0996 18.9356C41.0101 18.5792 40.9434 18.4865 40.7242 18.4142C40.639 18.3861 40.5701 18.3492 40.5711 18.3322C40.572 18.3153 40.6384 18.2601 40.7187 18.2097C41.1176 17.9588 41.0572 17.3547 40.6102 17.1241C40.4045 17.0179 40.0527 16.997 39.1943 17.0398ZM39.6346 17.526C39.6193 17.5659 39.6068 17.7206 39.6068 17.8698C39.6068 18.1264 39.6128 18.141 39.7181 18.141C39.8865 18.141 39.9734 18.024 39.9734 17.7972C39.9734 17.5833 39.8876 17.4535 39.7459 17.4535C39.7 17.4535 39.6499 17.4861 39.6346 17.526ZM36.42 18.29L36.3083 18.5306L36.5648 18.5445C36.7059 18.5521 36.8307 18.549 36.8422 18.5376C36.8758 18.504 36.6306 18.0493 36.5789 18.0493C36.553 18.0493 36.4815 18.1576 36.42 18.29ZM49.0829 18.1905C49.0389 18.2161 48.9793 18.3305 48.9505 18.4447C48.8897 18.6863 48.9182 18.6712 48.0401 18.9267C46.7342 19.3065 46.3301 19.3643 46.1609 19.1952C46.0591 19.0933 45.8425 19.0737 45.7576 19.1585C45.7274 19.1888 45.7026 19.2863 45.7026 19.3752C45.7026 19.5607 46.3121 21.7372 46.442 22.0153C46.7271 22.6259 47.2961 22.8931 47.9149 22.7069C48.3373 22.5798 48.5868 22.2767 48.5891 21.8879C48.5903 21.6843 48.635 21.6759 48.888 21.8318C49.1397 21.9868 49.4168 21.9827 49.7375 21.8191C50.2572 21.5541 50.3181 21.0737 49.9744 19.9514C49.874 19.6237 49.7258 19.1287 49.6451 18.8514C49.4591 18.2128 49.3217 18.0513 49.0829 18.1905ZM3.50318 18.7778C3.37842 18.8363 3.30174 18.906 3.28657 18.9745C3.27369 19.0328 3.19092 19.4415 3.10269 19.8827C3.01441 20.3238 2.87984 20.9067 2.80367 21.178C2.63322 21.7846 2.62327 22.0482 2.767 22.1488C2.9199 22.2559 3.04879 22.2355 3.18496 22.0827C3.25238 22.007 3.3269 21.9452 3.35064 21.9452C3.61286 21.9452 5.39279 22.3867 5.62856 22.5102C5.69461 22.5448 5.79219 22.6639 5.84544 22.7748C5.93074 22.9525 5.96209 22.9781 6.10995 22.9904C6.31038 23.0071 6.43284 22.8995 6.56934 22.5868C6.69309 22.3034 6.88164 21.5065 6.88174 21.2668C6.88187 20.7668 6.47222 20.5653 6.25932 20.9607C6.18282 21.1027 6.15326 21.12 5.98909 21.1185C5.76753 21.1166 5.28243 21.0058 5.21941 20.9428C5.1436 20.867 5.22555 20.6619 5.35063 20.6144C5.41457 20.5901 5.54661 20.5702 5.64401 20.5702C5.84742 20.5702 5.96512 20.4766 5.96512 20.3148C5.96512 20.1038 5.7238 19.9431 5.181 19.7927C4.73944 19.6703 4.45532 19.6709 4.29839 19.7943C4.11822 19.936 4.13957 20.0853 4.36095 20.2319C4.50193 20.3251 4.54428 20.3827 4.54428 20.4808C4.54428 20.7854 4.43373 20.8173 3.97137 20.6464L3.69637 20.5447L3.70407 20.325C3.71672 19.9639 3.90193 19.6479 4.22249 19.4403C4.53182 19.24 4.61335 19.1129 4.53823 18.9481C4.47159 18.8019 4.30347 18.7303 3.97137 18.7067C3.76269 18.6919 3.6498 18.7091 3.50318 18.7778ZM48.762 20.1477C48.3206 20.2767 48.2849 20.3237 48.46 20.5462C48.5462 20.6557 48.5834 20.6693 48.7464 20.6503C49.1789 20.5999 49.4167 20.3986 49.3513 20.1381C49.3154 19.9951 49.2825 19.9956 48.762 20.1477ZM47.1578 20.6234C46.7315 20.7698 46.6908 20.819 46.8101 21.043C46.8921 21.1969 46.9928 21.2546 47.1822 21.2562C47.643 21.2601 47.9436 20.9037 47.7635 20.5671C47.702 20.4523 47.6393 20.4581 47.1578 20.6234ZM26.1811 20.8923C24.7288 21.1966 23.5263 22.3399 23.1509 23.7733C22.7932 25.1387 23.2026 26.551 24.2446 27.5465C24.6889 27.971 25.1846 28.2698 25.7651 28.4632C26.1772 28.6004 26.2387 28.6083 26.9109 28.6104C27.6974 28.6127 27.9414 28.5651 28.5461 28.2909C29.3981 27.9046 30.055 27.2634 30.4611 26.4217C30.7711 25.779 30.828 25.5176 30.8273 24.741C30.8266 23.9706 30.7709 23.7169 30.4587 23.0611C29.9872 22.0705 29.1263 21.3324 28.0339 20.9821C27.776 20.8994 27.5826 20.8763 27.0484 20.8645C26.6829 20.8564 26.2926 20.8689 26.1811 20.8923ZM26.4297 20.9389C24.8752 21.1797 23.6648 22.2457 23.2419 23.7466C23.1187 24.1842 23.0776 24.9115 23.1503 25.3684C23.3772 26.7935 24.5223 28.0619 25.9346 28.4526C27.6401 28.9243 29.5486 28.0735 30.3471 26.4855C30.6702 25.8426 30.738 25.5442 30.738 24.7639C30.738 23.9877 30.6821 23.707 30.4147 23.1409C29.9011 22.0535 28.9333 21.2702 27.7785 21.0072C27.3814 20.9168 26.7718 20.8859 26.4297 20.9389ZM26.5008 21.0669L26.2968 21.0972L26.5237 21.2843C26.6485 21.3871 26.7759 21.4861 26.807 21.5042C26.8794 21.5464 28.5925 21.8537 28.7443 21.8517C28.8073 21.8509 28.9089 21.8226 28.9699 21.7887L29.081 21.7272L28.8794 21.5999C28.2319 21.1912 27.208 20.9617 26.5008 21.0669ZM26.494 22.0642L26.1151 22.4451L26.3611 23.0685C26.4964 23.4114 26.629 23.7062 26.6559 23.7237C26.6827 23.7412 27.0164 23.819 27.3974 23.8966L28.0902 24.0375L28.3828 23.7872C28.5438 23.6495 28.7459 23.4755 28.8319 23.4005L28.9882 23.2642L28.8631 22.7078C28.7944 22.4018 28.7287 22.1183 28.7173 22.0778C28.7028 22.0268 28.6011 21.9881 28.3881 21.9522C28.2185 21.9237 27.8082 21.8515 27.4763 21.7919L26.8729 21.6834L26.494 22.0642ZM24.3538 22.117C24.0402 22.4257 23.7441 22.8493 23.5634 23.2478C23.43 23.542 23.2692 24.0937 23.306 24.1305C23.3293 24.1538 23.7839 23.9715 23.8744 23.9027C23.9058 23.8787 24.0942 23.5471 24.293 23.1657C24.6151 22.5476 24.6569 22.4386 24.6774 22.1629C24.6901 21.9927 24.6827 21.8535 24.661 21.8535C24.6394 21.8535 24.5011 21.9721 24.3538 22.117ZM24.973 22.5281L24.7538 22.5461L24.4027 23.2503L24.0515 23.9544L24.2488 24.4165L24.4461 24.8785L24.9108 24.8789C25.1664 24.8791 25.4815 24.892 25.611 24.9076L25.8465 24.9359L26.1725 24.3831C26.3517 24.079 26.4984 23.8135 26.4983 23.7929C26.4982 23.7724 26.3769 23.4771 26.2288 23.1368L25.9595 22.5181L25.5759 22.5141C25.3649 22.5119 25.0936 22.5182 24.973 22.5281ZM28.617 23.7845L28.1919 24.1556L28.2045 24.8264L28.2172 25.4972L28.7719 25.7817L29.3265 26.0661L29.722 25.7817L30.1174 25.4972L30.1183 24.6822L30.1193 23.8671L29.6755 23.6612C29.4314 23.5479 29.189 23.4458 29.1369 23.4343C29.0678 23.419 28.9274 23.5136 28.617 23.7845ZM30.3587 23.753C30.2621 23.8758 30.2568 23.9248 30.2568 24.6934C30.2568 25.4817 30.2597 25.507 30.3628 25.6039C30.4212 25.6587 30.4812 25.7035 30.4962 25.7035C30.5112 25.7035 30.5487 25.5624 30.5795 25.3899C30.647 25.0124 30.6152 24.1203 30.5239 23.827L30.4606 23.6234L30.3587 23.753ZM24.3068 25.5626C24.2266 25.8666 24.1609 26.1455 24.1609 26.1824C24.1609 26.2544 25.1127 27.6286 25.1624 27.6283C25.2928 27.6275 26.3865 27.3862 26.4066 27.3539C26.4207 27.331 26.5125 27.0432 26.6106 26.7142C26.7629 26.2036 26.7806 26.1009 26.7321 26.0129C26.7008 25.9562 26.4926 25.7138 26.2694 25.4743L25.8636 25.0389L25.1582 25.0243L24.4527 25.0098L24.3068 25.5626ZM27.5313 25.8578L26.9374 26.0931L26.7437 26.7324C26.6373 27.084 26.5592 27.3864 26.5703 27.4044C26.5814 27.4223 26.8171 27.5644 27.0941 27.7201L27.5978 28.0032L28.3429 27.6138L29.088 27.2244L29.1687 26.7089C29.2131 26.4253 29.244 26.1886 29.2374 26.1828C29.2309 26.177 28.978 26.0486 28.6754 25.8974L28.1253 25.6225L27.5313 25.8578ZM23.6778 26.4712C23.9015 26.8944 24.3173 27.3832 24.6945 27.6663C25.1731 28.0256 25.1364 27.8683 24.5419 27.0132C24.0608 26.3213 24.0398 26.2985 23.8203 26.2312C23.696 26.193 23.5763 26.1618 23.5543 26.1618C23.5323 26.1618 23.5878 26.3011 23.6778 26.4712ZM29.1224 27.3578C29.1035 27.3753 28.7456 27.5673 28.327 27.7846C27.6066 28.1584 27.3622 28.3242 27.4305 28.3925C27.486 28.448 28.2135 28.2263 28.5839 28.041C28.9471 27.8594 29.4776 27.4811 29.4776 27.4037C29.4776 27.354 29.1696 27.3142 29.1224 27.3578ZM3.03178 27.8584C2.76769 27.9044 2.29909 28.0781 2.19532 28.1686C2.10251 28.2495 2.09 28.3867 2.17085 28.4367C2.20151 28.4557 2.29946 28.4832 2.38856 28.498L2.55053 28.5249L2.54522 29.0844C2.53958 29.6739 2.49847 29.8087 2.33956 29.7582C2.21109 29.7175 2.06135 29.8182 2.07794 29.9343C2.10499 30.1232 2.30665 30.1723 3.05672 30.1723C3.63962 30.1723 3.76539 30.1597 3.87026 30.091C4.06647 29.9624 4.01032 29.7368 3.78212 29.7368C3.56322 29.7368 3.53595 29.6453 3.53595 28.9096C3.53595 28.2315 3.53677 28.2259 3.65053 28.1514C3.77405 28.0704 3.79825 27.955 3.71012 27.8668C3.64966 27.8064 3.35248 27.8027 3.03178 27.8584ZM4.98969 27.8592C4.71277 27.9287 4.55203 28.0311 4.40811 28.2297C4.13641 28.6048 4.18362 29.1397 4.51935 29.49C4.7025 29.6812 4.72459 29.691 4.97186 29.691C5.11482 29.691 5.23178 29.7027 5.23178 29.7169C5.23178 29.7732 5.12036 29.9525 4.96929 30.1394C4.83652 30.3037 4.82011 30.3472 4.86892 30.406C4.96081 30.5167 5.16807 30.6077 5.32844 30.6077C5.70859 30.6077 6.37326 29.4803 6.37642 28.8302C6.37922 28.2572 6.02076 27.8818 5.42712 27.836C5.28188 27.8249 5.08502 27.8353 4.98969 27.8592ZM49.829 27.8834C49.6659 27.9188 49.4184 28.0048 49.279 28.0746C48.9129 28.2578 48.9065 28.437 49.2638 28.4959L49.438 28.5245L49.4373 29.0786C49.4367 29.6679 49.3924 29.8107 49.2271 29.7582C49.0986 29.7175 48.9488 29.8182 48.9654 29.9343C48.9925 30.1232 49.1941 30.1722 49.9442 30.1723C50.5327 30.1723 50.6522 30.1601 50.7605 30.0892C50.9706 29.9515 50.8965 29.7788 50.6008 29.7171C50.441 29.6838 50.4248 29.6055 50.4241 28.8598C50.4234 28.2435 50.425 28.2338 50.538 28.1598C50.6681 28.0746 50.6932 27.8831 50.5801 27.8397C50.4649 27.7954 50.1503 27.8138 49.829 27.8834ZM47.416 27.9012C46.811 28.0456 46.4135 28.5457 46.7357 28.7569C46.8573 28.8365 46.8631 28.8352 47.1617 28.6632C47.327 28.568 47.4443 28.6211 47.4441 28.7912C47.4439 28.9759 47.3501 29.1258 46.9261 29.6195C46.7359 29.8409 46.5905 30.0486 46.6029 30.0812C46.6389 30.175 46.783 30.1939 47.4715 30.1945C48.0589 30.1951 48.1251 30.2035 48.2005 30.2868C48.3073 30.4049 48.4092 30.4029 48.5407 30.2803C48.7451 30.0899 48.8396 29.6711 48.726 29.4588C48.6655 29.3458 48.5576 29.3468 48.3839 29.4618C48.2179 29.5717 48.0929 29.5791 48.0553 29.4811C48.037 29.4333 48.1057 29.3284 48.2581 29.1718C48.5338 28.8884 48.6359 28.6995 48.6359 28.4733C48.6359 28.0594 48.0008 27.7616 47.416 27.9012ZM5.15538 28.5715C5.08259 28.7612 5.32482 29.1564 5.46191 29.0717C5.58979 28.9926 5.42524 28.4993 5.27097 28.4993C5.22262 28.4993 5.17059 28.5318 5.15538 28.5715ZM15.5443 28.7279V28.9571L19.1301 28.9689L22.7159 28.9806L24.0359 31.2952C24.7619 32.5682 25.3733 33.6388 25.3945 33.6742C25.4264 33.7275 25.4639 33.7202 25.6106 33.6319C25.7081 33.5732 25.7945 33.5205 25.8024 33.5149C25.818 33.5038 24.5933 31.3307 23.5958 29.5992L22.9753 28.5223L19.2598 28.5105L15.5443 28.4988V28.7279ZM31.0552 28.8324C30.9523 29.0147 30.3181 30.1311 29.6458 31.3133C28.9735 32.4954 28.4234 33.4765 28.4234 33.4934C28.4234 33.5289 28.7896 33.7417 28.8092 33.7175C28.8163 33.7087 29.4273 32.6341 30.1669 31.3295L31.5115 28.9577H35.1033H38.6952L38.6812 28.74L38.6672 28.5223L34.9547 28.5116L31.2422 28.5009L31.0552 28.8324ZM16.2776 29.7827V30.0118H19.4172H22.5568V29.7827V29.5535H19.4172H16.2776V29.7827ZM31.6318 29.7827V30.0118H34.7714H37.9109V29.7827V29.5535H34.7714H31.6318V29.7827ZM26.2999 30.5466C26.283 30.5633 26.2693 31.7493 26.2693 33.182V35.7868H26.5672H26.8651V33.1514V30.516H26.5978C26.4507 30.516 26.3166 30.5298 26.2999 30.5466ZM16.7359 30.8139V31.0666L19.8641 31.0549L22.9922 31.0431V30.8139V30.5848L19.8641 30.573L16.7359 30.5612V30.8139ZM31.2193 30.8136V31.066H34.3612H37.5033L37.4894 30.8254L37.4755 30.5848L34.3474 30.573L31.2193 30.5612V30.8136ZM27.4609 33.1743V35.3743H27.7818H28.1026V33.1743V30.9743H27.7818H27.4609V33.1743ZM17.1484 31.8452V32.0743H20.288H23.4276V31.8452V31.616H20.288H17.1484V31.8452ZM30.7609 31.8452V32.0743H33.9005H37.0401V31.8452V31.616H33.9005H30.7609V31.8452ZM7.48784 34.7582C7.40836 34.8138 7.38595 34.8747 7.38595 35.0345V35.2395L6.91675 35.5441C6.23755 35.9848 5.40595 36.4302 5.25103 36.4362C5.17742 36.439 5.05381 36.4147 4.97631 36.3821C4.65249 36.2459 4.43286 36.4852 4.54236 36.8548C4.68027 37.3203 5.1937 38.1663 5.43372 38.3235C5.58983 38.4258 5.79535 38.4193 5.89531 38.3088C5.96108 38.2361 5.9713 38.1738 5.94724 37.9922C5.91809 37.7724 5.92208 37.762 6.08864 37.6248C6.18287 37.5471 6.36822 37.4268 6.50054 37.3575C6.7386 37.2329 6.74181 37.2326 6.80996 37.3228C6.91735 37.4648 6.89604 37.5523 6.69845 37.7806C6.59762 37.8971 6.51512 38.0221 6.51512 38.0584C6.51512 38.184 6.6913 38.3077 6.87032 38.3076C7.22035 38.3076 8.04783 37.8117 8.16337 37.5327C8.21356 37.4115 8.21076 37.3746 8.14348 37.2719C8.07029 37.1602 8.04906 37.1543 7.8226 37.1826C7.59596 37.2109 7.57359 37.2047 7.48128 37.0873C7.42692 37.0182 7.38842 36.9294 7.39567 36.8899C7.40978 36.8131 7.95153 36.5231 8.08426 36.5213C8.18588 36.5198 8.36564 36.7953 8.46505 37.1047C8.53806 37.3319 8.53788 37.3649 8.46129 37.69L8.38012 38.0346L8.48687 38.1482C8.54558 38.2107 8.63207 38.2618 8.67909 38.2618C8.97279 38.2618 9.49442 37.764 9.49419 37.4839C9.49414 37.4184 9.37374 37.1891 9.21671 36.9556C8.93768 36.5407 8.46257 35.7514 8.14921 35.1823C7.89827 34.7266 7.70756 34.6042 7.48784 34.7582ZM45.1297 35.4282C44.7721 35.557 44.4575 35.9305 44.0283 36.7362C43.8834 37.0081 43.6627 37.3904 43.5377 37.5857C43.4015 37.7987 43.3008 38.0142 43.286 38.1242C43.2707 38.2385 43.2373 38.3077 43.1976 38.3077C43.0993 38.3077 42.745 38.6553 42.5615 38.9317C42.2274 39.4351 42.3466 39.7857 42.784 39.5864C42.8682 39.548 42.9226 39.5508 43.0111 39.5978C43.1921 39.6942 44.0077 40.3825 44.2726 40.6626C44.478 40.8798 44.5109 40.94 44.5109 41.0978C44.5109 41.342 44.4432 41.5084 44.2708 41.687C44.0765 41.8884 43.8732 41.9517 43.6516 41.8799C43.437 41.8103 43.3053 41.7201 42.8115 41.3043C42.2232 40.8088 42.1301 40.6891 42.1352 40.4349C42.1437 40.0136 41.8304 39.9321 41.4509 40.257C41.0564 40.5946 40.6151 41.2912 40.6151 41.5761C40.6151 41.8158 40.7362 41.8971 41.0373 41.8594L41.2836 41.8286L41.6713 42.1386C41.8844 42.3091 42.2196 42.5876 42.4161 42.7574C42.8813 43.1594 43.0924 43.2577 43.4907 43.2576C43.7408 43.2576 43.8574 43.2307 44.0957 43.118C44.5826 42.8876 45.1743 42.2017 45.3681 41.6429C45.4547 41.393 45.429 40.9139 45.3159 40.6681C45.2624 40.5519 44.9312 40.1908 44.4122 39.6827L43.593 38.8806L43.5936 38.6701C43.5942 38.4786 43.6082 38.4521 43.7478 38.3769C43.8408 38.3269 43.9447 38.3052 44.0113 38.3221C44.2659 38.3865 45.9583 39.4249 46.1136 39.612C46.1494 39.6553 46.1902 39.7757 46.2042 39.8797C46.2235 40.0231 46.2597 40.0857 46.3536 40.1383C46.4681 40.2026 46.4873 40.2006 46.605 40.1127C46.7464 40.0072 48.0132 37.8366 48.0864 37.5743C48.1111 37.4861 48.1312 37.2902 48.1311 37.1389C48.131 36.9178 48.1041 36.8173 47.9944 36.6259C47.7926 36.274 47.372 36.016 47.0002 36.016C46.833 36.016 46.536 36.1476 46.4387 36.2647C46.3335 36.3916 46.2643 36.3456 46.2316 36.127C46.162 35.6634 45.5515 35.2762 45.1297 35.4282ZM44.6976 36.8701C44.6454 36.9365 44.6026 37.0038 44.6026 37.0195C44.6026 37.0551 45.4078 37.5285 45.4683 37.5285C45.4924 37.5285 45.5356 37.4573 45.5644 37.3703C45.6328 37.1631 45.576 37.0583 45.3008 36.8838C45.0286 36.7111 44.8263 36.7065 44.6976 36.8701ZM19.9214 36.8785C19.7058 36.979 19.6342 37.0564 19.5791 37.2482C19.486 37.5727 19.683 37.8399 20.1411 38.0106C20.3883 38.1027 20.422 38.2287 20.206 38.2535C20.1065 38.265 20.0332 38.2229 19.8666 38.0587C19.7498 37.9436 19.6363 37.8493 19.6144 37.8493C19.4711 37.8493 19.5044 38.3007 19.6591 38.4553C19.8512 38.6475 20.4201 38.6843 20.7229 38.5242C21.2042 38.2697 21.1952 37.6626 20.7075 37.4826C20.3769 37.3605 20.2651 37.297 20.2651 37.2313C20.2651 37.1235 20.4601 37.1474 20.654 37.2788C20.8818 37.4335 21.0169 37.4143 21.0353 37.2246C21.045 37.1252 21.0168 37.0452 20.9436 36.9642C20.8526 36.8636 20.7875 36.8437 20.4714 36.8203C20.1702 36.798 20.072 36.8084 19.9214 36.8785ZM21.8955 36.8672C21.8559 36.9068 21.8234 36.9684 21.8234 37.0042C21.8234 37.0797 21.5411 37.7744 21.3835 38.0866C21.324 38.2045 21.2337 38.3141 21.1827 38.3303C21.0786 38.3634 21.0629 38.4454 21.1451 38.5277C21.2125 38.5951 21.6589 38.6004 21.7806 38.5352C21.8957 38.4736 21.8937 38.3698 21.7763 38.307C21.6249 38.2259 21.7188 38.1702 22.0068 38.1702C22.2911 38.1702 22.3714 38.2142 22.2584 38.3081C22.1688 38.3825 22.1711 38.5197 22.2626 38.5548C22.4076 38.6105 23.0385 38.5841 23.1322 38.5185C23.2107 38.4635 23.2363 38.4635 23.3116 38.5185C23.4315 38.6062 24.0836 38.6071 24.1561 38.5197C24.2173 38.4461 24.1819 38.3255 24.0887 38.2897C23.9959 38.2541 23.9976 37.8493 24.0906 37.8493C24.172 37.8493 24.2376 37.9654 24.3277 38.2689C24.3853 38.4628 24.4214 38.5087 24.5626 38.5678C24.6757 38.615 24.7819 38.6265 24.8921 38.6034C24.9816 38.5847 25.204 38.5738 25.3866 38.5792C25.5691 38.5847 25.7599 38.576 25.8105 38.5599C25.9181 38.5257 25.9342 38.3628 25.8339 38.3243C25.7961 38.3097 25.7651 38.2691 25.7651 38.234C25.7651 38.1866 25.8352 38.1702 26.0374 38.1702C26.3142 38.1702 26.4368 38.2386 26.2986 38.316C26.1973 38.3727 26.2037 38.4772 26.3121 38.5352C26.3609 38.5613 26.5639 38.5827 26.7633 38.5827C27.0633 38.5827 27.1397 38.5674 27.206 38.4942C27.2825 38.4096 27.2817 38.402 27.1869 38.3223C27.1324 38.2765 26.9482 37.9502 26.7776 37.5973C26.607 37.2443 26.4247 36.918 26.3726 36.8722C26.2608 36.7737 25.9999 36.7827 25.9431 36.8868C25.9225 36.9246 25.7975 37.2237 25.6654 37.5514C25.432 38.1303 25.2714 38.3797 25.1565 38.3418C25.0889 38.3194 24.9996 38.1486 24.9634 37.9723C24.9475 37.895 24.8831 37.8124 24.803 37.7664L24.6692 37.6896L24.7909 37.5626C24.9577 37.3885 24.9565 37.1574 24.7879 36.9887C24.6669 36.8675 24.646 36.8635 24.0635 36.8487C23.7336 36.8404 23.4143 36.8459 23.354 36.861C23.219 36.8949 23.2137 36.9824 23.3396 37.0963C23.4276 37.176 23.4337 37.2236 23.4198 37.7203C23.4065 38.195 23.3939 38.266 23.313 38.3256C23.2298 38.3869 23.2105 38.3827 23.1034 38.2808C23.0385 38.2191 22.9373 38.0503 22.8784 37.9058C22.6792 37.4165 22.4222 36.9399 22.3186 36.8674C22.1867 36.7749 21.9878 36.7749 21.8955 36.8672ZM29.5164 36.8294C29.0194 36.8416 28.9321 36.8549 28.9063 36.9221C28.8864 36.9739 28.9122 37.0298 28.9821 37.0864C29.082 37.1673 29.0878 37.2021 29.0847 37.694C29.0817 38.1731 29.0728 38.2248 28.9758 38.3281C28.9149 38.3929 28.8817 38.4706 28.8975 38.5116C28.9202 38.5709 29.0263 38.5827 29.5392 38.5827C29.8771 38.5827 30.2165 38.5952 30.2934 38.6106C30.4212 38.6362 30.4412 38.6227 30.5283 38.452C30.6413 38.2304 30.6499 38.0659 30.5526 37.9851C30.4929 37.9355 30.4551 37.9525 30.3101 38.0941C30.163 38.2378 30.1082 38.2618 29.9283 38.2618C29.7303 38.2618 29.7166 38.2537 29.69 38.1206C29.6745 38.0429 29.6825 37.9405 29.7079 37.8931C29.7646 37.7872 29.8901 37.8245 29.8901 37.9473C29.8901 38.0555 30.0064 38.1073 30.0912 38.0369C30.1733 37.9689 30.2149 37.6842 30.1724 37.4827C30.1447 37.352 30.1175 37.3223 30.0257 37.3223C29.9429 37.3223 29.909 37.3503 29.898 37.4281C29.876 37.5835 29.6888 37.5484 29.6699 37.3853C29.6373 37.1041 30.0022 37.033 30.2525 37.2718C30.4062 37.4185 30.5318 37.3623 30.5318 37.1468C30.5318 36.9256 30.4197 36.7931 30.2427 36.8051C30.1622 36.8106 29.8354 36.8215 29.5164 36.8294ZM30.869 36.8452C30.6815 36.8995 30.6334 37.022 30.7594 37.124C30.8121 37.1666 30.9649 37.4698 31.099 37.7978C31.381 38.4875 31.4633 38.6285 31.5837 38.6285C31.7182 38.6285 31.8278 38.4535 32.1177 37.7755C32.3147 37.3148 32.4129 37.1381 32.4917 37.1022C32.7599 36.98 32.4542 36.7511 32.1091 36.8158C31.9 36.855 31.8259 36.9555 31.9253 37.0653C31.9978 37.1454 31.9956 37.1657 31.8883 37.4082C31.8256 37.55 31.7577 37.666 31.7374 37.6659C31.6789 37.6658 31.4877 37.1411 31.5398 37.1237C31.5652 37.1153 31.5859 37.0595 31.5859 36.9998C31.5859 36.8282 31.2084 36.7468 30.869 36.8452ZM33.1443 36.8654C32.6893 37.0706 32.4793 37.5082 32.6156 37.9673C32.8176 38.6474 33.7595 38.8531 34.2528 38.3249C34.4172 38.1489 34.4734 37.9855 34.4734 37.6841C34.4734 37.1605 34.1605 36.8425 33.614 36.8109C33.3978 36.7984 33.2564 36.8148 33.1443 36.8654ZM27.9078 36.8896C27.8021 36.9524 27.8064 37.0368 27.9207 37.1402C28.0053 37.2167 28.0126 37.2709 28.0009 37.7311C27.9897 38.1712 27.9775 38.2398 27.9078 38.2532C27.8478 38.2647 27.8276 38.2381 27.8276 38.1476C27.8276 37.8755 27.5995 37.7322 27.3873 37.8712C27.2544 37.9583 27.2363 38.2283 27.3524 38.394C27.5116 38.6214 27.9852 38.6999 28.2827 38.5482C28.5645 38.4045 28.6192 38.2795 28.6423 37.7253C28.66 37.3039 28.6773 37.215 28.7594 37.1254C28.8345 37.0435 28.8449 37.0029 28.8067 36.9421C28.7677 36.8801 28.6775 36.8616 28.3728 36.8529C28.1611 36.8469 27.9519 36.8634 27.9078 36.8896ZM24.0234 37.3452C24.0234 37.5794 24.0805 37.6364 24.1976 37.5193C24.3112 37.4057 24.2484 37.116 24.1102 37.116C24.0366 37.116 24.0234 37.1509 24.0234 37.3452ZM33.2929 37.2607C33.1105 37.4431 33.4034 38.216 33.6548 38.216C33.8601 38.216 33.8735 37.7601 33.6787 37.4116C33.5712 37.2196 33.4008 37.1529 33.2929 37.2607ZM46.2033 37.5708C45.9901 37.784 46.0221 37.8657 46.4016 38.0774C46.8237 38.3128 46.9269 38.3406 47.0232 38.2443C47.1298 38.1377 47.1211 37.8359 47.0078 37.7106C46.8867 37.5767 46.6054 37.4368 46.4572 37.4368C46.3857 37.4368 46.283 37.491 46.2033 37.5708ZM21.9394 37.6316C21.8767 37.7797 21.8771 37.7807 22.0147 37.7953C22.0908 37.8034 22.1629 37.8001 22.175 37.7881C22.1998 37.7633 22.0632 37.4827 22.0263 37.4827C22.0132 37.4827 21.974 37.5497 21.9394 37.6316ZM25.9797 37.6451L25.9041 37.8035H26.0879H26.2716L26.202 37.6689C26.1004 37.4724 26.0639 37.4685 25.9797 37.6451ZM43.3651 38.3764C43.4274 38.4514 43.5484 38.4698 43.5484 38.4042C43.5484 38.362 43.44 38.3077 43.3558 38.3077C43.3269 38.3077 43.3306 38.3348 43.3651 38.3764ZM8.86499 38.4476C7.9167 38.6348 7.23878 39.4868 7.24157 40.4881C7.24524 41.7955 8.41784 42.8557 9.69086 42.7024C10.0754 42.6561 10.4158 42.501 10.7582 42.216C11.7502 41.3905 11.7615 40.0145 10.7842 39.0746C10.6167 38.9135 10.3869 38.7277 10.2734 38.6617C9.87992 38.4326 9.34963 38.352 8.86499 38.4476ZM9.44492 39.6035C9.07889 39.8502 8.58926 40.6253 8.54361 41.0303C8.46019 41.7703 8.99859 41.8625 9.58361 41.2084C10.1034 40.6272 10.341 39.8809 10.0909 39.6148C9.94702 39.4616 9.66286 39.4566 9.44492 39.6035ZM11.8672 41.7122C10.992 42.0188 10.4579 42.7609 10.4579 43.6702C10.4579 44.2585 10.6722 44.7545 11.1214 45.2055C11.9919 46.0796 13.316 46.1124 14.1182 45.2798C15.2275 44.1284 14.876 42.5311 13.3527 41.8011C13.0612 41.6614 12.9622 41.638 12.5964 41.6222C12.2415 41.6069 12.1272 41.621 11.8672 41.7122ZM39.3089 42.1739C39.0458 42.2968 38.4538 42.7545 38.2586 42.986C37.9815 43.3147 37.9429 43.5982 38.1595 43.7141C38.2514 43.7633 38.2993 43.764 38.4113 43.7176C38.5975 43.6405 38.664 43.6946 39.2265 44.3806C40.1056 45.4528 40.1462 45.5233 40.0628 45.8331C40.0189 45.9959 40.0237 46.0375 40.0972 46.1361C40.212 46.2897 40.3487 46.3346 40.4855 46.2637C40.5466 46.232 41.0099 45.8778 41.5151 45.4766C42.0203 45.0755 42.499 44.712 42.5789 44.6689C42.7808 44.5602 42.8311 44.4035 42.7657 44.0867C42.6397 43.4761 42.2724 43.1279 41.9413 43.3051C41.8396 43.3596 41.8294 43.4914 41.9039 43.7875C41.9427 43.9414 41.9419 44.0237 41.9006 44.1233C41.791 44.388 41.4016 44.6643 41.2514 44.584C41.1634 44.5369 40.4724 43.7228 40.0478 43.166C39.824 42.8726 39.7897 42.8021 39.8134 42.6848C39.8967 42.2717 39.8938 42.2171 39.7842 42.1403C39.6441 42.0423 39.5813 42.0467 39.3089 42.1739ZM12.658 42.6531C12.4494 42.7672 12.2399 43.0776 12.0563 43.5445C11.9368 43.8483 11.9071 43.9912 11.9042 44.2744C11.9008 44.6039 11.9092 44.6356 12.0351 44.7671C12.3288 45.0736 12.706 44.8465 13.0579 44.1514C13.2446 43.7825 13.3576 43.2221 13.2983 42.9591C13.2233 42.6267 12.9474 42.4948 12.658 42.6531ZM37.4881 43.7334C37.3997 43.7933 37.1693 43.8746 36.9759 43.914C36.4871 44.0137 36.1656 44.1735 35.8524 44.4722C34.7996 45.4764 35.0985 47.2229 36.4311 47.8541C36.7253 47.9934 36.7708 48.0014 37.2693 48.0013C37.7636 48.0013 37.8149 47.9924 38.0943 47.8595C38.4931 47.6697 38.8143 47.4066 39.0308 47.0921C39.1291 46.9494 39.2278 46.8327 39.2501 46.8327C39.3165 46.8327 39.4235 46.5277 39.4224 46.3414C39.4204 45.9837 39.1523 45.6228 38.9472 45.7015C38.9089 45.7162 38.8331 45.8169 38.7786 45.9252C38.6105 46.26 38.4582 46.4257 38.2142 46.5392C37.6485 46.8027 36.9765 46.5546 36.5896 45.9396C36.3178 45.5076 36.3564 45.1447 36.6991 44.9115C36.958 44.7352 37.3066 44.7556 37.7457 44.9725C38.0067 45.1015 38.1261 45.1371 38.2249 45.1154C38.3844 45.0804 38.576 44.884 38.6159 44.7147C38.6866 44.4143 38.3607 43.9094 37.9824 43.7332C37.6954 43.5995 37.6853 43.5995 37.4881 43.7334ZM15.3613 43.8106C14.7896 44.1256 14.5579 44.5568 14.8253 44.808C14.9665 44.9406 15.1845 44.9355 15.4915 44.7926C15.7936 44.652 15.9568 44.643 15.9568 44.7671C15.9568 44.879 15.4276 45.9381 15.1838 46.3142C14.915 46.7289 14.8449 46.7868 14.6118 46.7868C14.4771 46.7868 14.3881 46.814 14.3368 46.8707C14.0979 47.1346 14.4342 47.5032 15.2924 47.918C15.6797 48.1053 15.7904 48.1389 16.0192 48.1389C16.2584 48.1389 16.2998 48.1249 16.3815 48.0163L16.4737 47.8937L16.3527 47.6873C16.2862 47.5738 16.2318 47.4476 16.2318 47.4068C16.2318 47.366 16.4098 46.9881 16.6273 46.567C16.8449 46.1459 17.0602 45.7276 17.1059 45.6374C17.2885 45.2764 17.4144 45.3128 17.4676 45.7422C17.5092 46.0775 17.562 46.2003 17.709 46.3032C18.0752 46.5597 18.4747 46.1314 18.4764 45.4806C18.4776 45.0539 18.3824 44.8915 18.0782 44.8012C17.7842 44.7139 16.239 43.9381 16.0613 43.7885C15.8741 43.631 15.6758 43.6372 15.3613 43.8106ZM18.6871 45.438C18.5765 45.5486 18.601 45.7021 18.7526 45.8473C18.8282 45.9197 18.8901 46.0215 18.89 46.0735C18.8897 46.3301 18.3209 48.157 18.1583 48.4236C18.1013 48.5171 18.0137 48.585 17.9179 48.6098C17.6071 48.6903 17.6092 49.0049 17.9214 49.1431C18.1696 49.2529 20.3012 49.859 20.5439 49.8887C20.8583 49.9272 21.2379 49.8007 21.4815 49.5761C21.9712 49.1247 21.9937 48.3162 21.525 48.0126C21.4377 47.956 21.366 47.8886 21.3657 47.8627C21.3654 47.8369 21.4518 47.775 21.5578 47.7252C21.6637 47.6755 21.8132 47.5555 21.89 47.4587C22.0189 47.2962 22.0297 47.2547 22.0297 46.9225C22.0297 46.5643 22.0287 46.5613 21.8464 46.3739C21.6075 46.1283 21.2408 45.9583 20.563 45.7786C20.2605 45.6985 19.8093 45.5728 19.5602 45.4994C19.0518 45.3496 18.7937 45.3315 18.6871 45.438ZM31.2651 46.1214C30.7823 46.2485 30.2849 46.4791 30.1846 46.6223C30.036 46.8344 30.1792 47.1077 30.4389 47.1077C30.5431 47.1077 30.5915 47.1391 30.6442 47.241C30.7547 47.4546 31.1783 48.9848 31.2061 49.2708C31.229 49.5056 31.2194 49.5464 31.1108 49.6754C31.0444 49.7543 30.9901 49.8698 30.9901 49.932C30.9901 50.0591 31.1763 50.2702 31.2884 50.2702C31.3287 50.2702 31.7988 50.1442 32.3332 49.9903C32.8675 49.8364 33.4695 49.6813 33.671 49.6456C34.1126 49.5675 34.1935 49.4986 34.268 49.1372C34.3516 48.7314 34.2882 48.3571 34.1086 48.1962C33.8586 47.9724 33.6664 48.0505 33.6208 48.3943C33.5795 48.7057 33.4409 48.8984 33.1889 48.9949C32.8999 49.1057 32.7473 49.0999 32.6692 48.9754C32.6145 48.8882 32.4483 48.3381 32.1101 47.1235C32.019 46.7967 32.0264 46.7401 32.1825 46.5629C32.3306 46.3948 32.362 46.1919 32.2537 46.1019C32.1233 45.9937 31.7202 46.0017 31.2651 46.1214ZM20.2217 46.5462C20.1959 46.6408 20.1351 46.8558 20.0867 47.024C20.0382 47.1923 20.0104 47.3418 20.0249 47.3563C20.0394 47.3708 20.1271 47.3827 20.2198 47.3827C20.4358 47.3827 20.5273 47.2817 20.6146 46.9473C20.676 46.7122 20.6755 46.6758 20.609 46.5744C20.5492 46.4831 20.3741 46.3743 20.2868 46.3743C20.2768 46.3743 20.2475 46.4517 20.2217 46.5462ZM24.01 46.5584C23.9454 46.6092 23.8676 46.7278 23.837 46.8219C23.7684 47.0335 23.4905 47.5939 22.9793 48.5514C22.4605 49.5231 22.3685 49.6541 22.1561 49.7225C21.922 49.7979 21.8693 49.8476 21.8693 49.9928C21.8693 50.2722 22.1987 50.407 22.8829 50.4074C23.2596 50.4076 23.3411 50.3939 23.4443 50.3127C23.5146 50.2574 23.5651 50.1719 23.5651 50.1082C23.5651 49.999 23.5518 49.9819 23.3359 49.8147C23.2415 49.7415 23.2304 49.7113 23.2729 49.6428C23.3178 49.5703 23.388 49.5603 23.8229 49.5645C24.3804 49.5699 24.6844 49.6551 24.6568 49.7984C24.6483 49.8423 24.5974 49.9002 24.5436 49.9271C24.3506 50.0233 24.2935 50.0992 24.3076 50.2411C24.3174 50.3399 24.3619 50.4039 24.4611 50.4616C24.6661 50.5808 25.4777 50.6966 25.9498 50.6741C26.3942 50.6528 26.5692 50.5759 26.6183 50.3801C26.6431 50.2812 26.6147 50.2309 26.4437 50.0713C26.2742 49.9131 26.2155 49.8102 26.099 49.4681C25.4639 47.6024 25.2401 47.0392 25.0261 46.767C24.8056 46.4868 24.2469 46.372 24.01 46.5584ZM27.5649 46.626C27.1415 46.7028 26.8277 46.8521 26.7922 46.9936C26.7465 47.1755 26.7909 47.2645 26.9752 47.3601C27.0729 47.4108 27.1691 47.4963 27.1891 47.5501C27.2435 47.6974 27.3693 49.0413 27.3693 49.4761C27.3693 49.8475 27.3651 49.862 27.2089 50.035C27.103 50.1521 27.0487 50.2574 27.0491 50.3445C27.0508 50.6589 27.151 50.6791 28.2309 50.5833C28.7275 50.5393 29.351 50.5024 29.6164 50.5013C29.9623 50.4999 30.1259 50.4804 30.1943 50.4325C30.4144 50.2783 30.6022 49.535 30.4923 49.2528C30.429 49.0901 30.2412 48.9693 30.1047 49.0036C30.0281 49.0228 29.9646 49.1073 29.8806 49.3019C29.8112 49.4629 29.7118 49.6073 29.6367 49.6566C29.464 49.7696 28.9688 49.8021 28.8887 49.7056C28.8261 49.6302 28.7199 48.7424 28.6702 47.8806C28.6402 47.3602 28.642 47.3451 28.7457 47.2618C29.0874 46.9873 29.1282 46.8957 28.9764 46.744C28.7876 46.5552 28.2182 46.5076 27.5649 46.626ZM19.7484 48.2191C19.5321 48.9124 19.5486 49.0327 19.8603 49.0327C20.0799 49.0327 20.2354 48.895 20.3069 48.6375C20.3975 48.3111 20.353 48.1638 20.1285 48.0477C19.8932 47.9261 19.8312 47.954 19.7484 48.2191ZM24.0103 48.1704C23.8819 48.3416 23.6875 48.712 23.7128 48.7373C23.7546 48.7791 24.4818 48.8129 24.4818 48.7732C24.4818 48.6559 24.283 48.1621 24.2088 48.0949C24.129 48.0226 24.118 48.0268 24.0103 48.1704Z" fill="white"/>
</svg>

